<svg xmlns="http://www.w3.org/2000/svg" xmlns:xlink="http://www.w3.org/1999/xlink" viewBox="0 0 662.06 784.74"><defs><style>.cls-1{opacity:0.1;}.cls-2{fill:url(#Unbenannter_Verlauf_105);}.cls-3{fill:url(#Unbenannter_Verlauf_30);}.cls-4{fill:#ccc;}.cls-5{fill:url(#Unbenannter_Verlauf_54);}.cls-6{fill:#ebebeb;}.cls-7{fill:url(#Unbenannter_Verlauf_42);}.cls-8{fill:#fdf2d7;}.cls-9{fill:url(#Unbenannter_Verlauf_105-2);}.cls-10{fill:url(#Unbenannter_Verlauf_30-2);}</style><linearGradient id="Unbenannter_Verlauf_105" x1="484.6" y1="150.1" x2="611.32" y2="369.59" gradientUnits="userSpaceOnUse"><stop offset="0" stop-color="#fff"/><stop offset="1" stop-color="#fbfbfb"/></linearGradient><linearGradient id="Unbenannter_Verlauf_30" x1="376.68" y1="207.29" x2="454.46" y2="342.01" gradientUnits="userSpaceOnUse"><stop offset="0" stop-color="#e74856"/><stop offset="0.01" stop-color="#e74856"/><stop offset="0.51" stop-color="#e73b4b"/><stop offset="1" stop-color="#e73747"/></linearGradient><linearGradient id="Unbenannter_Verlauf_54" x1="288.42" y1="373.51" x2="362.16" y2="501.22" gradientUnits="userSpaceOnUse"><stop offset="0" stop-color="#25a1da"/><stop offset="0.34" stop-color="#119bd9"/><stop offset="0.67" stop-color="#0498d9"/><stop offset="1" stop-color="#0097d9"/></linearGradient><linearGradient id="Unbenannter_Verlauf_42" x1="302.82" y1="291.7" x2="366.86" y2="402.63" gradientUnits="userSpaceOnUse"><stop offset="0" stop-color="#ffde64"/><stop offset="0.33" stop-color="#ffda51"/><stop offset="0.67" stop-color="#ffd844"/><stop offset="1" stop-color="#ffd740"/></linearGradient><linearGradient id="Unbenannter_Verlauf_105-2" x1="257.68" y1="126.12" x2="362.33" y2="307.38" xlink:href="#Unbenannter_Verlauf_105"/><linearGradient id="Unbenannter_Verlauf_30-2" x1="200.39" y1="145.59" x2="381.66" y2="459.55" xlink:href="#Unbenannter_Verlauf_30"/></defs><title>loetschirm</title><g id="Ebene_2" data-name="Ebene 2"><g id="Ebene_1-2" data-name="Ebene 1"><g class="cls-1"><g id="_Gruppe_" data-name="&lt;Gruppe&gt;"><path d="M404.75,41.51c82.21,20.66,151.52,65,196,125.6,45.28,61.66,62,134.63,48.78,211.93-10.26-24.12-35.25-43.11-68-50.5a91.23,91.23,0,0,0-18.8-2.21,95,95,0,0,0-25.64,3.12,90.56,90.56,0,0,0-41.55,23.42c.82-5.61,1.5-11.25,2-16.92q.83-8.93,1.09-18C501.27,233.47,469.81,140.75,404.75,41.51Z"/><path d="M490.55,317.66l8.07.31q-.27,9-1.09,18l-8-.75C490,329.39,490.35,323.56,490.55,317.66Z"/><path d="M334.92,323.07,397.51,45.34c64.4,98,95.56,189.37,93,272.32-.2,5.9-.53,11.73-1.05,17.54q-.63,6.65-1.5,13.19c-10.69-26.9-36.12-49.05-66.34-55.86a73.39,73.39,0,0,0-26-.94C372.6,294.67,350.24,307.38,334.92,323.07Z"/><path d="M395.64,291.59a73.39,73.39,0,0,1,26,.94c30.22,6.81,55.65,29,66.34,55.86q.87-6.56,1.5-13.19l8,.75c-.49,5.67-1.17,11.31-2,16.92a90.56,90.56,0,0,1,41.55-23.42L539,337.3c-19.37,5-36.58,16.52-46.74,32.62a4.08,4.08,0,0,1-7.5-1.69c-3.74-31.12-31.65-60.26-64.93-67.77a66.48,66.48,0,0,0-23.2-.86Z"/><polygon points="385.93 377.4 383.68 391.36 253.66 362.07 257.61 348.49 385.93 377.4"/><path d="M383.53,399.67a1.77,1.77,0,0,1,1.33,2.12l-10.95,48.58a1.65,1.65,0,0,1-.78,1.1,1.68,1.68,0,0,1-1.33.23l-133.28-30a1.77,1.77,0,0,1-1.1-.77,1.72,1.72,0,0,1-.22-1.34L248.14,371a1.58,1.58,0,0,1,.78-1.1,1.55,1.55,0,0,1,1-.28,1.86,1.86,0,0,1,.38.06l49.3,11.09Z"/><polygon points="322.06 448.86 325.28 449.59 329.61 450.55 322.1 483.81 315.79 482.38 314.55 482.09 322.06 448.86"/><polygon points="299.84 478.77 307.35 445.54 314.09 447.06 306.61 480.31 299.84 478.77"/><path d="M312.09,292.54A111.37,111.37,0,0,1,327,321.3l7.93,1.77c15.32-15.69,37.68-28.4,60.72-31.48l1,8c-1.14.14-2.29.32-3.43.52L388.83,336a5.41,5.41,0,0,0,.07,2.5l5.82,19.62a25.11,25.11,0,0,1,1,7.38l-8.12.21a17.33,17.33,0,0,0-.74-5.26l-5.79-19.62a12.74,12.74,0,0,1-.32-6.07l4-32.63c-22.74,6.51-43.44,22.42-54.27,39.54a4,4,0,0,1-4.34,1.81,4.11,4.11,0,0,1-3.16-3.5c-1.67-13.8-7.8-29.11-17.22-42.4Z"/><polygon points="292.64 442.22 299.39 443.74 291.9 477 285.13 475.48 292.64 442.22"/><path d="M323,339.93a4.11,4.11,0,0,0,3.16,3.5,4,4,0,0,0,4.34-1.81c10.83-17.12,31.53-33,54.27-39.54l-4,32.63a12.74,12.74,0,0,0,.32,6.07l5.79,19.62a17.33,17.33,0,0,1,.51,7.84l-.16,1.11L259.9,340.64l.32-1.05a17.58,17.58,0,0,1,3.82-6.87l13.65-15.23a12.45,12.45,0,0,0,2.83-5.12L291,281a95.32,95.32,0,0,1,14.8,16.58C315.21,310.82,321.34,326.13,323,339.93Z"/><polygon points="284.68 440.42 277.2 473.68 269.64 471.99 277.13 438.73 284.68 440.42"/><path d="M291.23,498.48a4.07,4.07,0,0,1,3.08,4.86l-8.1,36a4.08,4.08,0,0,1-4,3.2,3.21,3.21,0,0,1-.84-.12,4.07,4.07,0,0,1-3.08-4.86l8.12-36A4,4,0,0,1,291.23,498.48Z"/><path d="M281.33,542.41a3.21,3.21,0,0,0,.84.12,4.08,4.08,0,0,0,4-3.2l8.1-36a4.07,4.07,0,0,0-7.94-1.78l-8.12,36A4.07,4.07,0,0,0,281.33,542.41ZM257.47,707.14l-25.24-5.68-3.33-.76,49.23-218.45,15.95,3.58L310,489.44,260.8,707.89l-3.33-.73Z"/><path d="M251.72,714.2,249,726.44a3.72,3.72,0,0,1-.2.59l-5.95,12.58a101.52,101.52,0,0,0-11.21-1.07l0-15.35a2.14,2.14,0,0,1,.06-.63l2.77-12.24Z"/><path d="M395.75,365.45l-8.12.21a17.3,17.3,0,0,1-.23,2.58l-.16,1.11L259.9,340.64l.32-1.05a17.58,17.58,0,0,1,3.82-6.87l13.65-15.23a12.45,12.45,0,0,0,2.83-5.12l-7.71-2.57-.09.25a4.78,4.78,0,0,1-1.08,2L258,327.27a25.91,25.91,0,0,0-5.56,10L245,362.78c-.11.08-.27.14-.38.22a9.76,9.76,0,0,0-4.39,6.21l-11,48.56a9.92,9.92,0,0,0,7.52,11.85l32.44,7.31-8.38,37.23a4.05,4.05,0,0,0,3.08,4.86l6.31,1.43L220.06,702.91a4.07,4.07,0,0,0,3.08,4.85l3.33.76-2.76,12.24a9.72,9.72,0,0,0-.25,2.41l0,15.36c-.69,0-1.37.08-2.06.13a7.47,7.47,0,0,1,.34,1.14,35.42,35.42,0,0,1,4.16,4.32,7.65,7.65,0,0,1,1.42,2.48h1.89a90.62,90.62,0,0,1,16.61,1.8c.07-.13.14-.26.22-.39a13.33,13.33,0,0,1,7.58-6.07c-.86-.24-1.7-.48-2.56-.69l5.08-10.71v0a13.54,13.54,0,0,0,.79-2.27L259.65,716l3.36.76a3.72,3.72,0,0,0,.81.09,4,4,0,0,0,2.24-.65,3.88,3.88,0,0,0,1.8-2.52L318,491.22l6.31,1.43a5.58,5.58,0,0,0,.81.09,4.05,4.05,0,0,0,4-3.17l8.39-37.22L370,459.66a10.72,10.72,0,0,0,2.06.25,10,10,0,0,0,9.82-7.76l10.95-48.56a10,10,0,0,0-1.57-7.85l4.2-26.21A22.23,22.23,0,0,0,395.75,365.45ZM269.64,472l7.49-33.26,7.55,1.69-7.48,33.26ZM249,726.44a3.72,3.72,0,0,1-.2.59l-5.95,12.58a101.52,101.52,0,0,0-11.21-1.07l0-15.35a2.14,2.14,0,0,1,.06-.63l2.77-12.24,17.28,3.88Zm11.85-18.55-3.33-.73v0l-25.24-5.68-3.33-.76,49.23-218.45,15.95,3.58L310,489.44Zm24.33-232.41,7.51-33.26,6.75,1.52L291.91,477Zm21.48,4.83-6.77-1.54,7.51-33.23,6.74,1.52Zm15.49,3.5-6.31-1.43-1.24-.29,7.51-33.23,3.22.73,4.33,1Zm62.76-82-10.95,48.58a1.65,1.65,0,0,1-.78,1.1,1.68,1.68,0,0,1-1.33.23l-133.28-30a1.77,1.77,0,0,1-1.1-.77,1.72,1.72,0,0,1-.22-1.34L248.14,371a1.58,1.58,0,0,1,.78-1.1,1.55,1.55,0,0,1,1-.28,1.86,1.86,0,0,1,.38.06l49.3,11.09,84,18.92A1.77,1.77,0,0,1,384.86,401.79Zm-1.18-10.43-130-29.29,4-13.58L385.93,377.4Z"/><path d="M176.72,279.37c24.61-88.63,96.16-167.94,212.89-236L327,321.3a111.37,111.37,0,0,0-14.9-28.76c-12.35-17.28-29.85-31.43-50.33-36.05C231,249.56,197.89,259,176.72,279.37Z"/><path d="M100.09,228.41C63.23,220.11,29.46,230.53,14,255a4.08,4.08,0,0,1-7.43-3.07C26,165.94,75.53,99.31,149.88,59.23c69.51-37.49,155.53-47.69,242.67-28.94l4.63-20.55a4.08,4.08,0,0,1,8,1.8L400.51,32.1C487.27,52.53,560.6,98.63,607.34,162.29c50,68.12,66.15,149.56,46.77,235.52a4.07,4.07,0,0,1-4,3.17h-.16a4.09,4.09,0,0,1-3.83-3.59c-3.46-28.69-29.52-52.59-66.35-60.89a87,87,0,0,0-40.72.8l-1.94-7.85a95,95,0,0,1,25.64-3.12,91.23,91.23,0,0,1,18.8,2.21c32.74,7.39,57.73,26.38,68,50.5,13.2-77.3-3.5-150.27-48.78-211.93C556.27,106.53,487,62.17,404.75,41.51c65.06,99.24,96.52,192,93.87,276.46l-8.07-.31c2.52-83-28.64-174.29-93-272.32L334.92,323.07,327,321.3,389.61,43.35c-116.73,68.08-188.28,147.39-212.89,236,21.17-20.34,54.25-29.81,85-22.88,20.48,4.62,38,18.77,50.33,36.05l-6.3,5A95.32,95.32,0,0,0,291,281l-10.47,31.42-7.71-2.57,11.38-34.26A67.83,67.83,0,0,0,260,264.45c-33.37-7.51-71.19,6.78-87.92,33.3a4.08,4.08,0,0,1-7.5-1.69C160.72,264.43,133.62,236,100.09,228.41Zm-81.3,8.53c19.64-17.39,50.33-23.86,83.07-16.47,30.8,6.93,56.62,30,66.69,57.88,24.82-90.91,97.34-172,215.86-241.41-83-16.52-164.56-6.17-230.67,29.47C86.43,102.68,40,161.42,18.79,236.94Z"/><path d="M153.74,66.41c66.11-35.64,147.65-46,230.67-29.47-118.52,69.39-191,150.5-215.86,241.41-10.07-27.84-35.89-51-66.69-57.88-32.74-7.39-63.43-.92-83.07,16.47C40,161.42,86.43,102.68,153.74,66.41Z"/></g></g><g id="_Gruppe_2" data-name="&lt;Gruppe&gt;"><path class="cls-2" d="M395,34.89c82.52,19.43,152.49,62.74,197.86,122.66,46.19,61,64,133.68,52,211.17-10.63-24-35.9-42.58-68.75-49.48a91.94,91.94,0,0,0-18.83-1.93,95.19,95.19,0,0,0-25.59,3.51,90.62,90.62,0,0,0-41.2,24c.74-5.62,1.34-11.27,1.74-16.95.47-6,.74-12,.82-18C494.41,225.39,461.56,133.15,395,34.89Z"/><path d="M485,309.73l8.07.19c-.08,6-.35,12-.82,18l-8-.63C484.61,321.47,484.85,315.63,485,309.73Z"/><path class="cls-3" d="M329.43,317.48,387.85,38.83c65.86,97.06,98.39,187.92,97.11,270.9-.11,5.9-.35,11.74-.79,17.55q-.53,6.64-1.3,13.21C471.78,313.75,446,292,415.7,285.63a73.43,73.43,0,0,0-26-.54C366.68,288.51,344.51,301.55,329.43,317.48Z"/><path d="M389.67,285.09a73.43,73.43,0,0,1,26,.54c30.32,6.36,56.08,28.12,67.17,54.86q.76-6.56,1.3-13.21l8,.63c-.4,5.68-1,11.33-1.74,16.95a90.62,90.62,0,0,1,41.2-24l2.06,7.82C514.44,334,497.4,345.71,487.49,362a4.08,4.08,0,0,1-7.53-1.58c-4.21-31.06-32.55-59.78-65.95-66.79a66.46,66.46,0,0,0-23.2-.51Z"/><polygon class="cls-4" points="381.25 371.03 379.21 385.02 248.76 357.69 252.51 344.05 381.25 371.03"/><path class="cls-5" d="M379.18,393.34a1.76,1.76,0,0,1,1.36,2.09l-10.22,48.75a1.75,1.75,0,0,1-2.09,1.35l-133.71-28a1.76,1.76,0,0,1-1.11-.76,1.71,1.71,0,0,1-.25-1.33l10.22-48.75a1.59,1.59,0,0,1,.76-1.11,1.54,1.54,0,0,1,1-.3,2.84,2.84,0,0,1,.38.05l49.45,10.36Z"/><polygon class="cls-6" points="318.45 443.44 321.69 444.12 326.03 445.02 319.02 478.38 312.69 477.05 311.44 476.78 318.45 443.44"/><polygon class="cls-6" points="296.69 473.68 303.7 440.35 310.46 441.76 303.48 475.12 296.69 473.68"/><path d="M306.14,287.29a111.7,111.7,0,0,1,15.33,28.53l8,1.66c15.08-15.93,37.25-29,60.24-32.39l1.14,8q-1.71.24-3.42.57l-3.86,35.89a5.35,5.35,0,0,0,.11,2.5l6.11,19.54a25.34,25.34,0,0,1,1.14,7.36l-8.12.33A17,17,0,0,0,382,354l-6.08-19.53a12.72,12.72,0,0,1-.41-6.06l3.5-32.69c-22.63,6.85-43.09,23.07-53.66,40.35A4,4,0,0,1,321,338a4.12,4.12,0,0,1-3.21-3.45c-1.87-13.77-8.23-29-17.85-42.14Z"/><polygon class="cls-6" points="288.94 437.25 295.71 438.66 288.73 472.03 281.94 470.61 288.94 437.25"/><path class="cls-7" d="M317.77,334.51A4.12,4.12,0,0,0,321,338a4,4,0,0,0,4.32-1.87c10.57-17.28,31-33.5,53.66-40.35l-3.5,32.69a12.72,12.72,0,0,0,.41,6.06L382,354a17,17,0,0,1,.82,5.25,17.33,17.33,0,0,1-.19,2.58l-.14,1.11L254.68,336.17l.3-1.06a17.74,17.74,0,0,1,3.72-6.93l13.43-15.43a12.6,12.6,0,0,0,2.74-5.16l10-31.58a95.41,95.41,0,0,1,15.05,16.36C309.54,305.52,315.9,320.74,317.77,334.51Z"/><polygon class="cls-6" points="280.96 435.56 273.97 468.93 266.39 467.35 273.38 433.99 280.96 435.56"/><path d="M288.37,493.52a4.06,4.06,0,0,1,3.16,4.81L284,534.44a4.08,4.08,0,0,1-4,3.26,3.18,3.18,0,0,1-.84-.11,4.07,4.07,0,0,1-3.16-4.81l7.59-36.11A4,4,0,0,1,288.37,493.52Z"/><path class="cls-8" d="M156.57,780.67a89.9,89.9,0,0,1,147,0Z"/><path class="cls-4" d="M279.14,537.59a3.18,3.18,0,0,0,.84.11,4.08,4.08,0,0,0,4-3.26l7.56-36.11a4.07,4.07,0,0,0-8-1.66L276,532.78A4.07,4.07,0,0,0,279.14,537.59ZM257.75,702.66l-25.32-5.3-3.34-.71L275,477.49l16,3.34,16,3.37-46,219.16-3.34-.68Z"/><path class="cls-6" d="M252.1,709.8l-2.58,12.28a3.51,3.51,0,0,1-.19.6l-5.76,12.66a104.52,104.52,0,0,0-11.22-.89l-.22-15.35a2.56,2.56,0,0,1,.05-.63l2.59-12.28Z"/><path d="M266.39,467.35l7.58,1.58,7-33.37L273.38,434ZM232.13,719.1l.22,15.35a104.52,104.52,0,0,1,11.22.89l5.76-12.66a3.51,3.51,0,0,0,.19-.6l2.58-12.28-17.33-3.61-2.59,12.28A2.56,2.56,0,0,0,232.13,719.1ZM307,484.2l-16-3.37-16-3.34L229.09,696.65l3.34.71,25.32,5.3v0l3.34.68ZM248.76,357.69,379.21,385l2-14-128.74-27Zm47.93,116,6.79,1.44,7-33.36-6.76-1.42Zm-62.17-56.16,133.71,28a1.75,1.75,0,0,0,2.09-1.35l10.22-48.75a1.76,1.76,0,0,0-1.36-2.09l-84.26-17.66-49.45-10.36a2.84,2.84,0,0,0-.38-.05,1.54,1.54,0,0,0-1,.3,1.59,1.59,0,0,0-.76,1.11l-10.22,48.75a1.71,1.71,0,0,0,.25,1.33A1.76,1.76,0,0,0,234.52,417.52Zm61.19,21.14L289,437.25l-7,33.36,6.8,1.42Zm25.65,48.53L315,485.86,268.24,709a3.9,3.9,0,0,1-1.77,2.56,4.08,4.08,0,0,1-2.22.68,3.75,3.75,0,0,1-.82-.09l-3.37-.7-2.55,12.28a13.56,13.56,0,0,1-.76,2.28v0l-4.92,10.79A97.93,97.93,0,0,1,312,778.41a4.09,4.09,0,0,1-1.17,5.65,4,4,0,0,1-2.23.68,4,4,0,0,1-3.39-1.82c-.52-.79-1.06-1.49-1.61-2.25a89.9,89.9,0,0,0-147,0c-.55.76-1.09,1.46-1.61,2.25a4.08,4.08,0,0,1-6.79-4.51,98.05,98.05,0,0,1,76-43.85L224,719.2a9.71,9.71,0,0,1,.22-2.41l2.58-12.29-3.34-.7a4.07,4.07,0,0,1-3.16-4.81L267.07,475.8l-6.33-1.33a4.06,4.06,0,0,1-3.15-4.81l7.82-37.36-32.55-6.82a9.92,9.92,0,0,1-7.69-11.74L235.39,365a9.8,9.8,0,0,1,4.29-6.28c.11-.08.28-.14.38-.22l7.07-25.59a25.78,25.78,0,0,1,5.41-10.11L266,307.4a5,5,0,0,0,1.06-2l.08-.24,7.74,2.45a12.6,12.6,0,0,1-2.74,5.16L258.7,328.18a17.74,17.74,0,0,0-3.72,6.93l-.3,1.06L382.44,363l.14-1.11a17.33,17.33,0,0,0,.19-2.58l8.12-.33a22.09,22.09,0,0,1-.24,4.07l-3.81,26.28a10,10,0,0,1,1.69,7.82l-10.22,48.72a9.77,9.77,0,0,1-4.29,6.28,9.94,9.94,0,0,1-5.41,1.63,10.46,10.46,0,0,1-2.06-.22L334,446.7,326.17,484a4.06,4.06,0,0,1-4,3.23A4.47,4.47,0,0,1,321.36,487.19Zm-8.67-10.14,6.33,1.33L326,445l-4.34-.9-3.24-.68-7,33.34Z"/><path class="cls-9" d="M170.59,276.15c23.28-89,93.63-169.36,209.32-239.19L321.47,315.82a111.7,111.7,0,0,0-15.33-28.53c-12.6-17.09-30.32-31-50.86-35.3C224.39,245.53,191.45,255.5,170.59,276.15Z"/><path d="M93.2,226.34c-37-7.74-70.59,3.18-85.64,27.85a4.08,4.08,0,0,1-7.47-3C18.16,165,66.71,97.63,140.45,56.44c68.94-38.53,154.8-50,242.21-32.58L387,3.24a4.08,4.08,0,0,1,8,1.68l-4.32,20.63C477.7,44.68,551.72,89.67,599.4,152.63c51,67.36,68.4,148.54,50.3,234.78a4.07,4.07,0,0,1-4,3.24h-.16a4.11,4.11,0,0,1-3.89-3.53c-3.88-28.64-30.29-52.15-67.25-59.89a87,87,0,0,0-40.7,1.41l-2.06-7.82a95.19,95.19,0,0,1,25.59-3.51,91.94,91.94,0,0,1,18.83,1.93c32.85,6.9,58.12,25.52,68.75,49.48,12-77.49-5.77-150.2-52-211.17C547.51,97.63,477.54,54.32,395,34.89c66.54,98.26,99.39,190.5,98,275l-8.07-.19c1.28-83-31.25-173.84-97.11-270.9L329.43,317.48l-8-1.66L379.91,37c-115.69,69.83-186,150.2-209.32,239.19,20.86-20.65,53.8-30.62,84.69-24.16,20.54,4.32,38.26,18.21,50.86,35.3l-6.22,5.08A95.41,95.41,0,0,0,284.87,276l-10,31.58-7.74-2.45L278,270.71A68,68,0,0,0,253.6,260c-33.48-7-71.08,7.85-87.41,34.62a4.08,4.08,0,0,1-7.53-1.58C154.37,261.45,126.84,233.41,93.2,226.34ZM12,236.1c19.38-17.69,50-24.62,82.82-17.72,30.89,6.47,57.06,29.18,67.55,56.87C185.86,184,257.15,101.79,374.62,30.63,291.36,15.36,210,26.93,144.42,63.56,77.66,100.84,32.15,160.26,12,236.1Z"/><path class="cls-10" d="M144.42,63.56C210,26.93,291.36,15.36,374.62,30.63,257.15,101.79,185.86,184,162.41,275.25c-10.49-27.69-36.66-50.4-67.55-56.87-32.85-6.9-63.44,0-82.82,17.72C32.15,160.26,77.66,100.84,144.42,63.56Z"/></g></g></g></svg>