<svg xmlns="http://www.w3.org/2000/svg" xmlns:xlink="http://www.w3.org/1999/xlink" viewBox="0 0 658.64 289.94"><defs><style>.cls-1{opacity:0.1;}.cls-2{fill:url(#Unbenannter_Verlauf_105);}.cls-3{fill:#e73747;}.cls-4{fill:#1d1d1b;}</style><linearGradient id="Unbenannter_Verlauf_105" x1="273.77" y1="66.9" x2="444.56" y2="362.72" gradientUnits="userSpaceOnUse"><stop offset="0" stop-color="#fff"/><stop offset="1" stop-color="#fbfbfb"/></linearGradient></defs><title>wortmarke_1</title><g id="Ebene_2" data-name="Ebene 2"><g id="Ebene_1-2" data-name="Ebene 1"><rect class="cls-1" x="26.94" y="10.38" width="631.7" height="279.57"/><rect class="cls-2" width="631.7" height="279.57"/><path class="cls-3" d="M41.07,175h8.41V124.25H41.07v-9.8H73.33c5.25,0,8.91.4,12.57,1.88,6.34,2.47,10.69,8.41,10.69,16.23,0,6.53-3.17,12.17-8.61,15v.2c7.82,2.38,11.38,9.21,11.38,16.63a19.56,19.56,0,0,1-14,19.1,36.74,36.74,0,0,1-10.49,1.19H41.07Zm33.75-31.87c5.54,0,8.61-3.86,8.61-9.2,0-3.47-1.29-6.54-4.06-8a13.74,13.74,0,0,0-6-1.09H62.45v18.31Zm.69,31.18a14.12,14.12,0,0,0,5-.8c3.56-1.48,5.64-5.44,5.64-9.89,0-6-3.76-10.2-10.19-10.2H62.45v20.89Z"/><path class="cls-3" d="M105.88,175h8.41V124.25h-8.41v-9.8H158v18.11H147v-7.72H127.26v19.3h23.16v10.39H127.26v19.8h21.18v-7.92h11.08v18.31H105.88Z"/><path class="cls-3" d="M164.93,175h6.43l21.08-60.57h14.75L228.27,175h6.43v9.7H208.27V175h6.93l-4.35-13.16H188.68L184.32,175h6.93v9.7H164.93Zm42.95-23.26-6.63-19.89a30.29,30.29,0,0,1-1.29-6.14h-.3a41,41,0,0,1-1.28,6.14l-6.73,19.89Z"/><path class="cls-3" d="M271.15,113.26c8.51,0,27.41,3,27.41,14.06v9.5H286.78v-5.45c0-5.24-9.3-7-15-7-13.56,0-23.45,9.5-23.45,24.34,0,15.84,10.29,26.13,24.14,26.13,4.26,0,15.24-1.39,15.24-6.93v-5.44h11.78v9.6c0,10.49-18.11,13.85-27.81,13.85-21.28,0-36.72-16.13-36.72-36.61C234.92,128.5,250.76,113.26,271.15,113.26Z"/><path class="cls-3" d="M306.64,175h8.41V124.25h-8.41v-9.8h29.88v9.8H328v20.29h32V124.25h-8.51v-9.8h29.89v9.8h-8.42V175h8.42v9.7H351.47V175H360V154.93H328V175h8.51v9.7H306.64Z"/><path d="M38.38,98.3h7.25V48.18H38V45H49V68.24a17.05,17.05,0,0,1-.32,3.31h.16A18.57,18.57,0,0,1,65.94,60.18c10.47,0,13.29,6.21,13.29,15.72V98.3h7.25v3.14H75.85V77.11c0-7-.89-13.62-9.91-13.62C56.59,63.49,49,71.14,49,81.78V98.3h7.26v3.14H38.38Z"/><path d="M115.35,76.86H118V75.09c0-8.62-4.43-11.68-10.71-11.68a20,20,0,0,0-11.85,4l-1.93-2.74s5.07-4.44,13.86-4.44c9.26,0,14,5,14,14.83V96.53a1.57,1.57,0,0,0,1.77,1.77H128v3.14h-5.31c-3.31,0-4.68-1.37-4.68-4.43v-.89a18.51,18.51,0,0,1,.32-3.62h-.16s-3.54,9.91-14.26,9.91c-6.45,0-13.54-3.63-13.54-11.93C90.37,77.11,108.42,76.86,115.35,76.86ZM103.91,99.27c9.27,0,14.1-9.11,14.1-17.09V80h-2.58c-3,0-21.51-.73-21.51,10.07C93.92,94.75,97.38,99.27,103.91,99.27Z"/><path d="M152,60.18c4.35,0,14.19,1.86,14.19,8.38v3.87h-3.39V69.29c0-4-6.93-5.8-10.8-5.8-9.43,0-17.24,7-17.24,17.89,0,10.71,7.81,17.73,17.24,17.73a17.77,17.77,0,0,0,13.46-5.81l1.77,2.82A20.52,20.52,0,0,1,152,102.41c-11.36,0-20.79-8.22-20.79-21S140.81,60.18,152,60.18Z"/><path d="M172.09,98.3h7.25V48.18h-7.65V45h11V77h6.77l10.87-12.74h-6.28V61.15h16.36v3.14h-5.72L192.64,78.23v.17c.08,0,1.05.4,2.66,3.06l9,15.07c.89,1.45,1.45,1.77,3.87,1.77h3v3.14H208c-4.35,0-5.24-.8-7.33-4.27l-9.19-15.23c-1-1.53-1.93-1.77-4.11-1.77h-4.67V98.3H190v3.14H172.09Z"/><path d="M215.76,89.44h3.38V92.5c0,4.67,6.85,6.61,11.69,6.61,5.56,0,10.55-2.58,10.55-7.34,0-5.24-5.72-7.17-11.6-9.43-6.12-2.33-12.41-5-12.41-11.76s6.61-10.4,13-10.4c5.24,0,12.9,2.34,12.9,7.66v4.43h-3.39V69c0-3.39-4.67-5.48-9.34-5.48-5,0-9.67,2.33-9.67,6.85,0,4.91,5.4,6.93,11,9.1,6.28,2.42,13,5.08,13,12,0,6.45-5.64,11-14.42,11-7.5,0-14.75-3.47-14.75-9.51Z"/><path d="M293.93,60.18A20.73,20.73,0,0,1,314.8,81.05a20.88,20.88,0,1,1-41.74,0A20.72,20.72,0,0,1,293.93,60.18Zm0,38.93c9.59,0,17.32-7.82,17.32-18.06a17.33,17.33,0,1,0-34.65,0C276.6,91.29,284.34,99.11,293.93,99.11Z"/><path d="M319,98.3h7.25V66.07a1.58,1.58,0,0,0-1.77-1.78h-5.89V61.15h6.37c3.3,0,4.67,1.37,4.67,4.43v2.66a17.05,17.05,0,0,1-.32,3.31h.16a18.57,18.57,0,0,1,17.09-11.37c10.47,0,13.29,6.21,13.29,15.72V98.3h7.25v3.14H356.45V77.11c0-7-.89-13.62-9.91-13.62-9.59,0-16.93,8.22-16.93,18V98.3h7.26v3.14H319Z"/><path d="M397.79,64.29h-7.65V61.15h7.65V50h3.39v11.2h10.55v3.14H401.18V86.62c0,10.63,6.36,12,9.59,12a9.52,9.52,0,0,0,1.85-.16v3.14a11.5,11.5,0,0,1-2,.16c-4.19,0-12.81-1.53-12.81-14.9Z"/><path d="M417.14,98.3h7.25V48.18h-7.65V45h11V68.24a17.05,17.05,0,0,1-.32,3.31h.16A18.57,18.57,0,0,1,444.7,60.18c10.48,0,13.3,6.21,13.3,15.72V98.3h7.25v3.14H454.61V77.11c0-7-.88-13.62-9.91-13.62-9.35,0-16.92,7.65-16.92,18.29V98.3H435v3.14H417.14Z"/><path d="M487.61,60.18c10.95,0,16.43,8.63,16.43,18.38,0,.88-.16,2.17-.16,2.17H471.57c0,11.69,7.9,18.38,17.24,18.38A18.22,18.22,0,0,0,501.3,94l1.86,2.82a22,22,0,0,1-14.35,5.56c-11.36,0-20.79-8.22-20.79-21C468,67.76,477.29,60.18,487.61,60.18ZM500.5,77.59c-.4-9.83-6.29-14.26-13-14.26-7.41,0-14.26,4.83-15.71,14.26Z"/><path class="cls-4" d="M38.81,214.92H50.94v2.2H41.18v6.55h9.59v2.2H41.18v8.8H38.81Z"/><path class="cls-4" d="M54.77,232.64h5.08V217H54.94v-2h7.11v17.72h5.08v2H54.77Z"/><path class="cls-4" d="M72.32,228.35a5,5,0,0,0,1.3,3.36A4.49,4.49,0,0,0,77,233a5.87,5.87,0,0,0,1.72-.23,3.75,3.75,0,0,0,1.25-.62,3.37,3.37,0,0,0,.85-.92,4.9,4.9,0,0,0,.52-1.11l2.09.56a6.13,6.13,0,0,1-2.19,3.18,6.85,6.85,0,0,1-4.3,1.23,7.06,7.06,0,0,1-2.75-.53A6,6,0,0,1,72,233.06a7,7,0,0,1-1.41-2.28,8.18,8.18,0,0,1-.51-2.94v-.67a7.26,7.26,0,0,1,.52-2.74,6.52,6.52,0,0,1,1.46-2.19,6.9,6.9,0,0,1,2.18-1.44,7,7,0,0,1,2.73-.52,6.54,6.54,0,0,1,3,.63A6.65,6.65,0,0,1,82,222.48a6.09,6.09,0,0,1,1.19,2,6.38,6.38,0,0,1,.38,2v1.81Zm4.69-6a5.21,5.21,0,0,0-1.74.29,4.55,4.55,0,0,0-1.41.84,4.49,4.49,0,0,0-1,1.25,4.58,4.58,0,0,0-.49,1.57h9a4,4,0,0,0-.44-1.64,3.88,3.88,0,0,0-1-1.24,4.48,4.48,0,0,0-1.38-.79A4.59,4.59,0,0,0,77,222.37Z"/><path class="cls-4" d="M89.78,234.67h-2.2v-14h2.2v2.38h.34a4.58,4.58,0,0,1,4.51-2.77,5.08,5.08,0,0,1,3.87,1.51,6.35,6.35,0,0,1,1.44,4.53v8.35h-2.2v-7.9a4.79,4.79,0,0,0-1-3.3,3.4,3.4,0,0,0-2.68-1.1,3.86,3.86,0,0,0-3.15,1.37,5.52,5.52,0,0,0-1.14,3.65Z"/><path class="cls-4" d="M106.83,224.29a1.74,1.74,0,0,0,.86,1.55,7.53,7.53,0,0,0,3.15.7,7.16,7.16,0,0,1,3.74,1.18,3.31,3.31,0,0,1,1.28,2.83v.17a3.87,3.87,0,0,1-.41,1.82,4,4,0,0,1-1.12,1.37,5.11,5.11,0,0,1-1.75.86,8.91,8.91,0,0,1-5.06-.14,5.69,5.69,0,0,1-1.94-1.16,4.73,4.73,0,0,1-1.17-1.63A5.47,5.47,0,0,1,104,230l2.09-.51a3.78,3.78,0,0,0,1.24,2.58,4.29,4.29,0,0,0,2.94,1,4.63,4.63,0,0,0,2.5-.6,1.93,1.93,0,0,0,.94-1.71,1.77,1.77,0,0,0-.93-1.69,7.68,7.68,0,0,0-3-.65,7,7,0,0,1-3.72-1.13,3.25,3.25,0,0,1-1.3-2.79v-.17a3.5,3.5,0,0,1,.42-1.74,3.69,3.69,0,0,1,1.14-1.25,5.21,5.21,0,0,1,1.63-.77,6.9,6.9,0,0,1,1.89-.25,7.11,7.11,0,0,1,2.42.38,5.37,5.37,0,0,1,1.75,1,4.19,4.19,0,0,1,1.09,1.4,5.25,5.25,0,0,1,.49,1.58l-2.08.5a3,3,0,0,0-1.09-2.11,3.8,3.8,0,0,0-2.47-.77,5.31,5.31,0,0,0-1.14.13,3.57,3.57,0,0,0-1,.38,2.05,2.05,0,0,0-.67.64A1.55,1.55,0,0,0,106.83,224.29Z"/><path class="cls-4" d="M122.22,234.67H120V214.92h2.2v8h.34a4.93,4.93,0,0,1,2-1.94,6.17,6.17,0,0,1,2.83-.66,6.33,6.33,0,0,1,2.45.48,6.18,6.18,0,0,1,2,1.38,6.64,6.64,0,0,1,1.41,2.23,8.17,8.17,0,0,1,.52,3V228a8.42,8.42,0,0,1-.51,3,6.36,6.36,0,0,1-1.39,2.23,6,6,0,0,1-2.08,1.37,6.83,6.83,0,0,1-2.51.47,6.65,6.65,0,0,1-1.38-.16,5.69,5.69,0,0,1-2.51-1.27,4.29,4.29,0,0,1-.91-1.11h-.34Zm4.69-1.69a4.85,4.85,0,0,0,1.86-.35,4.33,4.33,0,0,0,1.48-1,4.47,4.47,0,0,0,1-1.58,5.71,5.71,0,0,0,.35-2.08v-.57a5.53,5.53,0,0,0-.35-2,4.7,4.7,0,0,0-1-1.59,4.57,4.57,0,0,0-1.49-1,4.77,4.77,0,0,0-1.85-.36,4.36,4.36,0,0,0-1.84.38,4.68,4.68,0,0,0-1.48,1.06,4.92,4.92,0,0,0-1,1.62,5.77,5.77,0,0,0-.37,2.07v.34a5.86,5.86,0,0,0,.37,2.1,4.87,4.87,0,0,0,1,1.63,4.47,4.47,0,0,0,1.48,1A4.52,4.52,0,0,0,126.91,233Z"/><path class="cls-4" d="M147.6,220.67h2.2v14h-2.2v-2.54h-.34a5.81,5.81,0,0,1-1.77,2.15,4.75,4.75,0,0,1-2.8.79,5.89,5.89,0,0,1-2.13-.38,4.39,4.39,0,0,1-1.66-1.15,5.44,5.44,0,0,1-1.08-1.89,8.27,8.27,0,0,1-.38-2.62v-8.36h2.2v8.08a4.7,4.7,0,0,0,.91,3.21,3.49,3.49,0,0,0,2.76,1,3.89,3.89,0,0,0,3.15-1.37A5.52,5.52,0,0,0,147.6,228Z"/><path class="cls-4" d="M153.56,220.67h5.08v1.87H159a3.7,3.7,0,0,1,1.52-1.71,4.56,4.56,0,0,1,2.26-.55,4.49,4.49,0,0,1,3.42,1.38,6,6,0,0,1,1.38,4l-2.31.34a3.64,3.64,0,0,0-.94-2.81,3.2,3.2,0,0,0-2.28-.86,3.12,3.12,0,0,0-1.51.34,3,3,0,0,0-1.06.93,4,4,0,0,0-.62,1.38,7.05,7.05,0,0,0-.2,1.69v5.93h3.56v2h-9v-2h3.22v-9.93h-2.88Z"/><path class="cls-4" d="M182.14,232.53h-.34a4.53,4.53,0,0,1-1.85,1.9,5.19,5.19,0,0,1-2.55.64,7.34,7.34,0,0,1-2.66-.48,6.44,6.44,0,0,1-3.68-3.63,7.92,7.92,0,0,1-.55-3.06v-.45a7.73,7.73,0,0,1,.57-3,6.75,6.75,0,0,1,1.49-2.25,6.38,6.38,0,0,1,2.17-1.4,7.18,7.18,0,0,1,2.6-.48,5.23,5.23,0,0,1,2.67.66,4.62,4.62,0,0,1,1.79,1.94h.34v-2.21h2.2v17.44a2.14,2.14,0,0,1-.61,1.58,2.06,2.06,0,0,1-1.56.63h-9.12v-2h8.33c.5,0,.76-.28.76-.84Zm-4.69.45a4.52,4.52,0,0,0,1.84-.37,4.37,4.37,0,0,0,1.48-1,4.87,4.87,0,0,0,1-1.63,5.65,5.65,0,0,0,.37-2.1v-.34a5.56,5.56,0,0,0-.37-2.07,4.92,4.92,0,0,0-1-1.62,4.45,4.45,0,0,0-1.5-1.06,4.34,4.34,0,0,0-1.82-.38,4.77,4.77,0,0,0-1.85.36,4.48,4.48,0,0,0-1.49,1.05,5,5,0,0,0-1,1.61,5.9,5.9,0,0,0-.35,2.06v.45a6.12,6.12,0,0,0,.35,2.12,4.76,4.76,0,0,0,1,1.59,4.46,4.46,0,0,0,1.48,1A4.93,4.93,0,0,0,177.45,233Z"/><path class="cls-4" d="M191.05,224.29a1.74,1.74,0,0,0,.86,1.55,7.53,7.53,0,0,0,3.15.7,7.16,7.16,0,0,1,3.74,1.18,3.33,3.33,0,0,1,1.28,2.83v.17a3.87,3.87,0,0,1-.41,1.82,4,4,0,0,1-1.13,1.37,5,5,0,0,1-1.74.86,8.91,8.91,0,0,1-5.06-.14,5.69,5.69,0,0,1-1.94-1.16,4.73,4.73,0,0,1-1.17-1.63,5.47,5.47,0,0,1-.46-1.85l2.09-.51a3.78,3.78,0,0,0,1.24,2.58,4.29,4.29,0,0,0,2.94,1,4.63,4.63,0,0,0,2.5-.6,1.93,1.93,0,0,0,.94-1.71A1.77,1.77,0,0,0,197,229a7.68,7.68,0,0,0-3-.65,7,7,0,0,1-3.72-1.13,3.25,3.25,0,0,1-1.3-2.79v-.17a3.5,3.5,0,0,1,.42-1.74,3.69,3.69,0,0,1,1.14-1.25,5.21,5.21,0,0,1,1.63-.77,6.9,6.9,0,0,1,1.89-.25,7.11,7.11,0,0,1,2.42.38,5.37,5.37,0,0,1,1.75,1,4.19,4.19,0,0,1,1.09,1.4,5.25,5.25,0,0,1,.49,1.58l-2.08.5a3,3,0,0,0-1.09-2.11,3.8,3.8,0,0,0-2.47-.77,5.31,5.31,0,0,0-1.14.13,3.57,3.57,0,0,0-1,.38,2.05,2.05,0,0,0-.67.64A1.55,1.55,0,0,0,191.05,224.29Z"/><path class="cls-4" d="M222.91,214.92h12.14v2.2h-9.77v6.55h9.6v2.2h-9.6v8.8h-2.37Z"/><path class="cls-4" d="M238.11,220.67h5.08v1.87h.33a3.67,3.67,0,0,1,1.53-1.71,4.53,4.53,0,0,1,2.26-.55,4.47,4.47,0,0,1,3.41,1.38,5.93,5.93,0,0,1,1.38,4l-2.31.34a3.67,3.67,0,0,0-.93-2.81,3.21,3.21,0,0,0-2.29-.86,3.15,3.15,0,0,0-1.51.34,3,3,0,0,0-1.06.93,4.15,4.15,0,0,0-.62,1.38,7.06,7.06,0,0,0-.19,1.69v5.93h3.55v2h-9v-2H241v-9.93h-2.87Z"/><path class="cls-4" d="M255.22,232.64h4.91v-9.93h-4.4v-2h6.6v12h4.58v2H255.22Zm4-16.14a2,2,0,0,1,2-2,1.92,1.92,0,0,1,1.4.58,1.89,1.89,0,0,1,.58,1.4,2,2,0,0,1-3.95,0Z"/><path class="cls-4" d="M283.82,229.7a7.08,7.08,0,0,1-.78,2.15,6.11,6.11,0,0,1-1.4,1.71,6,6,0,0,1-2,1.11,7.64,7.64,0,0,1-2.51.4,8,8,0,0,1-2.78-.48,6.62,6.62,0,0,1-3.87-3.64,7.68,7.68,0,0,1-.58-3v-.34a7.82,7.82,0,0,1,.58-3.05,6.77,6.77,0,0,1,1.57-2.28,7,7,0,0,1,2.3-1.44,7.58,7.58,0,0,1,2.78-.51,7.45,7.45,0,0,1,2.45.39,6.46,6.46,0,0,1,2,1.12A5.81,5.81,0,0,1,283,223.5a6.57,6.57,0,0,1,.75,2.14l-2.2.51a4.66,4.66,0,0,0-.41-1.43,3.93,3.93,0,0,0-2.21-2,5,5,0,0,0-1.84-.31,4.64,4.64,0,0,0-1.9.38,4.71,4.71,0,0,0-1.57,1.07,5,5,0,0,0-1.06,1.65,5.71,5.71,0,0,0-.38,2.09v.34a5.73,5.73,0,0,0,.38,2.13,4.57,4.57,0,0,0,1.06,1.59,4.75,4.75,0,0,0,1.58,1,5.4,5.4,0,0,0,2,.35,4.65,4.65,0,0,0,1.82-.33,4.13,4.13,0,0,0,2.2-2,5.37,5.37,0,0,0,.44-1.41Z"/><path class="cls-4" d="M290.44,226.49h.48l5.33-5.82H299v.17l-5.81,6.41v.51l6.49,6.74v.17h-2.71L291,228.52h-.54v6.15h-2.2V214.92h2.2Z"/><path class="cls-4" d="M303.83,228.35a5,5,0,0,0,1.3,3.36,4.46,4.46,0,0,0,3.38,1.27,5.87,5.87,0,0,0,1.72-.23,3.9,3.9,0,0,0,1.26-.62,3.37,3.37,0,0,0,.85-.92,5.36,5.36,0,0,0,.52-1.11l2.09.56a6.24,6.24,0,0,1-2.19,3.18,6.87,6.87,0,0,1-4.3,1.23,7.11,7.11,0,0,1-2.76-.53,6.09,6.09,0,0,1-2.15-1.48,6.82,6.82,0,0,1-1.42-2.28,8.4,8.4,0,0,1-.5-2.94v-.67a7.07,7.07,0,0,1,.52-2.74,6.5,6.5,0,0,1,1.45-2.19,6.84,6.84,0,0,1,2.19-1.44,7,7,0,0,1,2.72-.52,6.58,6.58,0,0,1,3,.63,6.77,6.77,0,0,1,2.06,1.57,6.06,6.06,0,0,1,1.18,2,6.14,6.14,0,0,1,.39,2v1.81Zm4.68-6a5.11,5.11,0,0,0-1.73.29,4.33,4.33,0,0,0-1.41.84,4.15,4.15,0,0,0-1,1.25,4.59,4.59,0,0,0-.5,1.57h9a4,4,0,0,0-.43-1.64,4.17,4.17,0,0,0-1-1.24,4.72,4.72,0,0,0-1.38-.79A4.61,4.61,0,0,0,308.51,222.37Z"/><path class="cls-4" d="M318.31,232.64h5.08V217h-4.91v-2h7.11v17.72h5.08v2H318.31Z"/><path class="cls-4" d="M332.27,220.67h4.32v-3.55a2.17,2.17,0,0,1,.6-1.58,2.09,2.09,0,0,1,1.57-.62h5.53v2h-4.74c-.51,0-.76.28-.76.85v2.87h5.84v2h-5.84v12h-2.2v-12h-4.32Z"/><path class="cls-4" d="M349.86,228.35a5,5,0,0,0,1.3,3.36,4.46,4.46,0,0,0,3.38,1.27,5.87,5.87,0,0,0,1.72-.23,3.9,3.9,0,0,0,1.26-.62,3.37,3.37,0,0,0,.85-.92,5.36,5.36,0,0,0,.52-1.11l2.09.56a6.24,6.24,0,0,1-2.19,3.18,6.87,6.87,0,0,1-4.3,1.23,7.11,7.11,0,0,1-2.76-.53,6.09,6.09,0,0,1-2.15-1.48,6.82,6.82,0,0,1-1.42-2.28,8.4,8.4,0,0,1-.5-2.94v-.67a7.07,7.07,0,0,1,.52-2.74,6.5,6.5,0,0,1,1.45-2.19,6.84,6.84,0,0,1,2.19-1.44,7,7,0,0,1,2.72-.52,6.58,6.58,0,0,1,3,.63,6.77,6.77,0,0,1,2.06,1.57,6.06,6.06,0,0,1,1.18,2,6.14,6.14,0,0,1,.39,2v1.81Zm4.68-6a5.11,5.11,0,0,0-1.73.29,4.33,4.33,0,0,0-1.41.84,4.15,4.15,0,0,0-1,1.25,4.59,4.59,0,0,0-.5,1.57h9a4,4,0,0,0-.43-1.64,4.17,4.17,0,0,0-1-1.24,4.72,4.72,0,0,0-1.38-.79A4.61,4.61,0,0,0,354.54,222.37Z"/><path class="cls-4" d="M367.58,224.29a1.72,1.72,0,0,0,.86,1.55,7.43,7.43,0,0,0,3.14.7,7.13,7.13,0,0,1,3.74,1.18,3.31,3.31,0,0,1,1.29,2.83v.17a3.93,3.93,0,0,1-1.54,3.19,5,5,0,0,1-1.75.86,8.88,8.88,0,0,1-5.05-.14,5.84,5.84,0,0,1-1.95-1.16,4.73,4.73,0,0,1-1.17-1.63,5.69,5.69,0,0,1-.45-1.85l2.09-.51a3.7,3.7,0,0,0,1.24,2.58,4.25,4.25,0,0,0,2.93,1,4.6,4.6,0,0,0,2.5-.6,1.94,1.94,0,0,0,1-1.71,1.77,1.77,0,0,0-.93-1.69,7.73,7.73,0,0,0-3-.65,7,7,0,0,1-3.73-1.13,3.25,3.25,0,0,1-1.3-2.79v-.17a3.4,3.4,0,0,1,.43-1.74A3.69,3.69,0,0,1,367,221.3a5.27,5.27,0,0,1,1.62-.77,6.9,6.9,0,0,1,1.89-.25,7.21,7.21,0,0,1,2.43.38,5.48,5.48,0,0,1,1.75,1,4.16,4.16,0,0,1,1.08,1.4,5.27,5.27,0,0,1,.5,1.58l-2.09.5a3,3,0,0,0-1.09-2.11,3.8,3.8,0,0,0-2.47-.77,5.38,5.38,0,0,0-1.14.13,3.51,3.51,0,0,0-1,.38,2.09,2.09,0,0,0-.68.64A1.55,1.55,0,0,0,367.58,224.29Z"/><path class="cls-4" d="M380.05,220.67h4.4v-5.75h2.2v5.75h5.42v2h-5.42v9.08c0,.57.25.85.76.85h4v2h-4.77a2.09,2.09,0,0,1-1.56-.62,2.14,2.14,0,0,1-.61-1.58v-9.76h-4.4Z"/><path class="cls-4" d="M396.26,232.64h4.91v-9.93h-4.4v-2h6.6v12h4.57v2H396.26Zm4-16.14a2,2,0,0,1,2-2,2,2,0,0,1,2,2,2,2,0,0,1-2,2,2,2,0,0,1-2-2Z"/><path class="cls-4" d="M418.73,234.67h-4.35l-4.88-14h2.59l4.29,13h.34l4.29-13h2.6Z"/><path class="cls-4" d="M437,232.3h-.34a4.59,4.59,0,0,1-1.88,2.09,5.08,5.08,0,0,1-2.53.68,6.94,6.94,0,0,1-2.56-.47,5.83,5.83,0,0,1-2.08-1.38,6.39,6.39,0,0,1-1.39-2.25,8.48,8.48,0,0,1-.51-3.07v-.45a8.44,8.44,0,0,1,.51-3,6.44,6.44,0,0,1,1.39-2.24,6,6,0,0,1,2.08-1.4,6.6,6.6,0,0,1,2.51-.48,5.42,5.42,0,0,1,2.61.63,4.48,4.48,0,0,1,1.85,2H437v-2.21h2.2v11.12c0,.57.25.85.76.85h.7v2h-1.49a2.12,2.12,0,0,1-1.57-.62,2.17,2.17,0,0,1-.6-1.58Zm-4.52.68a4.36,4.36,0,0,0,1.82-.37,4.09,4.09,0,0,0,1.43-1,5.07,5.07,0,0,0,.93-1.63,6.33,6.33,0,0,0,.34-2.1v-.34a6.24,6.24,0,0,0-.34-2.07,4.82,4.82,0,0,0-1-1.62,4.21,4.21,0,0,0-1.44-1.06,4.14,4.14,0,0,0-1.79-.38,4.47,4.47,0,0,0-1.81.36,4.39,4.39,0,0,0-1.42,1,4.77,4.77,0,0,0-.95,1.61,6.3,6.3,0,0,0-.34,2.08v.45a5.26,5.26,0,0,0,1.26,3.74A4.27,4.27,0,0,0,432.48,233Z"/><path class="cls-4" d="M443.82,232.64h5.08V217H444v-2h7.11v17.72h5.08v2H443.82Z"/></g></g></svg>