<svg xmlns="http://www.w3.org/2000/svg" viewBox="0 0 199.21 48.75"><defs><style>.cls-1{fill:#328ecd;}.cls-2{fill:#282c37;}</style></defs><title>wh-info</title><g id="Ebene_2" data-name="Ebene 2"><g id="Ebene_1-2" data-name="Ebene 1"><path class="cls-1" d="M0,39.49c0-5.13,1.58-9.21,6.49-9.21S13,34.36,13,39.49s-1.58,9.26-6.46,9.26S0,44.62,0,39.49Zm9.63,0c0-3.52-.7-6.31-3.14-6.31S3.34,36,3.34,39.49,4,45.85,6.49,45.85,9.63,43.06,9.63,39.49Z"/><path class="cls-1" d="M15.9,30.59H27.16v2.29l-4.2,5a5.05,5.05,0,0,1,4.6,5c0,3-2.29,5.86-6.36,5.86a8.33,8.33,0,0,1-5.91-2.39L16.9,44A6.32,6.32,0,0,0,21,45.85,3,3,0,0,0,24.22,43c0-1.76-1.46-2.82-3.5-2.82-.4,0-.78.05-1,.05L19,38.66l3.87-4.73a7.32,7.32,0,0,1,.75-.73v-.05a9.56,9.56,0,0,1-1,.08H18.71v2.11H15.9Z"/><path class="cls-1" d="M30.66,45.23h3.19v3.22H30.66Z"/><path class="cls-1" d="M36.88,45.8h3.9V35.74c0-.6,0-1.21,0-1.21h-.05a4.08,4.08,0,0,1-.78,1L38.54,36.9l-1.91-2,4.48-4.3h2.84V45.8h3.85v2.64H36.88Z"/><path class="cls-1" d="M49.58,45.8h3.9V35.74c0-.6,0-1.21,0-1.21h-.05a4.08,4.08,0,0,1-.78,1L51.24,36.9l-1.91-2,4.48-4.3h2.84V45.8h3.85v2.64H49.58Z"/><path class="cls-1" d="M63.09,39.87h7.57v2.79H63.09Z"/><path class="cls-1" d="M74.08,39.49c0-5.13,1.58-9.21,6.49-9.21S87,34.36,87,39.49s-1.58,9.26-6.46,9.26S74.08,44.62,74.08,39.49Zm9.63,0c0-3.52-.7-6.31-3.14-6.31S77.42,36,77.42,39.49s.68,6.36,3.14,6.36S83.71,43.06,83.71,39.49Z"/><path class="cls-1" d="M90.91,44.12a5.85,5.85,0,0,0,4,1.74,3.25,3.25,0,0,0,3.52-3.09c0-1.81-1.33-3.09-3.62-3.09a5.24,5.24,0,0,0-2.89.8l-1.81-.68.83-9.21h9.71v4.75H97.8V33.23H93.72l-.35,3.5a5.73,5.73,0,0,1-.1.7h.05a5.08,5.08,0,0,1,2.16-.4c3.85,0,6.24,2.49,6.24,5.66,0,3.42-2.74,6.06-6.64,6.06a8,8,0,0,1-5.73-2.29Z"/><path class="cls-1" d="M104.59,45.23h3.19v3.22h-3.19Z"/><path class="cls-1" d="M110.8,45.8h3.9V35.74c0-.6,0-1.21,0-1.21h-.05a4.08,4.08,0,0,1-.78,1l-1.43,1.36-1.91-2,4.48-4.3h2.84V45.8h3.85v2.64H110.8Z"/><path class="cls-1" d="M123.5,45.8h3.9V35.74c0-.6,0-1.21,0-1.21h-.05a4.08,4.08,0,0,1-.78,1l-1.43,1.36-1.91-2,4.48-4.3h2.84V45.8h3.85v2.64H123.5Z"/><path class="cls-1" d="M136.71,45.23h3.19v3.22h-3.19Z"/><path class="cls-1" d="M142.77,46.86c0-6.44,8.55-7.29,8.55-11.14a2.46,2.46,0,0,0-2.72-2.54c-2.09,0-3.37,2.24-3.37,2.24L143,33.86a6.61,6.61,0,0,1,5.91-3.57c3.14,0,5.84,1.91,5.84,5.28,0,5.53-8.3,6.56-8.38,10.24h6.16V43.54h2.82v4.9H142.95A9.25,9.25,0,0,1,142.77,46.86Z"/><path class="cls-1" d="M158,39.49c0-5.13,1.58-9.21,6.49-9.21s6.46,4.07,6.46,9.21-1.58,9.26-6.46,9.26S158,44.62,158,39.49Zm9.63,0c0-3.52-.7-6.31-3.14-6.31s-3.14,2.79-3.14,6.31.68,6.36,3.14,6.36S167.6,43.06,167.6,39.49Z"/><path class="cls-1" d="M173.54,45.8h3.9V35.74c0-.6,0-1.21,0-1.21h-.05a4.08,4.08,0,0,1-.78,1L175.2,36.9l-1.91-2,4.48-4.3h2.84V45.8h3.85v2.64H173.54Z"/><path class="cls-1" d="M194.34,34.18a4.06,4.06,0,0,1,.6-1v-.05a8.67,8.67,0,0,1-1.16.08H188.7v2.11h-2.79V30.59h12.5v2.26l-7.82,15.59h-3.37Z"/><path class="cls-2" d="M117.32,7.27h6.58V8.6H121.2l4.9,12.82a6.37,6.37,0,0,1,.31,1.1h.07a6.42,6.42,0,0,1,.31-1.1l4.9-12.82H129V7.27h6.58V8.6h-2.33l-6.1,15.8h-1.37l-6.1-15.8h-2.33Z"/><path class="cls-2" d="M138.06,22.24h2.09V24.4h-2.09Z"/><path class="cls-2" d="M145.22,12.41c0-6.92,2-12.41,8.09-12.41s8.09,5.48,8.09,12.41-2,12.41-8.09,12.41S145.22,19.36,145.22,12.41Zm14.63,0c0-6.17-1.44-11-6.55-11s-6.55,4.83-6.55,11,1.44,11,6.55,11S159.86,18.61,159.86,12.41Z"/><path class="cls-2" d="M164.73,23.07h2.84l4.66-7.61L168,8.6h-3.05V7.27h3.87l3.8,6.24a9.62,9.62,0,0,1,.51.89h.07a8.45,8.45,0,0,1,.51-.93l3.84-6.2h3.84V8.6h-3L174,15.49l4.73,7.57h2.81V24.4h-3.67l-4.25-7a9.56,9.56,0,0,1-.52-.89h-.07a8.66,8.66,0,0,1-.51.93l-4.22,6.92h-3.63Z"/><path class="cls-2" d="M185.26.41H199v1l-7.75,8.95c2.88,0,7.92,1.44,7.92,7.09a7.47,7.47,0,0,1-7.61,7.33,10.73,10.73,0,0,1-7.47-3.32l1.1-1.1a9.08,9.08,0,0,0,6.44,3,6,6,0,0,0,6-5.93c0-3.74-3.15-5.72-6.41-5.72-.86,0-1.61.07-1.61.07l-.45-1.1,7.06-8.26a4.54,4.54,0,0,1,.75-.69V1.71s-.65.07-1,.07H186.7V5.24h-1.44Z"/></g></g></svg>