<svg xmlns="http://www.w3.org/2000/svg" width="198.078" height="51.257" viewBox="0 0 52.408 13.562"><g style="display:inline" transform="rotate(2.818 95.879 -323.025)"><circle cx="51.902" cy="6.553" r=".255" class="st4" style="fill:#000;fill-opacity:1;stroke-width:.0636774"/><circle cx="54.379" cy="5.967" r=".28" class="st4" style="fill:#000;fill-opacity:1;stroke-width:.0636774"/><circle cx="56.971" cy="5.286" r=".261" class="st4" style="fill:#000;fill-opacity:1;stroke-width:.0636774"/><circle cx="59.327" cy="4.745" r=".236" class="st4" style="fill:#000;fill-opacity:1;stroke-width:.0636774"/><circle cx="61.651" cy="4.299" r=".204" class="st4" style="fill:#000;fill-opacity:1;stroke-width:.0636774"/><circle cx="63.931" cy="3.898" r=".185" class="st4" style="fill:#000;fill-opacity:1;stroke-width:.0636774"/><circle cx="66.178" cy="3.586" r=".166" class="st4" style="fill:#000;fill-opacity:1;stroke-width:.0636774"/><circle cx="68.293" cy="3.357" r=".127" class="st4" style="fill:#000;fill-opacity:1;stroke-width:.0636774"/><circle cx="18.885" cy="16.805" r=".159" class="st4" style="fill:#000;fill-opacity:1;stroke-width:.0636774"/><circle cx="21.159" cy="15.786" r=".185" class="st4" style="fill:#000;fill-opacity:1;stroke-width:.0636774"/><circle cx="23.508" cy="14.831" r=".204" class="st4" style="fill:#000;fill-opacity:1;stroke-width:.0636774"/><circle cx="25.711" cy="14.048" r=".223" class="st4" style="fill:#000;fill-opacity:1;stroke-width:.0636774"/><circle cx="28.048" cy="13.15" r=".242" class="st4" style="fill:#000;fill-opacity:1;stroke-width:.0636774"/><circle cx="30.576" cy="12.322" r=".267" class="st4" style="fill:#000;fill-opacity:1;stroke-width:.0636774"/><circle cx="33.085" cy="11.507" r=".274" class="st4" style="fill:#000;fill-opacity:1;stroke-width:.0636774"/><circle cx="35.677" cy="10.762" r=".28" class="st4" style="fill:#000;fill-opacity:1;stroke-width:.0636774"/><circle cx="16.778" cy="17.741" r=".121" class="st4" style="fill:#000;fill-opacity:1;stroke-width:.0636774"/><g transform="matrix(.06368 0 0 .06368 15.657 -16.205)"><path d="M543.2 365.1c-4.1.7-13.3.9-15.7.3-.5-.1-2-.5-2.6-.8-4.1-2.1-9.8-7-23.6-12.7-14.2-5.9-39.3-14.3-80.5-.7-11.3 3.7-21.9 8.1-31.4 12.5l-1.1-.8c-3.5-2.7-19.5-13.9-39.9-14.4-26-.7-58.6 9-68.6 12.8-.2.1-.5.2-.7.3 0 0-.1 0-.1.1-.3.1-.5.2-.7.3h-.1l-.6.3h-.1c-.2.1-.3.2-.4.2h-.1c-.1.1-.2.1-.2.2-1.6 1.6-.3 7.1.4 10 .7 2.9 2.3 7.8 4.4 9.1.9.6 30.7-9.4 47.4-4.4.8.2 1.4.5 2.2.7 9.6 3.2 13.6 7.3 15.3 9.7-1 1.3-2.7 5.9 1.2 23.1 2.1 9.2 3.8 15.2 5.3 19.1-2.2 1.1-4.6 2.3-7.2 3.5-14.4 6.6-38.2 13.1-48.2 15.7-2.2.6-4.7 1.2-4.7 1.2-1.3.6-1.1 5.2 0 9.6 1.1 4.4 2.4 5.9 3.2 6.2.2.1 1.9 0 4.7-.2 10-.7 34.2-3.4 55.9-9.5 22.1-6.3 30.4-10.2 35.7-13.1 2.1-1.2 3.9-2.4 5.5-3.7 2 0 4 0 6.1-.1 42.5-.7 77-11.3 95.8-28.1 17.9-15.9 24.1-30.7 27.9-36.5.6-.9 1.1-1.6 1.6-1.9 1.9-1.3 10.4-4.8 14.4-6.3.1-.1-.3-1.7-.5-1.7z" class="st5" style="fill:#ffed00"/><path d="M434.5 347.4s4.1 14.9 16 19.1c7.4 2.6 18.8 2.5 29.4-4.7 9.1-6.2 11.2-13.6 11.2-13.6s-15.2-5.1-29.5-4.9c-12.1.2-27.1 4.1-27.1 4.1z" class="st6" style="fill:#93b2c2"/><path d="M462.2 340.3c16.3-.4 25.6 6.9 25.6 6.9s-2.7 7.3-12.7 13.3c-7.6 4.6-18.8 5.6-26.8.8-6.8-4.1-10.7-14.7-10.7-14.7s7.6-5.9 24.6-6.3z"/><path d="M442.8 346.9s9.4-4.5 20.9-4.2c11.6.3 20.6 5.6 20.6 5.6s-3 5.5-9.9 5.5c-6.8 0-9.9-5.4-19.4-6.9-7.5-1.2-12.2 0-12.2 0z" class="st7" style="fill:#354b54"/><ellipse cx="255.256" cy="482.168" class="st6" rx="13.001" ry="10.3" style="fill:#93b2c2;stroke-width:1.00005" transform="rotate(-15.729)"/><ellipse cx="255.155" cy="482.157" rx="9.8" ry="7.8" style="stroke-width:1.00005" transform="rotate(-15.729)"/><path d="M369.4 393.3s2.6-4.6 7.7-4.6c6.5 0 7 4.4 7 4.4s-2.6-1.9-7.5-1.8c-4 0-7.2 2-7.2 2z" class="st7" style="fill:#354b54"/><ellipse cx="284.661" cy="482.154" class="st6" rx="13.001" ry="10.3" style="fill:#93b2c2;stroke-width:1.00005" transform="rotate(-15.729)"/><ellipse cx="284.659" cy="482.243" rx="9.8" ry="7.8" style="stroke-width:1.00005" transform="rotate(-15.729)"/><path d="M397.8 385.3s2.6-4.6 7.7-4.6c6.5 0 7 4.4 7 4.4s-2.6-1.9-7.5-1.8c-4.1.1-7.2 2-7.2 2z" class="st7" style="fill:#354b54"/><ellipse cx="314.166" cy="482.24" class="st6" rx="13.001" ry="10.3" style="fill:#93b2c2;stroke-width:1.00005" transform="rotate(-15.729)"/><ellipse cx="314.164" cy="482.229" rx="9.8" ry="7.8" style="stroke-width:1.00005" transform="rotate(-15.729)"/><path d="M426.1 377.3s2.6-4.6 7.7-4.6c6.5 0 7 4.4 7 4.4s-2.6-1.9-7.5-1.8c-4 .1-7.2 2-7.2 2z" class="st7" style="fill:#354b54"/><path d="M421 358.6s-8.7-38.4-9.5-42c-.8-3.6-.8-8.3 4.2-11.2 3.7-2.1 11.7-3.8 11.7-3.8l2.9 13s-6 .8-7.6 3.4c-1 1.6-.2 4.7-.2 4.7l7.4 32.2z" class="st5" style="fill:#ffed00"/><path d="M358 379.9c-21.8-19.5-54.2-13.5-80.8-6.9.7 2.9 2.3 7.5 4.3 8.9.9.6 30.7-9.4 47.4-4.4.8.2 1.4.5 2.2.7 9.5 3.2 13.6 7.2 15.3 9.6l.1.1c.9-1.1 7.6-6.1 11.5-8zM519.3 378.1c-35.9 36.8-100.4 44.5-130.1 48.3-21.2 22.2-74.6 30.1-96.5 33.3 0 .1 0 .2.1.3 1.1 4.4 2.4 5.9 3.2 6.2.2.1 1.9 0 4.7-.2 10-.7 34.2-3.4 55.9-9.5 22.1-6.3 30.4-10.2 35.7-13.1 2.1-1.2 3.9-2.4 5.5-3.7 2 0 4 0 6.1-.1 42.5-.7 77-11.3 95.8-28.1 17.9-15.9 24.1-30.7 27.9-36.5.6-.9 1.1-1.6 1.6-1.9.9-.6 3.3-1.7 5.9-2.9-6.4 1.7-10.8 2.9-15.8 7.9z" class="st8" style="fill:#fbba00"/></g></g></svg>