<svg xmlns="http://www.w3.org/2000/svg" width="262.229" height="41.689" viewBox="0 0 69.382 11.03"><defs><radialGradient id="a" cx="657.793" cy="1525.646" r="1353.57" gradientTransform="matrix(.06368 0 0 .06368 52.423 .135)" gradientUnits="userSpaceOnUse"><stop offset="0" style="stop-color:#b7dff8"/><stop offset=".452" style="stop-color:#47a1da"/><stop offset=".516" style="stop-color:#3794cc"/><stop offset=".628" style="stop-color:#1e81b9"/><stop offset=".732" style="stop-color:#0976ae"/><stop offset=".817" style="stop-color:#0073aa"/><stop offset=".869" style="stop-color:#0476ae"/><stop offset=".924" style="stop-color:#147fb8"/><stop offset=".98" style="stop-color:#278ecb"/><stop offset="1" style="stop-color:#2f96d3"/></radialGradient><radialGradient id="b" cx="657.793" cy="1600.188" r="1632.35" gradientTransform="matrix(.06372 0 0 .04972 52.406 17.749)" gradientUnits="userSpaceOnUse"><stop offset="0" style="stop-color:#fff"/><stop offset=".452" style="stop-color:#d9d9d9"/><stop offset=".477" style="stop-color:#cecece"/><stop offset=".57" style="stop-color:#acacac"/><stop offset=".659" style="stop-color:#939393"/><stop offset=".74" style="stop-color:#858585"/><stop offset=".806" style="stop-color:gray"/><stop offset=".853" style="stop-color:#848484"/><stop offset=".903" style="stop-color:#919191"/><stop offset=".954" style="stop-color:#a6a6a6"/><stop offset="1" style="stop-color:#bfbfbf"/></radialGradient></defs><path d="M79.27 58.667c-12.92 0-24.885 4.084-34.677 11.03h69.347c-9.79-6.946-21.754-11.03-34.67-11.03z" style="display:inline;fill:url(#a);stroke-width:.0636774" transform="translate(-44.593 -58.667)"/><path d="M65.38 60.782c-.203-.026-.426.12-.637.12-.178.103-.293.281-.427.44-.012.013-.019.026-.032.039-.006 0-.012-.006-.012-.006v.019l.012-.013a2.795 2.795 0 0 0-.037.12h.012c.006.013.013.02.013.039-.013-.013-.02-.013-.032-.025 0-.006 0-.013.006-.013-.146.031-.236-.045-.325-.121-.032-.032-.064-.02-.096.032a.134.134 0 0 0-.025.063c0 .064 0 .121.013.172.006.051-.006.09-.045.108-.038.02-.083.039-.115.032a1.084 1.084 0 0 1-.401-.223c-.083-.076-.192-.05-.319.038-.108.077-.223.166-.344.172-.063 0-.114.064-.133.128-.045.147-.077.3-.122.446a.323.323 0 0 1-.153.217c-.07.05-.127.133-.197.197-.032.026-.09.038-.108.032-.109-.045-.205-.12-.351-.102-.038.006-.134.077-.146.121-.02.064-.045.128-.052.191-.012.223-.031.46-.031.676.013.28-.051.592.019.853.013.051-.051.122-.121.122-.09.006-.198.038-.198-.109 0-.108-.057-.172-.147-.204-.031-.012-.006-.031.039-.07.12-.102.153-.203.083-.254-.083-.064-.153-.122-.166-.256-.013-.197-.057-.382-.09-.567-.025-.114-.088-.197-.184-.235-.09-.038-.204 0-.261.102-.02.038-.045.082-.064.12-.147.255-.185.51-.236.765a.83.83 0 0 1-.127.313c-.083.114-.185.063-.274.063-.013 0-.039 0-.058.013-.038.026-.07.057-.114.077-.051.038-.083-.013-.09-.077-.012-.121.153-.204.147-.3-.025-.204.064-.42.102-.63.013-.057-.006-.121-.013-.172 0-.013-.013-.038-.025-.038-.039.012-.083.025-.108.05-.09.09-.115.204-.147.313-.032.102-.032.216-.083.312-.05.096-.153.178-.235.268-.013.012-.026.031-.039.044 0 .006.006.013.006.02l-.159.12c-.057.05-.115.108-.172.16 0 .012-.013.018-.019.031-.013.02-.013.038-.02.064-.018-.026 0-.045.02-.064.006-.013.013-.025.013-.038.057-.057.115-.108.172-.16.05-.037.102-.082.153-.127 0 0 .006 0 .006-.006a.325.325 0 0 1 .013-.217c.076-.146.172-.293.242-.433.063-.146.127-.3.127-.446 0-.064-.076-.14-.14-.121-.095.038-.197.063-.3.114-.197.121-.388.153-.592.21-.274.084-.542.122-.816.186a.322.322 0 0 0-.223.235c-.019.064-.031.122-.044.185a.144.144 0 0 1-.045.045c-.012.006-.038 0-.038-.013-.032-.057-.045-.147-.09-.172-.076-.045-.19.025-.286.076a.585.585 0 0 0-.249.249c-.031.064-.063.127-.089.191-.05.128-.077.261-.153.382-.076.115-.197.204-.3.306-.037.039-.063.077-.095.115-.07.077-.172.115-.21.058-.09-.115-.204-.122-.389-.058-.21.077-.395.16-.573.357-.172.197-.382.3-.586.35-.045.045-.09.09-.14.128-.243.172-.421.401-.6.63-.127.166-.127.306 0 .332.134.032.262.064.395.09v-.014c.013-.012.013-.012.032-.025-.013.013-.013.02-.025.038h-.006c0 .039-.006.077-.006.109.012.064-.013.127-.084.171a.687.687 0 0 0-.241.262.769.769 0 0 1-.172.242 8.452 8.452 0 0 1-.478.478c-.077.07-.172.115-.236.083-.204-.102-.472-.026-.727.006a.644.644 0 0 0-.306.134 1.29 1.29 0 0 1-.426.217c-.287.083-.574.19-.86.274-.23.063-.44.255-.619.484a.616.616 0 0 0-.142.274h18.176a3.19 3.19 0 0 1 .681-1.204c.121-.147.236-.3.357-.453.045-.057.038-.121.038-.191-.013-.166-.013-.185.134-.217.197-.038.312-.172.42-.33.039-.058.013-.205-.038-.23a.904.904 0 0 0-.172-.058c-.083-.012-.166-.012-.248-.019-.013 0-.032-.032-.026-.038.02-.038.045-.09.077-.102.108-.057.204-.026.3.013.159.063.318.032.484-.07.057-.038.12-.064.178-.096.064-.044.077-.114.077-.178 0-.045-.013-.09-.013-.134 0-.076.051-.147.121-.14.153.012.287-.013.408-.154.064-.07.133-.127.203-.184.332-.255.351-.408.128-.714-.025-.031-.044-.063-.07-.095-.216-.3-.535-.408-.885-.396-.198.006-.408.096-.612.166-.032.013-.064.064-.084.102-.038.057-.05.128-.076.191-.045.09-.115.115-.217.102a.329.329 0 0 1-.203-.102c-.045-.05-.109-.038-.147.032-.242.383-.586.58-.962.733-.197.076-.406.134-.577.279.012-.061.025-.121.061-.158.153-.172.306-.35.523-.433.235-.096.408-.287.516-.542.032-.063.064-.12.095-.185.249-.522.039-.618-.33-.56-.02.006-.04.006-.065.019-.038.019-.083.044-.102.083-.05.101-.09.216-.146.318-.064.134-.185.223-.306.223-.02 0-.045.013-.064.006-.198-.09-.433-.013-.65.02-.013 0-.025-.026-.025-.039 0-.02.012-.057.025-.064.121-.05.242-.095.357-.153a.474.474 0 0 0 .223-.248c.038-.07.006-.198-.057-.21a8.779 8.779 0 0 0-.402-.07c-.586-.09-.803-.058-1.427.242-.083.038-.16.089-.236.12a4.34 4.34 0 0 1-.363.147c-.019.013-.045-.038-.057-.063-.006-.013.012-.045.025-.058.07-.05.147-.108.223-.147.223-.108.44-.184.657-.299.395-.216.764-.274 1.12-.172.25.07.504.05.772.013.242-.039.484-.115.726-.147.28-.038.51-.229.74-.407.12-.09.153-.332.064-.409a6.487 6.487 0 0 0-.383-.33c-.216-.16-.459-.236-.765-.064-.031.019-.076.012-.12.012-.013 0-.032-.012-.039-.032-.006-.012.013-.038.026-.044.057-.032.12-.051.172-.09.165-.114.223-.286.153-.458-.026-.064-.121-.128-.179-.102-.382.172-.746.178-1.083.038-.09-.038-.223-.026-.338-.013a2.54 2.54 0 0 0-.414.121c-.198.064-.389.121-.586.09-.128-.02-.268.032-.408.127-.05.032-.121.038-.172.045-.013.006-.038-.013-.038-.026-.006-.013.006-.038.013-.045.07-.044.146-.114.222-.127.16-.038.326-.013.472-.076.3-.128.593-.147.886-.198.236-.038.465-.057.688.013.204.063.42-.038.624-.179.026-.012.051-.089.039-.114a.63.63 0 0 0-.485-.408c-.401-.076-.765-.223-1.14-.332-.173-.044-.364-.038-.542-.063zM54.07 65.784c.006-.006.013-.012.02-.012h-.052c.013.006.02.012.032.012zm10.17-4.429c-.012.031.001.038.026.045.006-.013.006-.026.006-.032-.006-.006-.019-.006-.031-.013zm-2 .669c-.064-.013-.121.026-.198.128-.044.07-.044.172.02.197a.317.317 0 0 0 .12.013c.032-.032.09-.064.115-.115.057-.115.026-.21-.057-.223zm-.688.191c-.006-.006-.039.006-.051.013-.045.032-.064.07-.039.102.02.025.052.05.084.051.038-.006.063-.045.063-.09-.019-.025-.032-.057-.057-.076zm1.1.341c-.001-.01.002-.013.021.01l.038.038c-.012-.013-.032-.02-.057-.02.003-.003-.002-.018-.003-.028zm30.57.06c-.084-.019-.166.07-.122.14.026.051.077.096.102.122.038.006.064 0 .083.006.07.012.12-.109.09-.172a.263.263 0 0 0-.154-.096zm-30.485.02c.02.019.026.031.045.044-.006.013-.006.02-.006.026-.006 0-.013-.006-.013-.013a.15.15 0 0 0-.026-.057zm-5.117.037a59.809 59.809 0 0 0-10.629 5.372l.02.038c.012.013.019.02.025.032l.121.038c.013 0 .039 0 .058-.006 0 .005-.006.012-.012.023l-.008-.004c-.013-.006-.026-.013-.038-.013a.156.156 0 0 1-.121-.038.145.145 0 0 0-.039-.013c-.012-.012-.012-.025-.025-.038-.643.408-1.274.835-1.905 1.274.006.045.025.09.063.09.039.006.077-.006.115-.006.172-.006.198.051.128.236l-.014.038h3.167c.004-.018.009-.036.008-.052v-.096h-.02c-.012 0-.012-.012-.019-.012h-.064c.051-.05.058-.026.064 0h.039v.012c.172.013.337-.063.484-.254.083-.102.165-.185.255-.268.089-.083.171-.172.26-.268.122-.127.147-.248.109-.35a.302.302 0 0 1-.007-.247c.074.02.143.05.218.062.089.019.197-.057.254-.178.051-.122.058-.217-.012-.262-.05-.032-.121-.038-.185-.057-.013-.006-.026-.02-.038-.026.038-.038.07-.076.108-.095.058-.038.134-.083.172-.077.16.013.338-.019.51-.057.115-.02.198-.09.261-.21.02-.039.051-.083.07-.121a.565.565 0 0 1 .064.038c.026.019.045.044.07.064.204.102.389.044.65-.223.274-.287.567-.56.88-.752.159-.102.318-.179.458-.338a.87.87 0 0 1 .287-.191c.325-.147.643-.395.968-.472.306-.203.625-.407.931-.618.045-.031.083-.114.115-.172.038-.07.012-.102-.103-.127a.844.844 0 0 1-.178-.064c0 .006-.005.013-.012.013-.013.012-.013.012-.026.032.013-.02.02-.026.032-.045h.006c.044-.07.09-.14.185-.16.287-.05.58-.127.867-.19.312-.192.624-.377.936-.561.039-.026.083-.045.115-.077.083-.09.178-.172.236-.268.063-.12.114-.242.146-.356zm5.155.033c.013.013.032.031.045.05 0 .007-.02.039-.02.039-.044-.013-.037-.051-.025-.09zm31.88.057a.08.08 0 0 0-.07.121c.032.038.083.064.115.09.082-.006.114-.07.089-.122-.032-.064-.083-.09-.134-.09zm-33.67.274c-.013-.006-.039.013-.051.02-.045.037-.064.107-.026.158.019.032.057.032.09.039.012-.013.037-.032.044-.045.044-.095.019-.172-.058-.172zm32.238.179c-.124-.025-.214.045-.2.198.013.217.039.434-.05.618-.032.058.019.121.083.16.019.012.038.025.05.038.013.038-.012.063-.063.063-.102.006-.236-.019-.236.102.013.191.185.172.3.23v-.001c.031.019.063.05.089.076 0 0 .012-.006.019-.006 0 .013.012.02.012.032-.013-.006-.013-.013-.019-.013-.013-.006-.012-.006-.012-.012-.07.019-.134.038-.198.063-.032.013-.064.064-.064.096a.247.247 0 0 0 .07.109c.173.114.37.063.542.203.038.032.121.006.172-.006.038-.013.09-.025.09-.057.019-.204.171-.3.299-.408.07-.07.064-.147-.05-.287-.014-.012-.04-.025-.052-.038 0-.006 0-.013.013-.013h-.007c-.012-.075-.014-.155-.082-.217-.019-.02-.07-.026-.102-.026-.051 0-.064.038-.032.09.032.05.07.101.102.152.034 0 .065.001.102.006v.008c-.032.026-.07.013-.115-.006v-.003c-.08-.037-.161-.068-.23-.118-.031-.019-.082-.083-.082-.108.032-.255-.204-.51-.134-.771a.266.266 0 0 0-.083-.096.389.389 0 0 0-.132-.058zm.661 1.15.006.004-.006-.004zm0 0v-.008h-.013c0 .004.007.006.013.008zm8.462-1.107c.013.039.032.07.05.109.128.217.211.414.23.618a.179.179 0 0 0 .135.134c.063.02.12.013.172.05a.898.898 0 0 0 .407.199c.02.006.038.019.051.038.038.032.032.05-.032.05-.07 0-.146.007-.216.014-.07.006-.121.031-.153.101-.013.045.031.121.146.223.147.128.287.255.44.383a.217.217 0 0 0 .115.045c.216-.02.3-.268.166-.53-.032-.063-.09-.12-.084-.178 0-.013.013-.032.032-.038.013-.006.038-.006.051.006.115.134.236.254.255.42.02.083.032.166.05.249.033.21.033.223.205.255.153.019.274.076.401.229a.827.827 0 0 0 .574.35c.331.052.656.115 1.006.268.064.02.122.039.166.02a.525.525 0 0 0 .287-.237c.02-.044-.013-.184-.07-.242-.032-.038-.064-.07-.102-.108a2.716 2.716 0 0 0-.223-.178.31.31 0 0 1-.153-.224c-.013-.127-.115-.222-.198-.33-.624-.307-1.248-.613-1.885-.9-.039.064-.084.122-.122.186-.032.031-.064.019-.09-.026-.012-.012-.018-.038-.012-.051a.23.23 0 0 1 .134-.153c-.573-.261-1.16-.51-1.733-.752zm-6.989.012c-.035-.002-.068.002-.078.015-.063.089-.114.185-.165.287-.02.044-.013.12-.013.159.045.337.172.516.44.662.032.013.083.006.102-.019.063-.127.063-.305.184-.4.02-.014.02-.09 0-.116-.12-.184-.216-.395-.382-.56-.016-.017-.052-.026-.088-.028zm-1.664.085c-.013.012-.032.019-.038.038-.013.044.006.083.05.102.013.006.032-.013.039-.032.012-.045-.013-.083-.051-.108zm.96.658a.215.215 0 0 0-.1.042c-.082.058-.063.18.032.275.09.083.185.12.274.095l.013-.006h-.01a.53.53 0 0 0 .08-.14c.019-.102-.064-.223-.166-.255a.291.291 0 0 0-.123-.01zm.206.412c-.057.038-.134.07-.185.109-.032.012-.064.05-.064.089.013.197.032.395.134.58.038.07.134.165.198.185.197.044.357.012.484-.115.032-.032.038-.121 0-.172-.013-.02-.02-.038-.032-.064-.032-.038-.063-.07-.089-.108-.07-.109-.07-.109-.013-.224.083-.12.07-.197 0-.274-.089-.108-.172-.102-.267-.057-.051.02-.102.032-.166.051zm-3.263-.134c-.038-.006-.063.026-.063.07.019.051.051.077.095.064.02 0 .038-.025.038-.038 0-.05-.019-.09-.07-.095zm-22.296.083c-.019.032-.05.064-.057.102 0 .032.025.064.038.09.019-.032.045-.07.051-.102.006-.032-.02-.064-.032-.09zm24.202.058c.019.019.019.032.038.045.013.006.012.012.031.012-.019-.006-.031-.006-.05-.012-.013-.02-.013-.026-.02-.045zm-24.65.076c-.04.002-.096.045-.106.102-.013.086.006.153.081.18l-.01.011c.012.019.018.02.018.025v-.031c.026-.057.057-.115.077-.172a.146.146 0 0 0-.026-.102c-.008-.01-.02-.014-.033-.013zm-14.08.025c.013 0 .025.006.038.006-.006.013-.013.032-.02.032-.012.006-.024 0-.037-.006 0-.012.013-.032.02-.032zm26.247.001c.006.02.012.026.019.045.013 0 .019 0 .031-.006a.28.28 0 0 0 .064.081c.045.026.076 0 .076-.05 0-.013-.025-.032-.044-.038-.032 0-.07.006-.096.006-.006-.006-.006-.006-.012-.006a.2.2 0 0 0-.038-.031zm10.773.227a.088.088 0 0 0-.056.002c-.19.038-.229.077-.216.3a.35.35 0 0 1-.174.353c0 .001.002.001.002.003a.41.41 0 0 1-.255.084c-.184-.006-.203.127-.19.28.165.038.165.044.165.19 0 .065-.013.129-.013.199.02.172.121.273.3.324.063.02.12.039.185.058.095.019.146-.026.197-.096.05-.09.09-.178.09-.3-.013-.088 0-.184.063-.235.147-.114.134-.338.274-.459.07-.063.05-.216-.02-.3-.101-.127-.196-.254-.305-.375a.087.087 0 0 0-.046-.027zm-.446.655v-.001l-.004.004.004-.003zm0-.001.008-.008c0 .006-.013 0-.013 0 .004.004.004.006.004.008zm-22.51-.588c0 .025.006.057.006.083-.006.063.018.076.056.032.013-.013.006-.045-.006-.058-.012-.019-.038-.038-.057-.057zm12.985.146c-.032.02-.07.045-.083.083-.019.058-.019.121-.025.179-.013.063-.006.14-.038.172-.051.05-.096-.026-.147-.058-.013-.006-.038-.025-.058-.025-.216.013-.363-.102-.49-.249-.025-.031-.07-.05-.108-.076-.07-.045-.166.006-.173.102-.006.044.013.083 0 .127-.006.032-.025.083-.057.096-.025.006-.07-.026-.108-.032-.038-.006-.09-.013-.102.006-.064.083-.121.172-.102.287.019.076.05.153.064.235.077.306.172.396.478.402.095.006.19-.013.28-.025-.032.038-.063.076-.108.108-.07.07-.07.152.006.203.115.064.23.122.332.198a.414.414 0 0 0 .363.064c.159-.038.28-.006.408.12.146.154.274.141.446-.005.064-.051.114-.128.203-.122.23.006.351-.089.39-.318a.72.72 0 0 1 .165-.325c.153-.191.172-.408.147-.637-.115-.045-.224-.121-.338-.14a2.274 2.274 0 0 1-.676-.192c-.108-.05-.197-.006-.286.064-.096.076-.109.064-.173-.064-.012-.038-.031-.082-.044-.114-.032-.058-.115-.09-.166-.064zm8.847.01a.246.246 0 0 0-.11.035c-.185.108-.325.28-.433.471-.064.102.019.293.14.332.165.05.33.089.49.127.121.026.102-.089.121-.171-.019-.026-.05-.058-.064-.09-.076-.121-.082-.242-.019-.293.064-.064.153-.109.268-.038.09.057.185.07.274.038-.006-.038-.013-.083-.038-.108a1.02 1.02 0 0 0-.51-.294.338.338 0 0 0-.12-.009zm3.49.105c.006.02.019.032.025.05 0-.018.013-.024.013-.043-.012 0-.019 0-.038-.006zm.156.23c-.022 0-.042.006-.048.018-.102.153-.255.217-.433.255-.02.006-.038.064-.038.096.019.165.114.3.216.433.064.064.172.102.236.077.07-.038.134-.102.204-.109.115-.012.166-.076.185-.184.02-.077.064-.153.07-.191.038-.14.012-.198-.09-.262-.082-.044-.152-.089-.235-.12a.241.241 0 0 0-.067-.012zm12.531.05c.02.051.064.109.102.172.121.134.217.28.306.427.038.058.051.121.051.102.032.147.038.21.07.268.115.236.223.471.357.707.09.172.204.338.356.465a.222.222 0 0 0 .115.039c.032-.006.064-.026.07-.058.122-.293.134-.293.44-.516a.8.8 0 0 0 .204-.236.544.544 0 0 0 .064-.21 48.979 48.979 0 0 0-2.135-1.16zm-13.732.02c-.032-.007-.07.012-.102.031-.031.02-.05.057-.063.09-.013.038.019.089.07.089.152.019.3.095.452.159-.012-.057-.012-.109-.019-.166-.025-.115-.038-.127-.166-.16-.05-.012-.114-.037-.172-.043zm-9.584.044s-.006.006-.006.026c.026-.013.039-.032.006-.026zm-.006.026c-.012.006-.012.006-.019.012v.006c.006.006.013.006.02.006zm9.941.305v.032h.02v-.019c-.007-.012-.007-.013-.02-.013zm.02.026c.012.038.012.083.018.12.039.007.07.014.096 0 .032-.005.063-.03.089-.044-.032-.019-.064-.05-.102-.064-.032-.012-.063-.012-.102-.012zm-2.607-.012c.006.011.012.012.012.018 0-.006.006-.013.006-.013-.006-.006-.012-.006-.018-.006zm-11.13.006c-.062 0-.117.043-.136.115l-.096.414h.013c0 .006-.006.025-.006.031-.005-.006-.006-.012-.012-.018v-.013c-.039 0-.077.006-.102-.006-.147-.095-.28-.057-.427 0 0 .006 0 .02.006.025-.012.006-.013.006-.019.006v-.012c.006-.006.013-.006.013-.006 0-.006 0-.026-.006-.039-.044-.165-.134-.23-.267-.185a2.007 2.007 0 0 1-.497.115.252.252 0 0 0-.23.191c-.025.058-.044.121-.07.172-.108.249-.064.453.134.625.064.026.121.063.115.133h-.002c-.026.191.09.318.185.458.09.121.204.217.248.37.166.153.28.363.51.459v-.006c.01.005.013.004.02.005-.003.002-.008.004-.008.008-.006-.006-.013-.006-.013-.006 0 .12-.006.236 0 .357a.182.182 0 0 0 .147.171c.09.026.204.02.249.128.012 0 .012 0 .019-.006.006.006.012.006.012.02.051 0 .108 0 .16.005.063.006.082.026.037.064-.012.013-.038.006-.063.006a.198.198 0 0 1-.14-.07c-.013-.006-.02-.006-.032-.006l-.006-.006c-.077.025-.166.032-.21.108a.28.28 0 0 0 0 .306h1.498a.896.896 0 0 1 .107-.223.406.406 0 0 0 .096-.23c-.02-.35.178-.662.14-1.012-.006-.045.006-.083.019-.128.044-.14.121-.267.28-.318.051-.02.102-.006.115.044.006.083-.038.191-.006.249.166.21.198.478.325.707a.402.402 0 0 1 .051.306c-.019.102-.05.21-.076.312-.013.077.09.185.166.16.108-.032.203-.077.305-.121.109-.045.115-.045.166.114.013.02.013.045.013.064a.198.198 0 0 0 .044.076h.136c.004-.003.007-.003.011-.007a1.17 1.17 0 0 0 .433-.758c.013-.025-.031-.076-.063-.102a.219.219 0 0 0-.122-.045c-.223 0-.312-.101-.324-.318-.013-.197-.084-.217-.332-.172-.121.026-.121.025-.102-.083.013-.064.032-.127.038-.19.026-.128-.019-.211-.14-.25-.12-.044-.242-.057-.319-.19-.083-.14-.267-.224-.299-.415-.006-.026-.057-.064-.095-.07-.083-.026-.173-.026-.256-.05-.165-.065-.312-.154-.356-.345-.045-.166-.121-.312-.287-.408-.057-.025-.095-.089-.121-.14a.464.464 0 0 0-.287-.236c-.083-.026-.147-.083-.223-.121a.136.136 0 0 0-.062-.013zm13.341.114c-.07-.006-.12.077-.102.185 0 .038.032.09.064.115.032.019.083.038.115.019.133-.064.216-.179.305-.28l-.382-.039zm.395.013c-.006.006-.006.013-.019.02.013 0 .02-.001.038.005v-.019c-.012 0-.019-.006-.019-.006zm1.689.102c-.102-.006-.173.083-.153.197.019.083.115.16.185.16.102-.006.172-.09.153-.198-.026-.07-.115-.153-.185-.16zm-3.072.108c-.032.006-.083.039-.083.064.012.057.038.147.07.166.07.032.146.025.217.031-.032-.07-.064-.146-.102-.216-.02-.032-.07-.05-.102-.045zm-10.744.013c.02-.006.051-.006.058 0 .025.032.006.051-.058.045h-.127c-.013.006-.032.006-.039.013-.012 0-.019.006-.037.006.011-.006.012-.013.018-.019h.058l.127-.044zm-14.48.085a.068.068 0 0 0-.003.018c-.051.044-.102.089-.147.133a3.02 3.02 0 0 0-.146.14c-.013.013-.026.013-.039.026l.032-.032a3.02 3.02 0 0 1 .14-.146c.051-.039.103-.09.147-.128a.045.045 0 0 1 .017-.011zm25.6.118c-.051-.008-.099.033-.147.052v-.006c-.012 0-.019 0-.019-.006v.02h.018a.54.54 0 0 0-.03.165c0 .038.031.089.05.114.09.077.268.058.319-.038.013-.013.02-.038.013-.051-.051-.077-.09-.166-.153-.223a.1.1 0 0 0-.052-.027zm-13.51.008c0 .03.001.06-.004.095-.013.045-.039.065-.09.045-.019-.006-.038-.019-.044-.032-.038-.044-.019-.076.038-.082.038-.006.063-.02.101-.026zm.556 0a.34.34 0 0 1 .076.255c0 .02 0 .044-.012.057-.032.032-.051.013-.058-.044 0-.083 0-.172-.006-.267zm.089.7a.124.124 0 0 0 .025.039c.013.006.013.013.025.019-.012-.006-.025-.006-.038-.013-.006-.013-.006-.025-.012-.044zm30.16.453c-.052-.013-.09.025-.122.05-.032.02-.038.052-.038.09-.038.331.013.701.166 1.09.102.248.172.528.484.72.102.062.14.156.178.25h3.537c-.451-.32-.904-.639-1.364-.945-.114.05-.248.09-.382.12-.038.014-.051.084-.013.148.051.063.102.12.147.178.083.121.07.197 0 .255-.083.063-.236-.02-.3-.172-.05-.109-.083-.21-.12-.319-.052-.108-.103-.217-.154-.319-.05-.095-.204-.197-.287-.197-.063 0-.133.013-.197.025-.115.02-.223-.038-.357-.101-.09-.058-.166-.122-.172-.21-.032-.205-.185-.332-.35-.447-.204-.006-.453-.178-.657-.216zm-26.108.057c-.012.013-.044.026-.044.038.013.032.031.07.038.103.025-.013.044-.02.05-.039.013-.044 0-.083-.044-.102zm-34.027.032c-.012.013-.012.02-.019.038-.012-.006-.019-.013-.032-.013a.193.193 0 0 1 .052-.025zm18.613.045c.012.012.038.019.038.038.013.044-.006.07-.064.07-.019-.006-.038-.013-.045-.032-.006-.02.006-.044.02-.064.013-.012.038-.012.05-.012zm9.75.012c-.02.032-.064.07-.058.102.02.3.191.504.433.657.006.006.039-.02.045-.032a.061.061 0 0 0 .013-.057c-.077-.243-.268-.421-.383-.644 0-.013-.031-.013-.05-.026zm-10.177.153c.012-.006.032.013.045.032.038.032.038.077 0 .121-.032.032-.07.051-.109.077-.057 0-.083-.077-.032-.153.013-.038.064-.058.096-.077zm43.294.089c-.013.004-.02.017-.02.039-.007.064.038.133.089.172.032-.013.07-.013.083-.032.019-.045-.033-.121-.103-.166-.019-.013-.036-.017-.049-.013zm-31.562.054a.095.095 0 0 1 .044.049c.063.152.197.14.325.108.012-.006.038.013.05.025.013.013.013.051.006.058-.153.07-.274.19-.395.312-.132.126-.284.152-.454.121.075-.093.15-.18.232-.274a.371.371 0 0 0 .07-.293c-.006-.032.031-.077.063-.102a.058.058 0 0 1 .059-.004zm-29.956.195c.013 0 .032 0 .045.006-.005.005-.007.011-.012.017-.002-.002-.004-.004-.008-.004-.006-.006-.012-.013-.025-.02zm-2.39.04c.023.006.046.012.064.023.013.006.012.026.006.039a.25.25 0 0 1-.038.05c-.044.033-.076.026-.064-.025.006-.025.02-.056.032-.087zm63.53.342c.014.006.026.013.045.02-.012.005-.019.005-.032.012-.012-.013-.012-.02-.012-.032zm-2.548.434c-.07.05-.134.095-.185.153-.019.019-.019.07 0 .108.013.031.064.09.083.09.185.037.274-.058.236-.237a.643.643 0 0 0-.083-.114h-.05zm-28.395.102c-.006.012-.006.025-.006.038a.408.408 0 0 0-.058-.026c.026-.006.038-.006.064-.012zm26.034.022c-.014.005-.022.019-.022.041-.013.064.032.134.083.166.031-.013.083-.013.09-.038.018-.051-.02-.121-.09-.153-.026-.016-.046-.021-.06-.016zm-37.683.182c-.017-.009-.037-.004-.063.013a.205.205 0 0 0-.102.171c-.006.013.013.045.02.045.038.006.095.013.107-.006.039-.045.058-.115.077-.153-.01-.039-.022-.06-.039-.07zm-22.301.07c-.013.012-.013.018-.026.038-.012.006-.019.012-.032.012a.185.185 0 0 0 .026-.032l.032-.019zm63.18.242c0 .012 0 .012.012.031.013.006.026.006.045.013-.02-.013-.02-.019-.039-.031-.012-.006-.012-.013-.019-.013zm-64.143.06a.538.538 0 0 0-.256.068h.38c-.015-.017-.03-.036-.048-.045a.19.19 0 0 0-.076-.023z" style="display:inline;fill:url(#b);stroke-width:.0637216" transform="translate(-44.593 -58.667)"/></svg>