<svg xmlns="http://www.w3.org/2000/svg" xml:space="preserve" id="Ebene_1" x="0" y="0" style="enable-background:new 0 0 283.5 283.5" version="1.1" viewBox="0 0 283.5 283.5"><style>.st1{fill:#93b2c2}.st2{fill:#ffed00}.st3{fill:#354b54}</style><path d="M263.8 283.5H19.6C8.8 283.5 0 274.7 0 263.8V19.6C0 8.8 8.8 0 19.6 0h244.2c10.8 0 19.6 8.8 19.6 19.6v244.2c.1 10.9-8.7 19.7-19.6 19.7z" style="fill:#e6007e"/><circle cx="113.3" cy="244.4" r="15.2"/><circle cx="113.3" cy="244.4" r="10.4" class="st1"/><circle cx="144.8" cy="244.4" r="15.2"/><circle cx="144.8" cy="244.4" r="10.4" class="st1"/><circle cx="201" cy="244.4" r="15.2"/><circle cx="201" cy="244.4" r="10.4" class="st1"/><path d="M118.4 244.4c0 2.8-2.3 5.1-5.1 5.1s-5.1-2.3-5.1-5.1V234h10.2v10.4zM149.9 244.4c0 2.8-2.3 5.1-5.1 5.1s-5.1-2.3-5.1-5.1V234h10.2v10.4zM206.1 244.4c0 2.8-2.3 5.1-5.1 5.1s-5.1-2.3-5.1-5.1V234h10.2v10.4z"/><path d="M272.6 198.8c-4-.2-12.8-2-14.9-3-.5-.2-1.8-.9-2.3-1.3-3.4-2.9-7.8-8.8-19.6-17.1-12.2-8.6-34.1-21.9-76-17.9-11.4 1.1-22.4 3-32.4 5.1l-.9-1c-2.8-3.3-15.5-17.3-34.6-22.2-24.4-6.3-57.3-4.1-67.6-2.6-.3 0-.5.1-.7.1h-.1c-.3 0-.5.1-.8.1h-.1c-.2 0-.4.1-.6.1h-.1c-.2 0-.3.1-.4.1h-.1c-.1 0-.2.1-.3.1-1.8 1.2-1.8 6.7-1.8 9.6 0 2.9.5 7.8 2.2 9.6.7.8 31-2.3 45.8 6 .7.4 1.3.7 1.9 1.1 8.4 5.1 11.3 9.8 12.4 12.5-1.2 1-3.8 5.1-3.8 22.1 0 9.1.4 15.2.9 19.2-2.3.6-4.8 1.2-7.5 1.8-15 3.2-38.9 4.2-48.9 4.5-2.2.1-4.7.1-4.7.1-1.4.3-2.2 4.7-2.1 9.1.1 4.4 1 6.1 1.7 6.5.2.1 1.8.4 4.5.8 9.6 1.4 33.1 4.1 54.8 2.9 22.2-1.2 31-3.1 36.5-4.8 2.2-.7 4.2-1.5 6-2.3 1.9.4 3.8.8 5.8 1.3 40.4 8.4 75.2 5.8 96.6-6 20.3-11.2 29.4-23.9 34.2-28.6.8-.7 1.4-1.2 2-1.5 2-.8 10.9-2.3 14.9-2.9.3 0 .3-1.5.1-1.5z" class="st2"/><path d="M173.7 158.7s.7 15 11.1 21.5c6.4 4 17.3 6.4 28.8 1.8 9.9-4 13.5-10.4 13.5-10.4s-13.2-8-26.9-10.9c-11.5-2.4-26.5-2-26.5-2z" class="st1"/><path d="M201.4 157.9c15.5 3.1 22.7 12 22.7 12s-4.1 6.4-14.9 9.9c-8.2 2.7-19 1.3-25.5-4.9-5.6-5.3-6.9-16.2-6.9-16.2s8.5-4 24.6-.8z"/><path d="M181.6 160s9.8-2.2 20.7.6c10.9 2.8 18.3 9.8 18.3 9.8s-4 4.6-10.5 3.1c-6.4-1.4-8.2-7.3-16.8-10.7-7-2.9-11.7-2.8-11.7-2.8z" class="st3"/><ellipse cx="108.6" cy="191.2" class="st1" rx="12.6" ry="10" transform="matrix(.9987 -.0516 .0516 .9987 -9.723 5.857)"/><ellipse cx="108.5" cy="191.2" rx="9.5" ry="7.5" transform="matrix(.9987 -.0516 .0516 .9987 -9.724 5.855)"/><path d="M102.3 188.2s3.5-3.8 8.3-2.7c6.1 1.4 5.7 5.7 5.7 5.7s-2-2.3-6.7-3.3c-3.9-.9-7.3.3-7.3.3z" class="st3"/><ellipse cx="137.1" cy="189.7" class="st1" rx="12.6" ry="10" transform="matrix(.9987 -.0516 .0516 .9987 -9.61 7.327)"/><ellipse cx="137" cy="189.7" rx="9.5" ry="7.5" transform="matrix(.9987 -.0516 .0516 .9987 -9.61 7.325)"/><path d="M130.8 186.7s3.5-3.8 8.3-2.7c6.1 1.4 5.7 5.7 5.7 5.7s-2-2.3-6.7-3.3c-3.9-.9-7.3.3-7.3.3z" class="st3"/><ellipse cx="165.6" cy="188.3" class="st1" rx="12.6" ry="10" transform="matrix(.9987 -.0516 .0516 .9987 -9.495 8.797)"/><ellipse cx="165.5" cy="188.3" rx="9.5" ry="7.5" transform="matrix(.9987 -.0516 .0516 .9987 -9.495 8.795)"/><path d="M159.4 185.2s3.5-3.8 8.3-2.7c6.1 1.4 5.7 5.7 5.7 5.7s-2-2.3-6.7-3.3c-3.9-.8-7.3.3-7.3.3z" class="st3"/><path d="M158.6 166.4v-41.7c0-3.6 1-8 6.4-9.7 4-1.2 11.9-1.1 11.9-1.1v12.9s-5.9-.5-7.9 1.6c-1.3 1.3-1.2 4.4-1.2 4.4l.1 32-9.3 1.6zM33.6 20.2c3.2 0 5 2.4 5 5.6v72.5c0 3.2-1.8 5.6-5 5.6H27c-3.2 0-5-2.4-5-5.6V25.7c0-3.2 1.8-5.6 5-5.6h6.6zM58.4 53.6c3.2 0 5 1.3 5 4.5v7.7c0 3.2-1.8 4.5-5 4.5h-6.6c-3.2 0-5-1.3-5-4.5v-7.7c0-3.2 1.8-4.5 5-4.5h6.6zM99.7 63.1h15.4c3.2 0 4.5 2.1 4.5 5.3v19.7c0 10.7-5.5 15.7-16.2 15.7H87.9c-10.7 0-16.9-5-16.9-15.7V35.9c0-10.7 6.2-15.7 16.9-15.7h14.8c10.7 0 16.9 5 16.9 15.7v12.7c0 3.2-1.3 5-4.5 5h-7.8c-3.2 0-4.6-1.8-4.6-5V37c0-3.2-1.6-6-4.8-6h-5.2c-3.2 0-4.7 2.8-4.7 6v50c0 3.2 1.5 6 4.7 6h6c3.2 0 4.8-2.8 4.8-6v-9.6c0-3.2-.5-4.7-3.7-4.7-4.3 0-6.6 0-6.6-4.8-.1-4.8 2.2-4.8 6.5-4.8zM138.9 53.6c3.2 0 5 1.3 5 4.5v7.7c0 3.2-1.8 4.5-5 4.5h-6.6c-3.2 0-5-1.3-5-4.5v-7.7c0-3.2 1.8-4.5 5-4.5h6.6zM183.1 20.2c3.2 0 4.8.9 4.8 4.1v2.6c0 3.2-1.6 4.2-4.8 4.2h-9.7c-3.2 0-4.4 1.4-4.4 4.6v16.4c0 3.2 1.6 4.7 4.8 4.7h5.9c3.2 0 4.1.9 4.1 4.1v2.6c0 3.2-.9 4.2-4.1 4.2h-5.9c-3.2 0-4.8 1.4-4.8 4.6v16.3c0 3.2 1.2 4.7 4.4 4.7h9.7c3.2 0 4.8.9 4.8 4.1v2.7c0 3.2-1.6 4.1-4.8 4.1h-25.5c-3.2 0-5.6-2.4-5.6-5.6V25.7c0-3.2 2.4-5.6 5.6-5.6h25.5zM203.9 53.6c3.2 0 5 1.3 5 4.5v7.7c0 3.2-1.8 4.5-5 4.5h-6.6c-3.2 0-5-1.3-5-4.5v-7.7c0-3.2 1.8-4.5 5-4.5h6.6zM234 98.3c0 3.2-2 5.6-5.2 5.6h-6.6c-3.2 0-5-2.4-5-5.6V25.7c0-3.2 1.3-5.6 4.5-5.6h27.5c10.7 0 16.5 7.4 16.5 18.1v10.9c0 6.4-3.2 13.5-10.5 16.6-.4.2-.6.5-.6.9 0 .6.3 1.3.6 1.9l11.9 29.7c.3.8.5 1.5.5 2.2 0 2.1-1.4 3.4-3.4 3.4h-6.6c-4.3 0-5.8-2.2-7.2-5.6l-12.4-30c-.4-1-1.3-1.5-2.1-1.5-.9 0-1.6.6-1.6 1.7l-.3 29.9zm14.6-50.2v-8.8c0-5.3-2.9-8.3-8.2-8.3h-1.9c-3.2 0-4.5 2.5-4.5 5.7v14.1c0 3.2 1.6 5.8 4.8 5.8 6-.1 9.8-1.8 9.8-8.5z" class="st2"/></svg>