<?xml version="1.0" encoding="UTF-8" standalone="no"?>
<svg
   width="800"
   height="4500"
   viewBox="0 0 800 4500"
   version="1.1"
   id="svg1"
   xml:space="preserve"
   xmlns="http://www.w3.org/2000/svg"><defs
     id="defs" /><g
     id="layer"><path
       style="fill:none;stroke:#957eb5;stroke-width:50;stroke-linecap:round;stroke-linejoin:round;stroke-dasharray:50, 150;stroke-dashoffset:0;stroke-opacity:1;paint-order:fill markers stroke"
       d="M 700.00005,4400.0003 C -350.00002,3325.0004 900.00007,2600.0002 575,1900.0002 249.99993,1200.0002 225.00004,1425.0001 375.00003,925.00006"
       id="path123-1" /><path
       d="m 564.77596,150.58167 c -16.08962,-3.9189 -33.41023,-2.77531 -49.36167,4.05482 l -22.97968,9.84143 a 189.67,189.67 0 0 0 -94.66759,88.90232 l -4.68819,9.29661 a 221.3,221.3 0 0 0 -23.25236,85.26529 l -6.81434,104.40293 a 25,25 0 0 0 23.31863,26.57414 25,25 0 0 0 26.57317,-23.31886 l 6.81337,-104.40317 a 171.3,171.3 0 0 1 17.99889,-65.99515 l 4.69447,-9.30126 a 139.63,139.63 0 0 1 69.70729,-65.46541 l 22.97969,-9.84144 c 11.67806,-5.00044 24.96365,-1.76451 33.03424,8.04604 l 28.5894,34.75484 a 83.1,83.1 0 0 1 18.91145,54.49322 l -0.7116,35.23957 a 173.1,173.1 0 0 1 -14.92108,66.87243 l -24.29891,54.59032 0.61606,-1.27852 a 111.98,111.98 0 0 0 -7.66741,83.51472 25,25 0 0 0 0.44572,1.34776 321.4,321.4 0 0 1 19.37694,107.98068 l 0.0167,3.07943 a 83.47,83.47 0 0 1 -19.64816,54.31715 l -7.93148,9.41136 c -3.59718,4.26796 -7.18042,3.3952 -8.41207,-2.0489 l -2.71527,-12.00455 -0.006,-0.0169 a 540,540 0 0 1 -11.52439,-74.46952 l -0.004,-0.0247 c -2.86871,-34.42258 -27.60449,-63.35508 -61.16728,-71.52986 l -19.22885,-4.68351 c -33.22676,-8.39656 -68.33959,5.51212 -86.81272,34.37945 l -0.11219,0.17749 a 547,547 0 0 1 -44.99501,61.64398 l -7.92879,9.41304 c -3.59719,4.26796 -7.18043,3.39521 -8.41208,-2.0489 l -2.71503,-12.00552 a 83.47,83.47 0 0 1 7.53043,-57.26863 l 29.35001,-55.83535 a 25,25 0 0 0 -10.50686,-33.76141 25,25 0 0 0 -33.76075,10.4957 l -29.34272,55.83918 a 133.52,133.52 0 0 0 -12.03814,91.56713 l 2.71619,11.99654 c 9.6453,42.63147 67.24245,56.66022 95.41163,23.2391 l 7.92764,-9.40406 a 597,597 0 0 0 49.10413,-67.28273 l -0.11311,0.1855 c 6.97581,-10.90082 19.90078,-16.01748 32.4477,-12.8462 l 19.64468,4.7848 c 12.84644,3.12896 22.07873,13.92956 23.17343,27.10691 l 0.006,0.0169 a 590,590 0 0 0 12.58849,81.38269 l 2.71294,11.98031 c 9.64554,42.63051 67.24268,56.65926 95.41261,23.23934 l 7.9269,-9.40526 a 133.52,133.52 0 0 0 31.41929,-86.84549 l -0.0172,-3.08161 c -0.25602,-42.13955 -7.71037,-83.91626 -21.98437,-123.55922 a 61.92,61.92 0 0 1 4.27762,-46.08576 25,25 0 0 0 0.61532,-1.27973 l 24.29868,-54.58935 a 223.1,223.1 0 0 0 19.23217,-86.1992 l 0.70874,-35.23203 A 133.16,133.16 0 0 0 635.3325,211.62774 l -28.5913,-34.74706 c -11.02296,-13.4002 -25.87867,-22.38087 -41.96829,-26.29976 m -29.82935,122.41817 a 25,25 0 0 0 -30.2061,18.37368 25,25 0 0 0 18.37368,30.20609 c 13.70338,3.33769 21.71113,16.50369 18.37368,30.20609 -3.33745,13.70241 -16.50271,21.71137 -30.2061,18.37368 -13.70338,-3.33769 -21.71112,-16.50368 -18.37367,-30.20609 a 25,25 0 0 0 -18.37368,-30.20609 25,25 0 0 0 -30.20609,18.37367 c -9.73216,39.95686 15.16417,80.88612 55.12103,90.61828 39.95686,9.73216 80.88611,-15.16417 90.61828,-55.12103 9.73216,-39.95686 -15.1632,-80.88588 -55.12103,-90.61828 M 449.60415,623.3729 a 25,25 0 0 0 -30.2061,18.37368 l -15.13768,62.15004 a 25,25 0 0 0 18.37368,30.20609 25,25 0 0 0 30.20609,-18.37367 l 15.13768,-62.15005 A 25,25 0 0 0 449.60415,623.3729"
       fill="#957eb5"
       id="path1" /></g></svg>
