<?xml version="1.0" encoding="UTF-8" standalone="no"?>
<!-- Created with Inkscape (http://www.inkscape.org/) -->

<svg
   version="1.1"
   id="svg2"
   width="1122.52"
   height="793.70667"
   viewBox="0 0 1122.52 793.70667"
   sodipodi:docname="rakede-schraeg.ai"
   xmlns:inkscape="http://www.inkscape.org/namespaces/inkscape"
   xmlns:sodipodi="http://sodipodi.sourceforge.net/DTD/sodipodi-0.dtd"
   xmlns="http://www.w3.org/2000/svg"
   xmlns:svg="http://www.w3.org/2000/svg">
  <defs
     id="defs6">
    <clipPath
       clipPathUnits="userSpaceOnUse"
       id="clipPath16">
      <path
         d="M 0,595.28 H 841.89 V 0 H 0 Z"
         id="path14" />
    </clipPath>
  </defs>
  <sodipodi:namedview
     id="namedview4"
     pagecolor="#ffffff"
     bordercolor="#000000"
     borderopacity="0.25"
     inkscape:showpageshadow="2"
     inkscape:pageopacity="0.0"
     inkscape:pagecheckerboard="0"
     inkscape:deskcolor="#d1d1d1" />
  <g
     id="g8"
     inkscape:groupmode="layer"
     inkscape:label="rakede-schraeg"
     transform="matrix(1.3333333,0,0,-1.3333333,0,793.70667)">
    <g
       id="g10">
      <g
         id="g12"
         clip-path="url(#clipPath16)">
        <g
           id="g18"
           transform="translate(496.5537,540.7673)">
          <path
             d="M 0,0 C -0.106,0.172 -0.187,0.466 -0.35,0.523 -0.547,0.592 -0.813,0.46 -1.051,0.416 -0.908,0.23 -0.799,-0.044 -0.612,-0.114 -0.433,-0.182 -0.174,-0.039 0,0 m -68.57,-10.014 c 0.237,0.089 0.473,0.178 0.711,0.266 -0.157,0.194 -0.358,0.574 -0.46,0.549 -0.321,-0.079 -0.604,-0.31 -0.901,-0.483 0.216,-0.11 0.433,-0.221 0.65,-0.332 m -6.478,-0.385 c -0.019,0.196 0.034,0.486 -0.073,0.569 -0.197,0.152 -0.489,0.182 -0.741,0.263 0.01,-0.322 0.022,-0.645 0.032,-0.968 0.261,0.045 0.521,0.09 0.782,0.136 m 0.605,-3.66 c 0.219,0.079 0.439,0.158 0.66,0.237 -0.14,0.181 -0.322,0.535 -0.411,0.513 -0.299,-0.074 -0.566,-0.282 -0.845,-0.439 0.198,-0.104 0.397,-0.207 0.596,-0.311 m 42.051,-54.618 c 0.217,-0.107 0.427,-0.262 0.656,-0.297 0.084,-0.013 0.211,0.258 0.318,0.4 -0.217,0.107 -0.427,0.262 -0.655,0.297 -0.084,0.013 -0.211,-0.258 -0.319,-0.4 m -23.563,-83.81 c 0.2,-0.103 0.4,-0.206 0.601,-0.309 -0.098,0.245 -0.195,0.491 -0.292,0.737 -0.103,-0.143 -0.206,-0.285 -0.309,-0.428 m -45.22,-62.769 c -0.206,-0.129 -0.584,-0.256 -0.586,-0.389 -0.008,-0.448 0.118,-0.898 0.193,-1.349 0.203,0.133 0.574,0.261 0.578,0.399 0.012,0.445 -0.112,0.893 -0.185,1.339 m 16.642,-7.918 c -0.22,0.115 -0.44,0.23 -0.66,0.345 -0.078,-0.29 -0.155,-0.58 -0.232,-0.87 0.252,0.006 0.519,-0.034 0.748,0.04 0.091,0.03 0.098,0.316 0.144,0.485 m 39.452,-77.488 c -0.073,0.236 -0.148,0.473 -0.222,0.71 -0.19,-0.153 -0.557,-0.34 -0.537,-0.454 0.057,-0.31 0.279,-0.589 0.436,-0.88 0.107,0.208 0.216,0.416 0.323,0.624 m -60.912,-11.61 -0.726,-0.18 0.636,-0.371 z m 46.184,-96.35 0.399,0.505 -0.409,0.159 z m -77.586,2.532 0.475,-0.142 -0.064,0.696 z m 103.797,248.128 c 0.2,-0.468 0.287,-1.071 0.636,-1.358 0.253,-0.208 0.852,0.001 1.296,0.024 -0.128,0.46 -0.122,1.146 -0.418,1.322 -0.375,0.223 -0.997,0.029 -1.514,0.012 M -76.02,-18.38 c -0.458,0.183 -0.904,0.419 -1.379,0.522 -0.184,0.039 -0.434,-0.225 -0.653,-0.351 0.239,-0.34 0.568,-1 0.7,-0.963 0.48,0.136 0.894,0.505 1.332,0.792 M 2.879,-32.638 c 0.162,-0.492 0.224,-1.062 0.529,-1.428 0.136,-0.163 0.764,0.084 1.168,0.145 -0.079,0.483 0,1.163 -0.284,1.392 -0.265,0.214 -0.916,-0.052 -1.413,-0.109 m -43.132,-30.487 c -0.472,-0.106 -0.943,-0.213 -1.416,-0.32 0.401,-0.262 0.776,-0.667 1.211,-0.744 0.437,-0.079 0.932,0.168 1.401,0.273 -0.397,0.264 -0.796,0.528 -1.196,0.791 m -38.168,-254.062 c -0.064,0.517 -0.129,1.035 -0.193,1.551 -0.502,-0.096 -1.375,-0.094 -1.432,-0.308 -0.14,-0.522 0.1,-1.146 0.187,-1.728 0.479,0.161 0.958,0.322 1.438,0.485 m -16.416,132.214 c -0.602,-0.498 -1.308,-1.08 -2.013,-1.662 0.322,-0.316 0.768,-0.959 0.945,-0.892 0.947,0.359 1.826,0.895 2.729,1.37 -0.412,0.293 -0.824,0.587 -1.661,1.184 m 93.896,116.032 c -0.68,0.593 -1.224,1.189 -1.885,1.589 -0.3,0.182 -0.833,-0.022 -1.261,-0.05 0.617,-0.652 1.191,-1.36 1.885,-1.915 0.175,-0.14 0.741,0.209 1.261,0.376 m -33.673,-163.812 c -0.557,0.418 -1.074,0.872 -1.668,1.172 -0.079,0.039 -0.877,-0.902 -0.787,-1.05 0.34,-0.56 0.912,-0.98 1.396,-1.452 0.296,0.372 0.591,0.743 1.059,1.33 m 20.345,172.489 c -0.278,0.733 -0.387,1.527 -0.631,1.571 -0.909,0.163 -1.86,0.079 -2.795,0.088 0.137,-0.373 0.196,-1.004 0.425,-1.074 0.92,-0.281 1.893,-0.386 3.001,-0.585 M -36.718,6.687 c 0.709,0.532 1.277,0.957 1.844,1.382 -0.673,0.341 -1.334,0.911 -2.022,0.948 -0.542,0.028 -1.12,-0.601 -1.681,-0.938 0.571,-0.427 1.141,-0.854 1.859,-1.392 M -81.73,-59.199 c -0.965,0.966 -1.43,1.751 -2.079,1.959 -0.373,0.119 -1.045,-0.698 -1.583,-1.093 0.501,-0.503 0.924,-1.212 1.528,-1.439 0.453,-0.171 1.14,0.278 2.134,0.573 m 42.341,-95.246 c -0.685,-0.341 -1.495,-0.743 -2.303,-1.145 0.421,-0.27 0.858,-0.786 1.262,-0.762 1.053,0.062 2.092,0.362 3.137,0.567 -0.566,0.363 -1.134,0.725 -2.096,1.34 M 0.534,-74.74 c -1.826,1.079 -3.035,1.886 -4.343,2.472 -0.205,0.092 -0.859,-0.817 -1.305,-1.262 0.987,-0.847 1.898,-1.827 3.007,-2.461 0.343,-0.196 1.224,0.549 2.641,1.251 m -88.27,64.344 c 1.117,0.178 2.243,0.357 3.369,0.537 -1.011,0.334 -2.001,0.81 -3.038,0.961 -1.023,0.149 -2.094,-0.032 -3.143,-0.068 0.893,-0.454 1.786,-0.909 2.812,-1.43 m 38.408,-233.276 c 1.002,1.121 1.891,1.71 2.08,2.472 0.126,0.51 -0.644,1.668 -1.197,1.809 -0.685,0.173 -1.56,-0.408 -2.353,-0.663 0.379,-0.934 0.759,-1.868 1.47,-3.618 m 6.575,230.195 c 1.491,0.066 2.665,0.119 3.838,0.171 -0.673,0.358 -1.312,0.897 -2.027,1.034 -1.324,0.251 -2.691,0.267 -4.04,0.381 0.783,-0.557 1.566,-1.114 2.229,-1.586 m -8.751,-49.131 c 1.867,-0.046 3.477,-0.086 5.086,-0.126 -1.328,0.526 -2.616,1.246 -3.993,1.527 -1.561,0.319 -3.201,0.245 -4.807,0.342 1.289,-0.605 2.577,-1.21 3.714,-1.743 m 42.229,17.709 c 1.733,1.429 2.942,2.426 4.15,3.422 -0.542,0.369 -1.359,1.173 -1.579,1.034 -1.155,-0.733 -2.207,-1.658 -3.17,-2.638 -0.161,-0.165 0.292,-0.932 0.599,-1.818 m 5.625,-9.277 c -0.264,1.758 -0.517,3.451 -0.77,5.145 -0.924,-1.421 -2.31,-2.743 -2.638,-4.29 -0.311,-1.466 0.487,-3.168 0.797,-4.765 0.818,1.225 1.636,2.45 2.611,3.91 m -91.25,41.59 c -0.038,0.376 -0.235,2.289 -0.432,4.203 -0.892,-1.754 -1.814,-3.493 -2.656,-5.271 -0.222,-0.469 -0.351,-1.082 -0.259,-1.579 0.24,-1.29 0.627,-2.552 0.955,-3.826 0.608,1.1 1.261,2.178 1.803,3.309 0.224,0.468 0.211,1.05 0.589,3.164 m 88.659,-66.688 c -3.041,0.136 -6.529,2.201 -6.139,-2.512 0.056,-0.684 4.036,-1.415 6.199,-1.409 1.216,0.003 2.428,1.469 3.642,2.277 -1.432,0.635 -2.863,1.271 -3.702,1.644 m -80.695,66.788 c -4.867,0.81 -7.35,-1.262 -6.314,-4.945 0.293,-1.045 2.224,-2.126 3.503,-2.264 1.45,-0.157 3.012,0.728 4.525,1.16 -1.17,0.569 -2.399,1.043 -3.489,1.738 -0.795,0.505 -1.406,1.301 -2.099,1.967 0.89,0.405 1.746,0.953 2.68,1.176 1.001,0.239 2.075,0.174 3.118,0.241 -0.849,0.41 -1.697,0.818 -1.924,0.927 m 4.953,-58.015 c 1.216,0.796 2.962,1.904 4.667,3.071 0.661,0.453 1.232,1.038 1.845,1.563 -1.767,0.241 -3.531,0.503 -5.302,0.71 -0.811,0.095 -1.647,0.184 -2.452,0.096 -2.08,-0.225 -4.148,-0.549 -6.221,-0.835 1.845,-1.137 3.691,-2.274 5.536,-3.411 0.233,-0.144 0.465,-0.288 1.927,-1.194 m -5.084,41.772 c 4.548,0.078 9.483,0.081 14.402,0.368 0.516,0.029 0.934,1.735 1.397,2.663 -4.362,0.982 -10.626,4.222 -12.695,2.48 -4.386,-3.692 -7.687,-0.855 -11.416,-0.877 -1.063,-0.007 -2.125,-0.152 -3.187,-0.233 0.779,-0.574 1.48,-1.384 2.354,-1.679 2.834,-0.956 5.732,-1.724 9.145,-2.722 m -28.646,-441.991 c 0.317,0.255 0.633,0.509 0.95,0.764 -0.271,-0.318 -0.543,-0.637 -0.814,-0.956 -0.629,0.1 -1.257,0.201 -1.886,0.301 0.513,9.617 10.773,12.802 13.802,20.846 0.753,1.998 3.423,3.236 4.32,5.225 7.632,16.925 15.032,33.953 22.612,50.902 0.418,0.936 1.843,2.022 2.746,1.976 0.981,-0.049 2.064,-1.212 2.784,-2.137 0.431,-0.556 0.181,-1.601 0.363,-2.398 0.334,-1.464 0.76,-2.908 1.148,-4.359 0.708,1.473 1.745,2.876 2.069,4.429 1.808,8.658 3.392,17.363 5.186,26.024 0.31,1.493 1.261,2.852 1.915,4.273 1.085,-1.173 2.337,-2.236 3.204,-3.553 0.741,-1.126 1.04,-2.542 1.534,-3.83 -0.231,-0.143 -0.478,-0.267 -0.687,-0.437 -0.154,-0.126 -0.258,-0.313 -0.384,-0.473 0.323,0.353 0.644,0.706 0.966,1.059 2.138,6.942 6.009,13.924 5.845,20.812 -0.123,5.157 -1.487,10.224 -0.359,15.696 0.564,2.742 -0.543,7.896 -2.328,8.674 -6.053,2.642 -12.649,4.523 -19.212,5.418 -17.767,2.426 -35.499,4.718 -52.528,10.789 -2.099,0.748 -6.155,0.361 -7.203,-1.055 -4.278,-5.78 -9.946,-10.955 -10.12,-19.068 -0.077,-3.557 -0.954,-7.1 -1.525,-10.641 -0.148,-0.916 -0.512,-1.798 -0.777,-2.696 0.761,0.692 1.443,1.513 2.304,2.042 1.05,0.644 2.249,1.042 3.384,1.547 -0.105,-1.1 -0.211,-2.198 -0.317,-3.297 -5.333,-6.904 -2.491,-14.754 -2.533,-22.262 -0.004,-0.6 0.466,-1.204 0.715,-1.805 0.291,0.762 0.629,1.509 0.861,2.288 0.313,1.052 0.546,2.129 0.813,3.195 1.429,-11.929 2.991,-23.845 4.203,-35.795 0.352,-3.48 -0.295,-7.062 -0.484,-10.597 -0.356,-0.703 -0.713,-1.405 -1.07,-2.107 0.319,0.75 0.638,1.5 0.956,2.25 1.257,-3.504 4.581,-7.036 -0.142,-10.459 -0.078,0.227 -0.141,0.46 -0.239,0.679 -0.097,0.22 -0.228,0.425 -0.344,0.636 0.243,-0.404 0.485,-0.808 0.728,-1.212 -0.102,-0.53 -0.425,-1.445 -0.273,-1.532 5.113,-2.938 3.837,-8.688 5.719,-13.025 0.222,-0.509 -0.404,-1.386 -0.637,-2.093 -0.679,0.314 -1.601,0.45 -1.985,0.978 -0.765,1.053 -1.235,2.319 -1.827,3.498 l -0.278,2.862 c -0.129,-0.187 -0.402,-0.417 -0.362,-0.553 0.221,-0.75 0.52,-1.477 0.792,-2.211 0.669,-13.803 2.228,-27.375 10.18,-39.29 l -0.127,0.155 c 0.988,-2.266 1.976,-4.53 2.964,-6.796 0.481,1.861 0.787,3.796 1.517,5.554 0.349,0.839 1.501,1.347 2.289,2.005 0.304,-0.557 0.608,-1.115 0.912,-1.672 0.22,0.477 0.44,0.955 0.66,1.432 m 114.91,405.764 c -0.371,0.522 -0.742,1.045 -1.113,1.567 -0.245,-0.219 -0.491,-0.439 -0.736,-0.658 l 2.018,-0.778 c 0.289,-0.378 0.556,-0.777 0.881,-1.12 0.078,-0.082 0.352,0.022 0.535,0.04 -0.528,0.316 -1.056,0.633 -1.585,0.949 m -69.048,-215.993 c 1.647,2.621 3.292,5.242 4.939,7.863 0.474,-1.031 0.948,-2.062 1.423,-3.094 0.01,-2.093 -0.758,-4.684 0.196,-6.174 1.817,-2.84 17.793,-4.085 20.567,-2.022 0.558,0.415 0.951,1.276 1.087,1.994 1.134,5.952 2.587,11.884 3.125,17.896 0.344,3.841 -2.168,1.381 -3.605,0.842 2.2,4.514 4.401,9.028 6.601,13.542 0.285,0.329 0.569,0.657 0.854,0.985 -0.262,-0.379 -0.524,-0.758 -0.784,-1.137 -0.071,1.935 0.088,3.915 -0.295,5.786 -0.239,1.171 -1.293,2.175 -1.982,3.255 -1.04,2.035 -1.779,5.203 -4.568,1.425 -1.564,-2.119 -2.956,-4.365 -4.426,-6.554 -3.836,-3.407 -7.672,-6.814 -11.507,-10.222 -0.254,0.422 -0.507,0.845 -0.758,1.27 0.156,0.799 0.163,1.666 0.493,2.386 1.235,2.695 6.179,3.694 3.588,8.151 -2.567,4.412 -3.821,9.944 -10.719,9.956 -4.516,0.008 -9.024,0.576 -13.552,0.597 -7.247,0.034 -14.504,3.755 -21.673,6.166 -0.683,0.23 -0.574,2.339 -1.184,3.368 -1.088,1.834 -2.172,3.842 -3.773,5.145 -1.3,1.058 -3.355,1.189 -5.075,1.731 1.624,0.389 3.248,0.779 4.873,1.167 0.264,0.063 0.705,0.041 0.765,0.184 0.27,0.642 0.698,1.871 0.593,1.922 -5.607,2.766 6.177,8.099 -1.878,11.071 -5.638,2.08 -5.769,6.473 -0.367,9.513 5.4,3.039 7.773,6.43 6.204,12.665 -0.468,1.854 0.885,4.164 1.388,6.268 1.605,6.716 3.42,13.372 1.962,20.439 -0.344,1.665 -0.01,4.592 1.046,5.232 5.403,3.277 4.629,9.132 6.49,13.857 l 0.731,0.374 c 0.215,-1.566 0.76,-3.173 0.572,-4.689 -0.346,-2.788 0.454,-3.754 3.391,-4.232 14.157,-2.301 28.371,-4.441 42.349,-7.596 12.294,-2.774 11.966,-3.293 14.478,9.295 3.389,16.987 7.143,33.9 10.712,50.85 2.39,11.358 1.986,12.452 -9.007,16.384 -5.18,1.853 -10.693,3.098 -16.158,3.747 -8.983,1.068 -18.077,1.187 -27.071,2.175 -5.366,0.59 -6.546,-2.128 -7.103,-6.535 -0.66,-5.222 -1.721,-10.404 -2.826,-15.556 -0.357,-1.664 -1.405,-3.181 -2.136,-4.765 -0.021,1.571 -0.174,3.154 -0.031,4.71 0.204,2.205 0.68,4.384 0.944,6.586 1.166,9.702 1.146,9.687 -7.916,13.477 -2.687,1.124 -4.276,2.516 -4.086,6.154 0.327,6.242 -0.459,12.513 6.578,15.955 0.472,0.23 -3.123,3.181 0.956,3.601 2.359,0.244 4.694,0.725 7.039,1.098 -1.834,1.271 -3.897,2.32 -5.422,3.89 -1.016,1.047 -2.14,3.201 -1.711,4.234 2.193,5.275 -1.48,5.238 -4.738,5.84 -4.638,0.857 -9.259,1.799 -13.887,2.704 0.392,2.187 0.782,4.374 1.173,6.561 l 2.933,16.402 c 0.098,0.546 0.195,1.093 0.293,1.64 2.509,-0.321 5.052,-0.48 7.519,-0.998 4.755,-0.997 9.432,-2.457 14.225,-3.122 1.146,-0.159 3.686,2.003 3.742,3.188 0.162,3.341 -1.017,6.736 -0.955,10.096 0.084,4.527 -0.601,11.884 1.588,12.989 5.099,2.576 5.92,6.212 7.177,10.63 0.501,1.761 2.629,3.059 4.015,4.568 0.438,-1.892 1.252,-3.786 1.241,-5.676 -0.033,-5.09 1.555,-7.089 6.511,-7.367 6.328,-0.355 12.714,-0.261 18.971,-1.123 5.858,-0.807 8.082,1.749 8.869,6.977 0.618,4.104 1.575,8.157 2.382,12.234 1.093,-0.196 2.187,-0.391 3.28,-0.587 -0.847,-4.899 -1.441,-9.86 -2.612,-14.68 -1.172,-4.821 0.265,-6.971 5.218,-8.047 9.31,-2.023 17.713,-6.205 24.578,-12.983 5,-4.937 4.82,-6.847 -1.82,-8.913 -6.091,-1.894 -4.948,-6.469 -5.245,-10.649 -0.034,-0.466 1.699,-0.952 2.47,-1.599 2.385,-2.001 4.702,-4.085 7.045,-6.137 -1.053,0.2 -2.1,0.447 -3.162,0.583 -0.871,0.111 -1.76,0.088 -2.64,0.125 0.884,-0.442 1.744,-1.171 2.659,-1.248 0.981,-0.083 2.014,0.447 3.025,0.71 2.693,-2.273 4.548,-4.45 2.28,-8.426 -1.011,-1.775 0.114,-4.653 -0.288,-6.932 -0.301,-1.699 -1.497,-3.24 -2.295,-4.852 -0.711,0.512 -1.393,1.405 -2.139,1.463 -2.025,0.157 -4.078,-0.04 -6.119,-0.096 0.742,0.657 1.482,1.315 2.223,1.973 -0.35,0.177 -0.699,0.355 -1.049,0.532 -0.347,-0.888 -0.696,-1.776 -1.045,-2.665 -0.722,-0.378 -2.079,-0.768 -2.071,-1.131 0.085,-4.342 0.211,-8.698 0.701,-13.008 0.156,-1.377 1.415,-2.629 2.169,-3.938 1.006,1.259 2.391,2.37 2.947,3.804 1.687,4.342 3.052,8.808 4.543,13.226 -2.14,-12.316 -3.914,-24.658 -3.6,-37.229 0.025,-1.02 -1.915,-2.518 -3.241,-3.049 -2.516,-1.009 -5.211,-1.748 -7.898,-2.12 -8.279,-1.147 -8.232,-1.07 -9.794,-9.622 -3.537,-19.362 -7.65,-38.639 -10.463,-58.104 -1.125,-7.785 -1.44,-15.639 -4.042,-23.164 -1.091,-3.157 -0.042,-4.788 3.518,-4.123 1.634,0.306 3.394,1.155 4.865,0.798 1.898,-0.461 3.562,-1.884 5.326,-2.892 -1.092,-1.676 -1.875,-3.74 -3.362,-4.916 -1.432,-1.133 -3.634,-1.244 -5.418,-1.994 -2.448,-1.028 -4.82,-2.235 -7.226,-3.366 2.029,-2.736 3.574,-6.115 6.183,-8.078 5.944,-4.473 6.071,-5.929 -0.581,-9.937 -3.49,-2.104 -4.91,-10.139 -2.221,-13.217 0.155,-0.177 1.477,0.904 2.313,1.037 1.726,0.274 3.491,0.303 5.24,0.433 -0.29,-1.619 -0.382,-3.308 -0.925,-4.836 -0.531,-1.493 -1.777,-2.74 -2.264,-4.239 -1.65,-5.08 -3.127,-10.218 -4.623,-15.348 -1.511,-5.183 -3.366,-10.308 -4.374,-15.592 -3.743,-19.62 -7.242,-39.287 -10.7,-58.96 -0.362,-2.057 -0.184,-4.353 0.318,-6.397 5.764,-23.486 2.39,-46.144 -6.028,-68.356 -1.363,-3.599 -2.612,-7.314 -4.552,-10.597 -1.372,-2.32 -1.08,-7.17 -6.298,-5.614 -0.26,0.077 -1.378,-2.483 -1.987,-3.864 -3.772,-8.562 -7.151,-17.326 -11.441,-25.619 -1.727,-3.338 -5.444,-5.639 -8.22,-8.445 -0.726,-0.734 -1.764,-1.521 -1.914,-2.409 -1.799,-10.686 -10.422,-17.176 -15.804,-25.62 -9.032,-14.172 -18.781,-27.887 -28.189,-41.821 -0.763,-1.129 -1.103,-2.546 -1.886,-3.656 -0.428,-0.606 -1.373,-0.849 -2.085,-1.255 -0.304,0.719 -0.801,1.418 -0.881,2.161 -0.499,4.659 -0.593,9.382 -1.397,13.984 -2.953,16.893 -5.933,33.787 -9.286,50.604 -2.873,14.411 -6.216,28.73 -9.458,43.066 -1.864,8.248 -5.212,16.376 -5.679,24.682 -1.28,22.766 -0.818,45.509 11.684,65.927 2.838,4.635 5.937,9.118 9.085,13.552 2.618,3.685 5.283,7.076 2.59,12.06 -0.706,1.305 0.249,3.609 0.677,5.398 0.447,1.863 1.243,3.639 1.772,5.486 1.202,4.196 2.172,8.467 3.54,12.606 1.423,4.305 7.81,2.503 9.407,7.534 0.481,1.515 5.039,1.048 5.196,-2.313 0.21,-4.487 2.167,-4.829 5.91,-4.182 2.354,0.406 4.942,-0.734 7.38,-0.558 1.83,0.132 3.83,0.919 5.334,2 4.384,3.147 5.601,2.767 6.958,-2.507 0.203,-0.792 1.108,-1.403 1.689,-2.098 0.854,0.86 1.9,1.603 2.513,2.61 0.689,1.135 0.989,2.508 1.458,3.776 0.158,-1.397 0.481,-2.799 0.444,-4.191 -0.14,-5.305 4.586,-4.653 6.349,-3.556 3.32,2.066 5.547,0.087 8.225,-0.441 0.11,-0.458 0.221,-0.917 0.332,-1.375 0.267,0.144 0.533,0.289 0.8,0.432 -0.438,0.273 -0.874,0.544 -1.312,0.816"
             style="fill:#282726;fill-opacity:1;fill-rule:nonzero;stroke:none"
             id="path20" />
        </g>
        <g
           id="g22"
           transform="translate(381.356,328.8069)">
          <path
             d="m 0,0 c -1.219,-8.458 -1.218,-8.456 7.469,-13.082 0.715,-0.381 1.406,-0.807 2.109,-1.211 -0.893,-0.269 -1.771,-0.615 -2.682,-0.785 -0.999,-0.186 -2.027,-0.209 -3.042,-0.303 0.806,-0.189 1.611,-0.382 2.419,-0.566 1.351,-0.309 2.716,-0.564 4.049,-0.936 0.783,-0.219 1.515,-0.619 2.27,-0.938 -0.725,-0.504 -1.625,-0.873 -2.144,-1.538 -1.545,-1.979 -3.698,-3.89 -4.253,-6.16 -1.777,-7.26 -2.9,-14.677 -4.368,-22.015 -0.376,-1.882 -0.986,-3.738 -1.706,-5.518 -0.258,-0.638 -1.157,-1.017 -1.763,-1.513 -0.292,0.848 -0.98,1.783 -0.815,2.531 2.02,9.183 4.162,18.339 6.282,27.499 0.832,3.595 2.121,7.072 -3.916,7.486 -2.113,0.146 -4.274,2.314 -6.019,3.973 -0.938,0.891 -1.439,2.659 -1.44,4.031 -0.003,2.68 0.737,5.361 0.719,8.039 -0.05,7.332 -0.142,7.335 7.58,5.662 C 0.81,4.643 0.664,3.671 0.615,3.147 L 0.766,3.321 C 0.556,2.155 0.347,0.988 0.138,-0.179 Z"
             style="fill:#282726;fill-opacity:1;fill-rule:nonzero;stroke:none"
             id="path24" />
        </g>
        <g
           id="g26"
           transform="translate(453.8486,276.9792)">
          <path
             d="m 0,0 c 0.098,-1.399 0.16,-2.802 0.303,-4.196 0.258,-2.534 -0.64,-5.209 -3.308,-3.858 -5.352,2.711 -8.623,-0.774 -12.576,-2.817 -1.357,-0.702 -3.046,-0.766 -4.583,-1.121 0.986,1.076 1.974,2.152 2.96,3.228 1.934,1.318 3.869,2.635 5.804,3.953 0.045,0.651 0.09,1.301 0.135,1.953 l -0.087,-0.1 c 0.7,-0.16 1.397,-0.32 2.095,-0.48 1.895,1.354 3.789,2.709 5.684,4.063 l -0.2,-0.103 C -2.516,0.349 -1.258,0.174 0,0"
             style="fill:#282726;fill-opacity:1;fill-rule:nonzero;stroke:none"
             id="path28" />
        </g>
        <g
           id="g30"
           transform="translate(438.3281,284.2029)">
          <path
             d="m 0,0 c -6.239,-3.35 -12.46,-6.737 -18.741,-10.007 -0.847,-0.44 -2.003,-0.287 -3.015,-0.409 0.611,0.968 0.997,2.403 1.872,2.828 6.32,3.067 12.738,5.93 19.125,8.859 C -0.508,0.846 -0.255,0.423 0,0"
             style="fill:#282726;fill-opacity:1;fill-rule:nonzero;stroke:none"
             id="path32" />
        </g>
        <g
           id="g34"
           transform="translate(381.9712,331.9543)">
          <path
             d="M 0,0 C 0.251,0.114 0.493,0.265 0.755,0.336 2.834,0.906 4.918,1.46 7,2.019 6.957,1.345 7.124,0.559 6.834,0.016 c -1.22,-2.29 -2.091,-5.32 -5.829,-3.398 -0.459,0.236 -1.076,0.164 -1.62,0.235 l 0.137,-0.179 c 0.21,1.167 0.419,2.333 0.628,3.5 z"
             style="fill:#282726;fill-opacity:1;fill-rule:nonzero;stroke:none"
             id="path36" />
        </g>
        <g
           id="g38"
           transform="translate(406.751,405.2917)">
          <path
             d="m 0,0 c 0.411,3.886 0.812,7.772 1.292,11.649 0.011,0.093 0.91,0.075 1.395,0.108 C 2.035,7.963 1.383,4.168 0.731,0.374 Z"
             style="fill:#282726;fill-opacity:1;fill-rule:nonzero;stroke:none"
             id="path40" />
        </g>
        <g
           id="g42"
           transform="translate(413.6758,429.3049)">
          <path
             d="m 0,0 c -0.972,-2.363 -2.033,-4.943 -3.094,-7.523 0.073,2.723 -0.242,5.529 0.317,8.148 0.694,3.253 2.111,6.352 3.216,9.517 C 0.298,6.884 0.157,3.625 0,0"
             style="fill:#282726;fill-opacity:1;fill-rule:nonzero;stroke:none"
             id="path44" />
        </g>
        <g
           id="g46"
           transform="translate(455.3379,284.5759)">
          <path
             d="m 0,0 c -1.754,-2.357 -3.509,-4.716 -5.263,-7.074 l 0.201,0.102 c -1.152,0.209 -2.303,0.418 -3.455,0.626 l 0.114,-0.131 C -5.835,-4 -3.266,-1.523 -0.697,0.953 -0.464,0.637 -0.231,0.318 0,0"
             style="fill:#282726;fill-opacity:1;fill-rule:nonzero;stroke:none"
             id="path48" />
        </g>
        <g
           id="g50"
           transform="translate(420.0142,266.03)">
          <path
             d="M 0,0 C -1.832,-1.207 -3.061,-2.104 -4.396,-2.795 -4.582,-2.891 -5.293,-1.969 -5.761,-1.518 -4.52,-0.6 -3.316,0.38 -2,1.176 -1.777,1.311 -1.074,0.651 0,0"
             style="fill:#282726;fill-opacity:1;fill-rule:nonzero;stroke:none"
             id="path52" />
        </g>
        <g
           id="g54"
           transform="translate(444.5918,273.5417)">
          <path
             d="m 0,0 c -0.698,0.159 -1.396,0.319 -2.095,0.479 1.478,1.361 2.957,2.72 4.437,4.079 L 2.229,4.688 C 1.486,3.126 0.743,1.562 0,0"
             style="fill:#282726;fill-opacity:1;fill-rule:nonzero;stroke:none"
             id="path56" />
        </g>
        <g
           id="g58"
           transform="translate(436.7187,268.0222)">
          <path
             d="m 0,0 c -1.17,0.223 -2.34,0.446 -3.51,0.67 1.019,0.759 2.038,1.518 3.058,2.277 C -0.301,1.965 -0.15,0.982 0,0"
             style="fill:#282726;fill-opacity:1;fill-rule:nonzero;stroke:none"
             id="path60" />
        </g>
        <g
           id="g62"
           transform="translate(454.6406,285.529)">
          <path
             d="M 0,0 2.742,1.91 C 2.061,0.956 1.379,0.002 0.697,-0.953 0.466,-0.635 0.233,-0.316 0,0"
             style="fill:#282726;fill-opacity:1;fill-rule:nonzero;stroke:none"
             id="path64" />
        </g>
        <g
           id="g66"
           transform="translate(449.7344,294.5749)">
          <path
             d="M 0,0 C 1.238,0.351 2.478,0.701 3.717,1.052 3.245,-2.012 1.992,-2.312 0,0"
             style="fill:#282726;fill-opacity:1;fill-rule:nonzero;stroke:none"
             id="path68" />
        </g>
        <g
           id="g70"
           transform="translate(453.3496,295.5466)">
          <path
             d="M 0,0 C 1.377,1.084 2.754,2.169 4.131,3.254 2.754,2.17 1.377,1.085 0,0"
             style="fill:#282726;fill-opacity:1;fill-rule:nonzero;stroke:none"
             id="path72" />
        </g>
        <g
           id="g74"
           transform="translate(390.8062,318.1452)">
          <path
             d="m 0,0 c -0.677,-0.398 -1.119,-0.874 -1.438,-0.802 -0.744,0.164 -1.429,0.593 -2.137,0.914 0.379,0.237 0.786,0.708 1.131,0.665 C -1.691,0.683 -0.971,0.328 0,0"
             style="fill:#282726;fill-opacity:1;fill-rule:nonzero;stroke:none"
             id="path76" />
        </g>
        <g
           id="g78"
           transform="translate(442.584,274.1208)">
          <path
             d="M 0,0 C -0.045,-0.651 -0.091,-1.302 -0.136,-1.952 -0.761,-1.584 -1.385,-1.216 -2.01,-0.849 -1.34,-0.565 -0.67,-0.283 0,0"
             style="fill:#282726;fill-opacity:1;fill-rule:nonzero;stroke:none"
             id="path80" />
        </g>
        <g
           id="g82"
           transform="translate(357.791,177.1687)">
          <path
             d="M 0,0 C -0.035,6.287 -0.07,12.574 -0.105,18.861 4.263,12.599 0.951,6.293 0,0"
             style="fill:#282726;fill-opacity:1;fill-rule:nonzero;stroke:none"
             id="path84" />
        </g>
        <g
           id="g86"
           transform="translate(372.626,69.3689)">
          <path
             d="M 0,0 C -0.492,2.613 -1.045,5.218 -1.433,7.847 -1.53,8.502 -1.091,9.236 -0.898,9.934 -0.554,9.568 0.014,9.248 0.098,8.831 0.681,5.932 3.582,2.94 -0.127,0.155 Z"
             style="fill:#282726;fill-opacity:1;fill-rule:nonzero;stroke:none"
             id="path88" />
        </g>
        <g
           id="g90"
           transform="translate(369.0977,95.4782)">
          <path
             d="M 0,0 C -0.751,-0.269 -1.336,-0.479 -1.921,-0.687 -2.096,0.015 -2.52,0.782 -2.36,1.398 -2.25,1.825 -1.336,2.045 -0.782,2.357 -0.555,1.675 -0.329,0.992 0,0"
             style="fill:#282726;fill-opacity:1;fill-rule:nonzero;stroke:none"
             id="path92" />
        </g>
      </g>
    </g>
  </g>
</svg>
