<?xml version="1.0" encoding="UTF-8" standalone="no"?>
<!-- Created with Inkscape (http://www.inkscape.org/) -->

<svg
   xmlns:dc="http://purl.org/dc/elements/1.1/"
   xmlns:cc="http://creativecommons.org/ns#"
   xmlns:rdf="http://www.w3.org/1999/02/22-rdf-syntax-ns#"
   xmlns:svg="http://www.w3.org/2000/svg"
   xmlns="http://www.w3.org/2000/svg"
   xmlns:sodipodi="http://sodipodi.sourceforge.net/DTD/sodipodi-0.dtd"
   xmlns:inkscape="http://www.inkscape.org/namespaces/inkscape"
   width="135.67496mm"
   height="82.741386mm"
   viewBox="0 0 135.67496 82.741386"
   version="1.1"
   id="svg1116"
   inkscape:version="0.92.2 5c3e80d, 2017-08-06"
   sodipodi:docname="fill.svg">
  <defs
     id="defs1110" />
  <sodipodi:namedview
     id="base"
     pagecolor="#ffffff"
     bordercolor="#666666"
     borderopacity="1.0"
     inkscape:pageopacity="0.0"
     inkscape:pageshadow="2"
     inkscape:zoom="0.35"
     inkscape:cx="-1687.8921"
     inkscape:cy="-35.700741"
     inkscape:document-units="mm"
     inkscape:current-layer="layer1"
     showgrid="false"
     fit-margin-top="0"
     fit-margin-left="0"
     fit-margin-right="0"
     fit-margin-bottom="0"
     inkscape:window-width="2560"
     inkscape:window-height="1345"
     inkscape:window-x="0"
     inkscape:window-y="0"
     inkscape:window-maximized="1" />
  <metadata
     id="metadata1113">
    <rdf:RDF>
      <cc:Work
         rdf:about="">
        <dc:format>image/svg+xml</dc:format>
        <dc:type
           rdf:resource="http://purl.org/dc/dcmitype/StillImage" />
        <dc:title />
      </cc:Work>
    </rdf:RDF>
  </metadata>
  <g
     inkscape:label="Ebene 1"
     inkscape:groupmode="layer"
     id="layer1"
     transform="translate(-22.498838,-56.646122)">
    <g
       id="g5754"
       transform="matrix(-0.06913902,0.61626618,-0.61626618,-0.06913902,653.18588,225.78261)"
       style="fill:#a52431">
      <path
         inkscape:connector-curvature="0"
         id="path4835-2"
         d="m -172.04969,875.1219 c -3.70291,0 -4.22854,-1.0585 -2.64137,-2.6442 1.58571,-1.5857 3.69851,-2.6414 5.28421,-2.6399 3.70145,0 4.22855,1.0585 2.11428,3.1714 -1.06008,1.5857 -2.64578,2.1127 -4.75712,2.1127"
         style="fill:#a52431;fill-opacity:1;fill-rule:nonzero;stroke:none" />
      <path
         inkscape:connector-curvature="0"
         id="path4825-0"
         d="m -164.65902,896.2676 c -2.64284,1.0571 -5.28715,0.5242 -7.39848,-1.5886 -2.11427,-2.6429 -2.11427,-4.7571 0.53004,-5.8157 7.92852,-3.6956 5.28421,1.5886 8.98125,5.8186 z"
         style="fill:#a52431;fill-opacity:1;fill-rule:nonzero;stroke:none" />
      <path
         inkscape:connector-curvature="0"
         id="path4823-9"
         d="m -161.49935,925.3388 c 3.69997,2.6458 -2.11575,6.3444 -6.34282,4.7557 -4.22855,-2.6457 3.70291,-7.3985 6.34282,-4.7557"
         style="fill:#a52431;fill-opacity:1;fill-rule:nonzero;stroke:none" />
      <path
         inkscape:connector-curvature="0"
         id="path4819-6"
         d="m -166.26525,945.9501 c 0.53004,-1.0556 1.58864,-2.1172 2.64725,-2.6443 2.6399,-1.5828 4.75564,-2.1099 6.34135,-0.5242 2.64137,2.6428 -3.70292,7.3985 -7.93146,5.2827 -1.05714,-0.5299 -1.58424,-1.5871 -1.05714,-2.1142"
         style="fill:#a52431;fill-opacity:1;fill-rule:nonzero;stroke:none" />
      <path
         inkscape:connector-curvature="0"
         id="path4817-0"
         d="m -149.94247,886.60533 c 0.5271,-0.5285 3.17287,-2.1142 7.39995,-3.6999 2.64431,-0.5243 4.23001,0 5.28568,1.59 -1.5857,0.5301 -2.64284,2.1129 -8.45856,5.8099 -2.11427,-0.5285 -3.69997,-1.5872 -4.22707,-3.7"
         style="fill:#a52431;fill-opacity:1;fill-rule:nonzero;stroke:none" />
      <path
         inkscape:connector-curvature="0"
         id="path4815-6"
         d="m -167.82305,876.7062 c 0,-0.5285 0.52856,-1.0557 1.05713,-1.0571 2.64431,-1.5857 4.75711,-1.0557 6.87139,0.53 3.69704,3.1743 4.75564,5.2901 3.6985,6.3443 -2.6443,2.1157 -11.62849,-3.7029 -11.62702,-5.8172"
         style="fill:#a52431;fill-opacity:1;fill-rule:nonzero;stroke:none" />
      <path
         inkscape:connector-curvature="0"
         id="path4813-2"
         d="m -163.06154,865.0807 c -2.64137,-1.5872 -2.6399,-4.2301 -1.0542,-7.4029 1.58571,-2.6414 3.70145,-3.1685 6.87139,-1.0528 2.64284,1.5872 2.64137,3.7 -0.002,6.8714 -1.58717,2.6414 -3.70291,3.17 -5.81425,1.5843"
         style="fill:#a52431;fill-opacity:1;fill-rule:nonzero;stroke:none" />
      <path
         inkscape:connector-curvature="0"
         id="path4811-6"
         d="m -162.57021,967.0928 c -2.6443,-1.0556 -2.64137,-2.6443 -0.5271,-4.2286 1.58718,-1.0542 3.70145,-1.5857 6.34135,-1.5841 2.64578,0.5299 2.11427,1.5857 -1.05713,4.2299 -1.58571,1.5857 -3.17141,2.1129 -4.75712,1.5828"
         style="fill:#a52431;fill-opacity:1;fill-rule:nonzero;stroke:none" />
      <path
         inkscape:connector-curvature="0"
         id="path4805-7"
         d="m -161.51894,982.4242 c -0.53004,-1.0586 -0.53004,-1.5857 10e-4,-1.5871 l 6.34282,-1.0558 1.58423,1.0587 c -1.58717,1.5842 -2.6443,4.7556 -6.87285,3.1685 l -1.05567,-1.5843 z"
         style="fill:#a52431;fill-opacity:1;fill-rule:nonzero;stroke:none" />
      <path
         inkscape:connector-curvature="0"
         id="path4803-9"
         d="m -161.46904,847.1094 c -1.58571,0.527 -3.17141,0 -4.75565,-1.5902 -0.52856,-0.527 0.53004,-2.1113 3.17141,-4.2256 4.76152,-4.7556 7.93146,-5.2827 9.51569,-1.5812 z"
         style="fill:#a52431;fill-opacity:1;fill-rule:nonzero;stroke:none" />
      <path
         inkscape:connector-curvature="0"
         id="path4801-2"
         d="m -159.90536,908.4233 c -1.58717,0 -7.93146,6.8698 -10.04426,5.2812 -2.11574,-0.5271 -2.64431,-2.1143 -2.11427,-4.7571 1.0586,-2.1157 5.28714,-3.1685 12.6871,-3.6941 3.17287,0 4.75711,0 4.23001,0 1.5857,0 2.1128,0.5301 2.1128,1.0586 0.53004,0.5286 0,1.5857 -1.5857,2.1128 h -5.28568 z"
         style="fill:#a52431;fill-opacity:1;fill-rule:nonzero;stroke:none" />
      <path
         inkscape:connector-curvature="0"
         id="path4799-0"
         d="m -160.43099,899.9676 c -0.5271,-1.5887 0.53003,-2.6458 3.1714,-3.7 2.64284,-1.0585 3.70145,-1.0571 4.23002,0.5286 1.58423,4.23 -2.11721,5.2857 -4.76005,5.2857 -0.5271,0 -1.58571,-0.5271 -2.64137,-2.1143"
         style="fill:#a52431;fill-opacity:1;fill-rule:nonzero;stroke:none" />
      <path
         inkscape:connector-curvature="0"
         id="path4795-3"
         d="m -160.4677,1000.3941 c 0,-1.5872 3.17141,-2.1129 8.98566,-2.1129 -10e-4,2.6458 -2.11721,5.2857 -5.81572,5.2857 -2.11574,-0.53 -3.17288,-1.5871 -3.16994,-3.1728"
         style="fill:#a52431;fill-opacity:1;fill-rule:nonzero;stroke:none" />
      <path
         inkscape:connector-curvature="0"
         id="path4793-7"
         d="m -151.42185,836.5409 h -1.05566 l -0.001,-1.0571 h 1.05861 l -10e-4,1.0557 z"
         style="fill:#a52431;fill-opacity:1;fill-rule:nonzero;stroke:none" />
      <path
         inkscape:connector-curvature="0"
         id="path4789-9"
         d="m -149.35896,972.3843 c -1.58424,0 -2.11134,-0.5315 -2.11281,-1.0585 0.001,-0.5286 0.53004,-1.0571 2.11428,-1.0557 l -10e-4,2.1142 z"
         style="fill:#a52431;fill-opacity:1;fill-rule:nonzero;stroke:none" />
      <path
         inkscape:connector-curvature="0"
         id="path4785-2"
         d="m -157.30363,1018.8954 c -0.52857,-2.1157 2.11427,-3.1714 7.39995,-3.1685 l 1.58717,1.5843 c -0.53003,1.5857 -1.06007,2.1157 -1.58864,2.6443 -3.70291,2.6414 -6.34282,2.1113 -7.39848,-1.0601"
         style="fill:#a52431;fill-opacity:1;fill-rule:nonzero;stroke:none" />
      <path
         inkscape:connector-curvature="0"
         id="path4781-9"
         d="m -156.21566,935.3832 c 0.53003,-1.5873 2.64284,-2.6429 6.34428,-3.17 2.1128,0 3.17141,0.5285 3.69851,1.0571 0,1.0587 -3.70145,6.3414 -7.92852,4.7542 -1.58571,-0.5286 -2.11574,-1.0556 -2.11427,-2.6413"
         style="fill:#a52431;fill-opacity:1;fill-rule:nonzero;stroke:none" />
      <path
         inkscape:connector-curvature="0"
         id="path4779-7"
         d="m -149.30757,834.4281 c -0.5271,-0.5286 0,-1.0586 0.5315,-1.5857 0.5271,-1.5871 2.6399,1.0586 2.6399,2.6443 -1.5857,0 -2.64284,-0.53 -3.1714,-1.0586"
         style="fill:#a52431;fill-opacity:1;fill-rule:nonzero;stroke:none" />
      <path
         inkscape:connector-curvature="0"
         id="path4777-3"
         d="m -150.37352,855.0422 c -3.16994,0 -3.69557,-1.5886 -2.11133,-4.2285 1.58864,-1.5857 3.1714,-2.6443 5.28861,-2.6428 2.64137,0 3.16994,1.5857 1.58277,4.23 -1.05714,1.5842 -2.64284,2.6413 -4.76005,2.6413"
         style="fill:#a52431;fill-opacity:1;fill-rule:nonzero;stroke:none" />
      <path
         inkscape:connector-curvature="0"
         id="path4773-1"
         d="m -153.54933,872.482 c -0.52857,-0.5299 -1.05714,-1.0571 -1.58571,-2.6428 0.001,-1.0571 0.53004,-1.5857 1.58718,-2.1127 4.75711,-1.5828 9.51422,0.5315 8.98418,2.6442 0,1.0587 -0.52856,2.1143 -2.11427,2.6414 -2.64431,0.5286 -4.75858,0.5286 -6.87138,-0.5301"
         style="fill:#a52431;fill-opacity:1;fill-rule:nonzero;stroke:none" />
      <path
         inkscape:connector-curvature="0"
         id="path4771-2"
         d="m -146.70731,955.4702 c -3.17435,2.6414 -5.28862,2.1142 -6.87139,-1.5887 0.5271,-1.0571 1.58571,-2.1127 3.69998,-3.1685 2.11427,-1.0556 3.69998,-1.0571 4.75858,0 l 1.05567,1.0572 -2.64284,3.6984 z"
         style="fill:#a52431;fill-opacity:1;fill-rule:nonzero;stroke:none" />
      <path
         inkscape:connector-curvature="0"
         id="path4769-9"
         d="m -145.10986,919.5275 h -11.62997 c -1.05567,0 -1.58276,-0.5299 -1.58276,-2.1156 0,-1.5858 1.5857,-2.6415 4.22854,-2.64 6.87138,0.53 10.57136,1.5887 10.04132,3.703 l -1.05713,1.0557 z"
         style="fill:#a52431;fill-opacity:1;fill-rule:nonzero;stroke:none" />
      <path
         inkscape:connector-curvature="0"
         id="path4767-3"
         d="m -125.09445,878.15853 c -0.53151,0 -1.05714,-0.53 -1.05861,-1.0601 10e-4,-0.527 0.52857,-1.0571 1.05714,-1.0571 0.53003,0 0.53003,0.5301 0.5315,1.0571 -0.001,0.5301 -0.002,1.0601 -0.53003,1.0601"
         style="fill:#a52431;fill-opacity:1;fill-rule:nonzero;stroke:none" />
      <path
         inkscape:connector-curvature="0"
         id="path4761-4"
         d="m -148.3077,989.2971 c 0.5271,-0.5272 2.64431,-1.0542 6.34282,-1.0528 0,2.1144 -1.58424,3.7 -4.22855,3.697 -2.64431,-0.527 -3.17141,-1.0571 -2.11427,-2.6442"
         style="fill:#a52431;fill-opacity:1;fill-rule:nonzero;stroke:none" />
      <path
         inkscape:connector-curvature="0"
         id="path4757-8"
         d="m -144.0865,1010.9729 c -2.11574,-1.0602 -2.64137,-2.1158 -2.1128,-3.7031 0.52857,-1.5842 2.11427,-2.1127 4.75711,-1.5842 2.64137,0 3.17141,1.0586 2.11427,2.6444 -1.5857,2.6429 -3.1714,3.1699 -4.75858,2.6429"
         style="fill:#a52431;fill-opacity:1;fill-rule:nonzero;stroke:none" />
      <path
         inkscape:connector-curvature="0"
         id="path4755-4"
         d="m -147.21973,907.899 c 0.52857,-1.0585 1.58717,-2.6428 2.11721,-4.7555 -2.11427,-2.6444 -2.64284,-4.7572 -1.05567,-5.2857 2.64137,4.7556 7.39555,5.2871 7.39702,6.8743 0,1.5857 -0.53151,2.6399 -1.58718,3.1699 -3.69997,1.5843 -5.81571,1.5827 -6.87138,0"
         style="fill:#a52431;fill-opacity:1;fill-rule:nonzero;stroke:none" />
      <path
         inkscape:connector-curvature="0"
         id="path4751-0"
         d="m -136.62781,847.1211 c -2.11281,0 -4.22561,-1.5886 -6.33842,-5.2872 1.58718,-2.1143 3.70145,-2.6442 6.34429,-2.1143 0.5271,0.5301 1.05567,1.5873 1.0542,4.2301 0.5271,2.1143 -0.001,3.1699 -1.06007,3.1714"
         style="fill:#a52431;fill-opacity:1;fill-rule:nonzero;stroke:none" />
      <path
         inkscape:connector-curvature="0"
         id="path4749-3"
         d="m -145.1128,927.459 c -4.75711,-2.6429 4.23295,-11.0955 8.98713,-7.3955 1.5857,0.5286 2.11427,2.1157 1.5857,3.7014 -10e-4,1.5857 -0.52857,2.6428 -2.11574,3.1685 -3.17141,1.5872 -5.81572,2.1128 -8.45709,0.5256"
         style="fill:#a52431;fill-opacity:1;fill-rule:nonzero;stroke:none" />
      <path
         inkscape:connector-curvature="0"
         id="path4747-6"
         d="m -137.73193,979.7917 c 0.52856,-0.5301 1.05713,-1.0572 2.11427,-1.0557 2.11427,0 2.64137,1.5857 2.64137,3.6999 -2.64284,0 -4.23001,-1.0585 -4.75564,-2.6442"
         style="fill:#a52431;fill-opacity:1;fill-rule:nonzero;stroke:none" />
      <path
         inkscape:connector-curvature="0"
         id="path4745-1"
         d="m -137.19162,945.9618 c -2.1128,1.0571 -3.69851,0.5301 -4.75711,-1.5857 -0.52563,-1.0571 0.001,-2.1143 2.64577,-3.1728 3.69851,-1.0528 5.81425,-1.5828 6.34282,-1.5828 -0.001,0.53 -0.001,1.5857 -0.52857,2.1157 -0.53003,2.1143 -2.11721,3.7 -3.70291,4.2256"
         style="fill:#a52431;fill-opacity:1;fill-rule:nonzero;stroke:none" />
      <path
         inkscape:connector-curvature="0"
         id="path4743-0"
         d="m -133.49605,959.1789 c 2.1128,1.5857 -1.58717,4.7572 -3.17288,4.7557 -2.11427,-1.5872 1.58718,-4.7571 3.17288,-4.7557"
         style="fill:#a52431;fill-opacity:1;fill-rule:nonzero;stroke:none" />
      <path
         inkscape:connector-curvature="0"
         id="path4741-6"
         d="m -138.74796,867.2052 c -1.05567,-0.5286 -1.5857,-1.0572 -1.58424,-2.1143 -2.1128,-5.8142 0.53298,-8.9841 8.4615,-8.9841 -0.001,0.5299 0,1.5886 -0.53004,2.6428 -2.11868,5.8143 -4.23148,8.4571 -6.34722,8.4556"
         style="fill:#a52431;fill-opacity:1;fill-rule:nonzero;stroke:none" />
      <path
         inkscape:connector-curvature="0"
         id="path4733-6"
         d="m -135.625,998.293 c 0.53003,-2.1129 3.17287,-3.17 7.92998,-3.1685 -0.001,2.6443 -2.6443,5.2842 -4.23001,5.2842 -1.5857,0 -2.64431,-0.53 -3.69997,-2.1157"
         style="fill:#a52431;fill-opacity:1;fill-rule:nonzero;stroke:none" />
      <path
         inkscape:connector-curvature="0"
         id="path4729-5"
         d="m -132.94546,899.4522 c -1.05713,0 -2.11427,-0.5286 -2.64137,-2.1143 -1.58423,-4.7585 1.05861,-6.8714 8.98713,-6.8669 0,0.527 0,1.5842 -0.53004,2.6413 -1.05714,4.2256 -3.17141,6.3414 -5.81572,6.3399"
         style="fill:#a52431;fill-opacity:1;fill-rule:nonzero;stroke:none" />
      <path
         inkscape:connector-curvature="0"
         id="path4727-5"
         d="m -129.28953,1018.9101 c -2.11427,0.5285 -3.70144,0 -4.22707,-2.1143 -0.52857,-2.1158 3.1714,-3.7015 5.81424,-3.1714 1.58571,0 2.11281,0.5315 1.58718,2.1143 -0.53151,1.06 -1.58864,2.1142 -3.17435,3.1714"
         style="fill:#a52431;fill-opacity:1;fill-rule:nonzero;stroke:none" />
      <path
         inkscape:connector-curvature="0"
         id="path4725-4"
         d="m -126.09903,970.2832 -1.05861,-1.0585 h 2.11427 l -1.05566,1.0571 z"
         style="fill:#a52431;fill-opacity:1;fill-rule:nonzero;stroke:none" />
      <path
         inkscape:connector-curvature="0"
         id="path4723-7"
         d="m -137.17841,910.0206 c 1.58718,0 4.22855,0 8.45709,0.533 1.05861,0 2.11427,0.53 3.69998,1.5887 0.52857,1.5857 -0.002,3.1714 -1.58864,3.697 -4.75711,1.5842 -10.56989,-1.0616 -10.56843,-5.8187"
         style="fill:#a52431;fill-opacity:1;fill-rule:nonzero;stroke:none" />
      <path
         inkscape:connector-curvature="0"
         id="path4721-6"
         d="m -160.54746,825.28515 c -1.58423,-0.53 -1.05713,-2.1143 0.53004,-3.7 0.52857,-0.5285 1.05714,-0.527 1.5857,-0.5256 1.05714,0 2.11428,0.5271 3.16994,2.1143 0.53004,1.5872 0.53004,2.1158 -1.05566,2.6428 -2.11575,0 -3.70145,0 -4.23002,-0.5315"
         style="fill:#a52431;fill-opacity:1;fill-rule:nonzero;stroke:none" />
      <path
         inkscape:connector-curvature="0"
         id="path4717-6"
         d="m -128.16926,850.8254 c -1.5857,-1.0586 -1.05713,-2.1158 0.52857,-3.17 1.0586,-1.0585 2.11427,-1.0571 3.70144,0 1.58424,1.5842 1.58277,2.6399 -0.002,3.6985 -1.58571,0.5286 -2.64138,0.5286 -4.22708,-0.53"
         style="fill:#a52431;fill-opacity:1;fill-rule:nonzero;stroke:none" />
      <path
         inkscape:connector-curvature="0"
         id="path4715-9"
         d="m -126.58556,856.1081 c 1.05566,-0.5257 2.11574,-0.5257 3.1714,0.5344 1.05714,1.5828 1.05714,2.1113 -0.001,2.6414 -1.5857,-0.5301 -2.64137,-1.5886 -3.16994,-3.1758"
         style="fill:#a52431;fill-opacity:1;fill-rule:nonzero;stroke:none" />
      <path
         inkscape:connector-curvature="0"
         id="path4713-3"
         d="m -125.76736,869.56021 c 0,0.527 -1.58717,2.1113 -4.23148,4.7556 -2.1128,1.5843 -4.22708,1.5813 -5.81278,0 -2.11427,-1.5843 -1.58424,-3.6971 2.11574,-6.3399 2.11574,-1.5843 4.75711,-2.1129 7.92852,-2.1129 v 3.7015 z"
         style="fill:#a52431;fill-opacity:1;fill-rule:nonzero;stroke:none" />
      <path
         inkscape:connector-curvature="0"
         id="path4711-7"
         d="m -128.20751,952.8375 c -4.75418,-1.5872 3.17434,-6.8684 7.93293,-6.3398 1.05566,0.5285 1.05566,1.0571 0.52563,2.6428 -0.52857,1.5857 -1.05714,2.1127 -1.58718,2.6413 -2.64137,1.5872 -4.75711,1.5843 -6.87138,1.0557"
         style="fill:#a52431;fill-opacity:1;fill-rule:nonzero;stroke:none" />
      <path
         inkscape:connector-curvature="0"
         id="path4705-2"
         d="m -123.99218,988.7757 c -1.05567,-3.1714 1.58864,-4.7556 7.40142,-4.7542 0,1.5873 -1.05714,3.7 -3.17434,5.2843 -2.11281,1.5842 -3.69851,1.0556 -4.22708,-0.5301"
         style="fill:#a52431;fill-opacity:1;fill-rule:nonzero;stroke:none" />
      <path
         inkscape:connector-curvature="0"
         id="path4701-4"
         d="m -121.88424,1005.6899 c 0.52856,-1.5842 3.17287,-2.1128 6.87285,-2.1114 -10e-4,2.1129 -2.11427,4.2286 -4.76005,4.2286 z"
         style="fill:#a52431;fill-opacity:1;fill-rule:nonzero;stroke:none" />
      <path
         inkscape:connector-curvature="0"
         id="path4699-7"
         d="m -118.67466,907.3778 c -2.64578,1.5857 -3.70291,1.0571 -4.23001,-1.5858 10e-4,-3.6999 3.17287,-4.7571 5.81718,-4.7571 1.58424,0.5315 2.11427,1.0601 2.11427,2.1157 -0.5315,1.0572 -2.11427,2.6429 -3.70144,4.2272"
         style="fill:#a52431;fill-opacity:1;fill-rule:nonzero;stroke:none" />
      <path
         inkscape:connector-curvature="0"
         id="path4695-4"
         d="m -125.00967,885.1764 c -0.001,-0.5271 0.52856,-1.0572 1.5857,-1.5842 3.17288,-1.5857 5.28715,-2.1129 6.34429,-0.5256 3.167,3.6984 3.69703,5.8142 1.05419,6.3412 -2.11427,0 -8.98418,-2.1172 -8.98418,-4.2314"
         style="fill:#a52431;fill-opacity:1;fill-rule:nonzero;stroke:none" />
      <path
         inkscape:connector-curvature="0"
         id="path4691-0"
         d="m -112.83646,840.7796 c -3.69851,0 -6.34281,-0.5286 -6.87138,-2.1157 4.23001,-2.1129 6.87285,-3.1685 8.45855,-3.1685 1.58571,0 2.11428,0.5315 1.58424,2.1157 z"
         style="fill:#a52431;fill-opacity:1;fill-rule:nonzero;stroke:none" />
      <path
         inkscape:connector-curvature="0"
         id="path4689-7"
         d="m -114.42804,858.2239 c -1.5857,-0.5301 -1.5857,-1.5873 0,-2.6429 1.58865,-1.0571 2.64284,-1.0571 4.22855,0 1.05713,0.53 1.05713,1.5887 -0.52857,2.6443 -1.58717,1.0557 -2.64431,1.0557 -3.69998,0"
         style="fill:#a52431;fill-opacity:1;fill-rule:nonzero;stroke:none" />
      <path
         inkscape:connector-curvature="0"
         id="path4685-6"
         d="m -114.99572,958.1262 c 0.53004,-0.5301 2.64285,-1.0572 6.34429,-1.0558 -10e-4,2.1143 -1.06154,3.7015 -4.75858,3.1685 -2.11574,0 -2.64284,-0.527 -1.58571,-2.1127"
         style="fill:#a52431;fill-opacity:1;fill-rule:nonzero;stroke:none" />
      <path
         inkscape:connector-curvature="0"
         id="path4683-8"
         d="m -112.347,943.3262 c -6.34282,0 -10.56989,-5.8187 -14.79844,-7.4044 -3.69851,-1.06 -5.28274,-2.1172 -5.28274,-2.6442 0,-2.6429 5.28568,-5.2843 7.92999,-5.2843 1.05713,1.5872 3.16847,3.1714 5.81278,5.2886 2.11427,0.5301 4.75417,1.5857 7.92705,2.1172 1.05567,0.5272 1.58423,2.1143 2.1128,4.7571 0.52563,2.1143 -1.06007,3.173 -3.70144,3.17"
         style="fill:#a52431;fill-opacity:1;fill-rule:nonzero;stroke:none" />
      <path
         inkscape:connector-curvature="0"
         id="path4681-8"
         d="m -109.18881,978.7417 c -1.58717,0.5272 -5.81571,-0.5329 -3.69997,-2.6442 0.53003,-0.5272 1.58717,-1.0558 3.17287,-0.5272 1.58571,0.5272 2.11281,1.0571 2.11281,1.5857 l -1.58571,1.58569 z"
         style="fill:#a52431;fill-opacity:1;fill-rule:nonzero;stroke:none" />
      <path
         inkscape:connector-curvature="0"
         id="path4677-3"
         d="m -108.6206,876.7281 c -1.06007,1.5843 -2.11721,1.5843 -3.70291,0 -1.58424,-1.0556 -1.58277,-2.1128 0.002,-3.6985 1.58423,-1.5843 2.64284,-1.5827 4.22854,-0.5285 l 1.58424,1.5886 -2.1128,2.6413 z"
         style="fill:#a52431;fill-opacity:1;fill-rule:nonzero;stroke:none" />
      <path
         inkscape:connector-curvature="0"
         id="path4675-1"
         d="m -109.19615,997.2416 c -1.05567,-0.53 -1.5857,-1.0571 -1.5857,-1.5857 0.001,-1.0586 0.52856,-1.5871 2.11574,-2.1128 2.11427,-0.5285 3.17287,-0.53 3.6985,0 0.53004,0.5286 0,1.5842 -1.5857,3.1699 -0.52857,0.5301 -1.5857,1.0558 -2.64284,0.5286"
         style="fill:#a52431;fill-opacity:1;fill-rule:nonzero;stroke:none" />
      <path
         inkscape:connector-curvature="0"
         id="path4671-9"
         d="m -111.79935,893.6409 c 0.53004,-3.17 3.17288,-4.7557 6.87286,-4.7542 1.05566,0 1.58423,0.5285 1.58423,2.1143 -1.5857,1.0571 -2.64284,3.1698 -3.17287,5.8127 l 1.05566,2.1142 c 0,1.0587 -0.001,1.5873 -0.52857,2.1143 -3.70144,1.5857 -7.39848,-4.7585 -5.81131,-7.4013"
         style="fill:#a52431;fill-opacity:1;fill-rule:nonzero;stroke:none" />
      <path
         inkscape:connector-curvature="0"
         id="path4669-2"
         d="m -107.03783,880.4296 c -1.5857,-1.0571 -1.05714,-2.1158 0.52857,-3.1729 1.5857,1.5872 2.64284,2.6443 3.17141,4.2314 -1.58571,0.5272 -2.64431,0 -3.69998,-1.0585"
         style="fill:#a52431;fill-opacity:1;fill-rule:nonzero;stroke:none" />
      <path
         inkscape:connector-curvature="0"
         id="path4665-6"
         d="m -114.9825,923.7677 c -0.53004,0.5286 -2.1128,0.5286 -4.75711,0 -3.69998,-0.527 2.11574,-4.7556 13.2186,-14.7925 1.58571,0.5286 2.64284,1.5857 4.22708,3.1714 l -12.68857,11.624 z"
         style="fill:#a52431;fill-opacity:1;fill-rule:nonzero;stroke:none" />
      <path
         inkscape:connector-curvature="0"
         id="path4663-8"
         d="m -109.20202,1015.2144 c -2.64137,-1.06 -2.11427,-2.1187 1.05713,-3.7015 2.64431,-0.527 4.23002,-0.5256 5.28568,0 1.58571,1.5871 1.58571,3.1744 -1.05713,3.7 -2.64431,0.527 -4.23001,0.5256 -5.28568,0"
         style="fill:#a52431;fill-opacity:1;fill-rule:nonzero;stroke:none" />
      <path
         inkscape:connector-curvature="0"
         id="path4661-9"
         d="m -102.31302,968.1733 v -2.6444 c 1.58424,0 2.642836,2.1129 3.171406,2.6444 z"
         style="fill:#a52431;fill-opacity:1;fill-rule:nonzero;stroke:none" />
      <path
         inkscape:connector-curvature="0"
         id="path4659-2"
         d="m -100.20462,986.1446 c -1.05714,-3.7015 1.587166,-5.8158 7.401416,-5.8128 -0.001,1.5857 -0.5315,4.7571 -3.17581,6.3414 -2.11281,1.5841 -3.69851,1.5841 -4.225606,-0.5286"
         style="fill:#a52431;fill-opacity:1;fill-rule:nonzero;stroke:none" />
      <path
         inkscape:connector-curvature="0"
         id="path4657-6"
         d="m -95.456324,1005.7016 c -1.5857,-0.5285 -2.64137,-1.5872 -2.64137,-3.1743 0.001,-4.2272 2.11574,-5.8113 6.341354,-4.2242 2.11721,0.5271 2.11574,2.6443 0.53003,6.3428 -1.0586,1.5857 -2.644304,1.5857 -4.230014,1.0557"
         style="fill:#a52431;fill-opacity:1;fill-rule:nonzero;stroke:none" />
      <path
         inkscape:connector-curvature="0"
         id="path4655-6"
         d="m -95.989294,1021.0315 c 0,-1.0571 2.11427,-1.5871 6.869924,-1.5857 -10e-4,2.1143 -2.11574,3.1729 -3.701454,4.7586 -1.0542,-0.5301 -2.11427,-1.5857 -3.16847,-3.1729"
         style="fill:#a52431;fill-opacity:1;fill-rule:nonzero;stroke:none" />
      <path
         inkscape:connector-curvature="0"
         id="path4653-4"
         d="m -88.04609,976.1047 c -1.58423,-0.5285 -1.58423,-1.5842 -1.05713,-2.1158 1.58717,-0.527 2.6443,0 3.70144,1.5902 -0.53004,1.5857 -1.0586,1.5842 -2.64431,0.5256"
         style="fill:#a52431;fill-opacity:1;fill-rule:nonzero;stroke:none" />
      <path
         inkscape:connector-curvature="0"
         id="path4651-9"
         d="m -82.76628,994.079 c -2.1128,0 -3.17141,-0.5286 -3.69998,-1.0601 1.58718,-2.6399 2.64431,-2.6399 3.17288,-0.5285 0.5271,0.5299 0.5271,1.0585 0.5271,1.5886"
         style="fill:#a52431;fill-opacity:1;fill-rule:nonzero;stroke:none" />
      <path
         inkscape:connector-curvature="0"
         id="path4649-5"
         d="m -89.09441,952.8462 c 2.11574,-1.5827 3.70291,-1.5812 5.28568,-0.5241 4.22854,2.1157 -3.17288,7.3984 -6.87286,5.8113 -3.169944,-1.5872 -2.641374,-3.1714 1.58718,-5.2872"
         style="fill:#a52431;fill-opacity:1;fill-rule:nonzero;stroke:none" />
      <path
         inkscape:connector-curvature="0"
         id="path4647-0"
         d="m -77.48648,1009.939 c -0.52856,1.0556 -2.11427,2.1098 -3.70144,3.6955 -2.11427,0.5301 -3.17141,-0.5286 -3.16847,-2.6413 -10e-4,-1.5843 1.05714,-2.6444 3.69998,-3.173 z"
         style="fill:#a52431;fill-opacity:1;fill-rule:nonzero;stroke:none" />
      <path
         inkscape:connector-curvature="0"
         id="path4645-4"
         d="m -77.46888,965.5393 c -2.6443,-0.5315 3.1714,-4.2286 4.75711,-3.7 1.05713,1.5857 0.52857,2.6442 -1.05861,3.7 -1.58717,0.5285 -2.64284,0.5285 -3.6985,0"
         style="fill:#a52431;fill-opacity:1;fill-rule:nonzero;stroke:none" />
      <path
         inkscape:connector-curvature="0"
         id="path4643-8"
         d="m -73.77772,984.0376 c -1.5857,0 -2.1128,-0.5286 -2.10987,-1.5842 -10e-4,0.5286 1.5813,-0.5271 4.75565,-3.6985 0.52857,0.5271 1.58423,1.0571 2.11427,2.1158 -1.58717,2.1113 -3.17288,3.1684 -4.76005,3.1669"
         style="fill:#a52431;fill-opacity:1;fill-rule:nonzero;stroke:none" />
      <path
         inkscape:connector-curvature="0"
         id="path4641-7"
         d="m -74.31069,1000.4247 c 0.5271,-1.5872 2.64284,-2.1128 6.34282,-2.1113 l 1.05566,1.0571 c -0.5271,1.5858 -3.1714,3.7 -5.81424,3.1699 -1.58718,0 -2.11428,-0.5299 -1.58424,-2.1157"
         style="fill:#a52431;fill-opacity:1;fill-rule:nonzero;stroke:none" />
      <path
         inkscape:connector-curvature="0"
         id="path4639-1"
         d="m -71.14662,1020.5117 c -0.52857,-1.5857 3.70144,-4.7555 5.81424,-4.7541 l 1.58571,1.5843 c 0,1.5857 -0.52857,2.1142 -1.58571,2.6428 -2.6443,1.5842 -4.75858,2.1127 -5.81424,0.527"
         style="fill:#a52431;fill-opacity:1;fill-rule:nonzero;stroke:none" />
      <path
         inkscape:connector-curvature="0"
         id="path4637-7"
         d="m -63.20048,970.8279 c 0.53003,-1.0557 1.58717,-1.0557 2.64284,0 1.58423,2.1187 -1.05714,3.17 -3.17435,2.6414 -1.5857,-0.5286 -1.0542,-1.0571 0.53151,-2.6428"
         style="fill:#a52431;fill-opacity:1;fill-rule:nonzero;stroke:none" />
      <path
         inkscape:connector-curvature="0"
         id="path4635-2"
         d="m -62.15069,991.4406 c -0.5271,-0.5271 -0.52857,-1.5857 0,-2.6414 1.5857,0.5301 2.64137,1.5872 2.64284,3.1743 -1.05714,0 -2.11427,0 -2.64284,-0.5329"
         style="fill:#a52431;fill-opacity:1;fill-rule:nonzero;stroke:none" />
      <path
         inkscape:connector-curvature="0"
         id="path4633-7"
         d="m -61.62799,1007.8276 c 0.52709,-1.5857 3.1714,-2.1127 8.98565,-2.1098 10e-4,1.5857 -0.53004,2.6429 -1.5857,3.1699 -3.70292,2.6428 -5.81572,2.6428 -7.39995,-1.0601"
         style="fill:#a52431;fill-opacity:1;fill-rule:nonzero;stroke:none" />
      <path
         inkscape:connector-curvature="0"
         id="path4631-2"
         d="m -51.57346,978.2308 c 1.58424,0.5301 2.63991,1.0586 3.16994,2.1172 -1.5857,-0.5315 -2.64284,-1.0586 -3.16994,-2.1172"
         style="fill:#a52431;fill-opacity:1;fill-rule:nonzero;stroke:none" />
      <path
         inkscape:connector-curvature="0"
         id="path4629-2"
         d="m -49.46653,996.7322 c 1.05714,-1.0558 2.11428,-1.0572 3.16848,0.5299 1.0586,1.0587 1.06007,1.5858 0.001,2.1143 -1.5857,-0.53 -2.64284,-1.0571 -3.16994,-2.6442"
         style="fill:#a52431;fill-opacity:1;fill-rule:nonzero;stroke:none" />
      <path
         inkscape:connector-curvature="0"
         id="path4627-6"
         d="m -42.05236,951.8053 -3.16847,-2.6413 c 0.52563,-0.5286 1.58571,-1.0557 2.64284,-0.5301 0.5271,0.5301 0.5271,1.5857 0.52563,3.1714"
         style="fill:#a52431;fill-opacity:1;fill-rule:nonzero;stroke:none" />
      <path
         inkscape:connector-curvature="0"
         id="path4625-1"
         d="m -46.83149,1016.2906 c 0,-2.1127 2.11427,-3.1685 6.87138,-3.1685 0,2.1129 -2.11574,4.2272 -4.23001,4.7557 -1.5857,0 -2.64137,-0.5315 -2.64137,-1.5872"
         style="fill:#a52431;fill-opacity:1;fill-rule:nonzero;stroke:none" />
      <path
         inkscape:connector-curvature="0"
         id="path4623-0"
         d="m -37.82087,950.7526 -1.05861,-1.0586 1.05861,-1.0572 1.05713,1.0587 -1.05713,1.05709 z"
         style="fill:#a52431;fill-opacity:1;fill-rule:nonzero;stroke:none" />
      <path
         inkscape:connector-curvature="0"
         id="path4621-6"
         d="m -39.41392,970.3081 c -0.52857,-0.5286 -0.52857,-0.5286 -0.53004,-1.0585 10e-4,-0.5286 10e-4,-1.0572 0.52857,-1.0558 1.05861,-0.5285 2.11427,-0.527 2.64431,0 2.64137,0.5271 2.64137,1.5842 0,2.1143 z"
         style="fill:#a52431;fill-opacity:1;fill-rule:nonzero;stroke:none" />
      <path
         inkscape:connector-curvature="0"
         id="path4619-1"
         d="m -37.83703,988.808 c 0.002,-2.6428 1.05861,-3.6985 3.70145,-3.7 0.52857,0.5301 1.05567,1.5873 1.05567,3.173 -0.5271,0.5285 -2.11281,0.5299 -4.75712,0.527"
         style="fill:#a52431;fill-opacity:1;fill-rule:nonzero;stroke:none" />
      <path
         inkscape:connector-curvature="0"
         id="path4617-5"
         d="m -33.08725,1008.3665 c -2.11281,0 -3.16848,-1.0571 -3.16994,-3.1729 0,-1.5857 2.6443,-2.6413 7.40142,-2.6384 0,0.5286 0,1.0556 -0.53004,1.5857 -0.52857,2.6413 -2.11574,4.2271 -3.70144,4.2256"
         style="fill:#a52431;fill-opacity:1;fill-rule:nonzero;stroke:none" />
      <path
         inkscape:connector-curvature="0"
         id="path4175-9"
         d="m -26.22027,1024.2279 -1.05861,1.0558 1.05714,1.0585 1.05713,-1.0601 z"
         style="fill:#a52431;fill-opacity:1;fill-rule:nonzero;stroke:none" />
    </g>
  </g>
</svg>
