<?xml version="1.0" encoding="utf-8"?>
<!-- Generator: Adobe Illustrator 22.0.1, SVG Export Plug-In . SVG Version: 6.00 Build 0)  -->
<svg version="1.1" id="Ebene_1" xmlns="http://www.w3.org/2000/svg" xmlns:xlink="http://www.w3.org/1999/xlink" x="0px" y="0px"
	 viewBox="0 0 277.8 106.3" style="enable-background:new 0 0 277.8 106.3;" xml:space="preserve">
<style type="text/css">
	.st0{fill:#282A36;}
</style>
<g>
	<path class="st0" d="M11.3,27.5l11.3,13.8C26.8,37,31.5,33,37.9,33c4.8,0,8.6,3.1,8.6,7.9c0,3.5-1.7,6.9-5.1,10.1L15.6,75.4V91
		h53.1V72.5H43.8l10.8-10.3c9.4-8.8,12.6-15.1,12.6-23.8c0-15-10.7-24.6-26.8-24.6C25.4,13.9,16.6,21.4,11.3,27.5z"/>
	<path class="st0" d="M106,33c5.5,0,9.9,5.8,9.9,20.1s-4.4,20.1-9.9,20.1c-5.8,0-10.4-5.8-10.4-20.1S100.1,33,106,33z M106,13.9
		c-17.6,0-31,12.6-31,39.3s13.4,39.3,31,39.3c17.3,0,30.4-12.6,30.4-39.3S123.3,13.9,106,13.9z"/>
	<polygon class="st0" points="163.4,72.1 148,72.1 148,91 198.5,91 198.5,72.1 183.4,72.1 183.4,14.1 147.4,26.6 147.4,46 
		163.4,40.4 	"/>
	<path class="st0" d="M235.5,31.4c4.3,0,7.6,2.3,7.6,6.6c0,4.3-3.4,6.8-7.6,6.8c-4.3,0-7.6-2.4-7.6-6.8
		C227.8,33.7,231.2,31.4,235.5,31.4z M235.5,60.2c4.9,0,9.1,2.8,9.1,7.7c0,4.9-4.2,7.5-9.1,7.5c-4.8,0-9-2.6-9-7.5
		C226.4,62.9,230.6,60.2,235.5,60.2z M235.5,13.9c-16,0-29,8.2-29,22c0,8.5,4.8,13.9,11.2,16.9c-7.4,2.9-13.2,8.4-13.2,17.6
		c0,13.9,13.9,22.1,30.9,22.1c17.1,0,31-8.2,31-22.1c0-9.2-5.8-14.5-13.2-17.6c6.4-3,11.3-8.4,11.3-16.9
		C264.5,22.1,251.5,13.9,235.5,13.9z"/>
</g>
</svg>
