<?xml version="1.0" encoding="utf-8"?>
<!-- Generator: Adobe Illustrator 22.0.1, SVG Export Plug-In . SVG Version: 6.00 Build 0)  -->
<svg version="1.1" id="Ebene_1" xmlns="http://www.w3.org/2000/svg" xmlns:xlink="http://www.w3.org/1999/xlink" x="0px" y="0px"
	 viewBox="0 0 551.2 49.9" style="enable-background:new 0 0 551.2 49.9;" xml:space="preserve">
<style type="text/css">
	.st0{fill:#282A36;}
	.st1{fill:#FFFFFF;}
	.st2{fill:#FF5555;}
	.st3{fill:#FF79C6;}
	.st4{fill:#FFB86C;}
	.st5{fill:#F1FA8C;}
	.st6{fill:#50FA7B;}
	.st7{fill:#8BE9FD;}
	.st8{fill:#BD93F9;}
</style>
<g>
	<polygon class="st1" points="49.9,45.4 49.9,7.6 35.7,7.6 28.1,30.3 20.5,7.6 6.3,7.6 6.3,45.4 16.6,45.4 16.6,21.7 22.6,41.8 
		33.5,41.8 39.6,21.7 39.6,45.4 	"/>
	<rect x="55.3" y="7.6" class="st1" width="10.2" height="37.8"/>
	<polygon class="st1" points="84.1,30.9 94.7,45.4 107.3,45.4 92.4,26 106.1,7.6 93.6,7.6 84.1,21.8 81.2,21.8 81.2,7.6 70.9,7.6 
		70.9,45.4 81.2,45.4 81.2,30.9 	"/>
	<path class="st1" d="M119.5,16.8h6.5c2.5,0,4.4,1.1,4.4,3.4c0,2.3-1.9,3.3-4.4,3.3h-6.5V16.8z M126.1,7.6h-16.8v37.8h10.2V31.9h0.6
		l9.1,13.4h12.1L131,31.5c6.4-1.3,9.8-5.5,9.8-11.3C140.8,12.5,135.7,7.6,126.1,7.6z"/>
	<path class="st1" d="M163.7,16.7c5.5,0,9.3,4,9.3,9.8c0,5.7-3.8,9.8-9.3,9.8c-5.5,0-9.3-4-9.3-9.8
		C154.4,20.7,158.2,16.7,163.7,16.7z M163.7,6.9c-11.7,0-20,8.3-20,19.6c0,11.3,8.3,19.6,20,19.6c11.7,0,20-8.3,20-19.6
		C183.6,15.2,175.3,6.9,163.7,6.9z"/>
	<path class="st1" d="M206.5,6.9c-11.9,0-20.2,8.1-20.2,19.6c0,11.5,8.4,19.6,20.2,19.6c8.9,0,18.2-6.3,18.2-18.9
		c0-1.1,0-2.2-0.2-3.4h-18.8v7.5h8.8c-1.1,3.7-3.8,5.6-8.6,5.6c-4.8,0-9.3-3.4-9.3-10.3c0-5.9,3.8-10,9.1-10c3.2,0,5.5,1.1,7.2,2.8
		l7.2-7.1C217.1,8.9,212.6,6.9,206.5,6.9z"/>
	<path class="st1" d="M239.1,16.8h6.5c2.5,0,4.4,1.1,4.4,3.4c0,2.3-1.9,3.3-4.4,3.3h-6.5V16.8z M245.6,7.6h-16.8v37.8h10.2V31.9h0.6
		l9.1,13.4h12.1l-10.3-13.9c6.4-1.3,9.8-5.5,9.8-11.3C260.3,12.5,255.3,7.6,245.6,7.6z"/>
	<path class="st1" d="M277.9,29l3.9-11.2l3.9,11.2H277.9z M302.2,45.4L287.9,7.6h-12.1l-14.3,37.8h10.7l2.5-7.2h14.1l2.5,7.2H302.2z
		"/>
	<polygon class="st1" points="322.9,45.4 336.6,7.6 325.9,7.6 316.9,34.6 307.9,7.6 297,7.6 310.8,45.4 	"/>
	<rect x="339.5" y="7.6" class="st1" width="10.2" height="37.8"/>
	<polygon class="st1" points="384.7,17 384.7,7.6 352.9,7.6 352.9,17 363.7,17 363.7,45.4 373.9,45.4 373.9,17 	"/>
	<path class="st1" d="M396.3,29l3.9-11.2l3.9,11.2H396.3z M420.6,45.4L406.3,7.6h-12.1l-14.3,37.8h10.7l2.5-7.2h14.1l2.5,7.2H420.6z
		"/>
	<polygon class="st1" points="447.6,17 447.6,7.6 415.9,7.6 415.9,17 426.6,17 426.6,45.4 436.9,45.4 436.9,17 	"/>
	<rect x="450.8" y="7.6" class="st1" width="10.2" height="37.8"/>
	<path class="st1" d="M485.1,16.7c5.5,0,9.3,4,9.3,9.8c0,5.7-3.8,9.8-9.3,9.8c-5.5,0-9.3-4-9.3-9.8
		C475.8,20.7,479.6,16.7,485.1,16.7z M485.1,6.9c-11.7,0-20,8.3-20,19.6c0,11.3,8.3,19.6,20,19.6c11.7,0,20-8.3,20-19.6
		C505.1,15.2,496.8,6.9,485.1,6.9z"/>
	<polygon class="st1" points="544.9,45.4 544.9,7.6 534.6,7.6 534.6,28.8 519.1,7.6 509.1,7.6 509.1,45.4 519.4,45.4 519.4,24.1 
		534.9,45.4 	"/>
</g>
</svg>
