<?xml version="1.0" standalone="no"?>
<!DOCTYPE svg PUBLIC "-//W3C//DTD SVG 20010904//EN"
 "http://www.w3.org/TR/2001/REC-SVG-20010904/DTD/svg10.dtd">
<svg version="1.0" xmlns="http://www.w3.org/2000/svg"
 width="1658.000000pt" height="572.000000pt" viewBox="0 0 1658.000000 572.000000"
 preserveAspectRatio="xMidYMid meet">
 <style>
  path {
    fill: #000000;
  }
 </style>
<g transform="translate(0.000000,572.000000) scale(0.100000,-0.100000)"
fill="#FFF" stroke="none">
<path d="M4983 5695 c-69 -32 -139 -90 -300 -249 -128 -125 -143 -143 -143
-173 0 -53 47 -132 119 -201 43 -42 69 -76 76 -99 8 -27 26 -49 73 -85 68 -52
106 -67 131 -51 8 5 32 43 53 84 27 53 71 109 153 199 129 141 167 199 146
224 -8 9 -20 16 -27 16 -17 0 -16 -3 -4 40 9 29 7 43 -11 83 -13 26 -26 47
-31 47 -15 0 -91 -41 -143 -77 -40 -28 -32 -18 38 47 48 45 87 89 87 99 0 9
-19 40 -42 68 -40 47 -46 51 -85 51 -24 0 -64 -11 -90 -23z"/>
<path d="M10342 5700 c-66 -30 -155 -102 -309 -254 -132 -128 -143 -142 -143
-175 0 -62 50 -134 167 -243 13 -11 25 -36 29 -54 5 -26 21 -45 72 -84 36 -28
76 -53 89 -56 28 -8 73 13 73 33 0 36 61 125 166 241 160 175 191 234 134 249
-11 3 -20 6 -20 8 0 1 5 17 11 34 10 28 8 40 -11 82 -13 27 -28 49 -34 49 -12
0 -90 -42 -141 -75 -16 -11 1 9 39 45 37 36 72 67 77 68 21 8 6 51 -32 97 -37
44 -46 50 -83 52 -23 1 -61 -7 -84 -17z"/>
<path d="M3960 5691 c-128 -41 -232 -113 -358 -247 -86 -90 -92 -99 -92 -138
0 -66 84 -199 133 -212 21 -5 36 -29 52 -83 9 -30 77 -104 119 -130 30 -19 35
-19 84 -5 29 9 52 21 52 27 0 7 13 40 29 74 39 81 137 180 269 268 100 67 102
69 102 107 0 24 -5 41 -14 44 -8 3 -16 18 -19 33 -3 15 -16 44 -27 64 -19 33
-27 37 -61 37 -21 0 -69 -11 -106 -25 -83 -32 -75 -21 20 25 55 27 73 40 75
58 4 25 -32 72 -54 72 -6 0 -11 8 -10 17 2 34 -108 42 -194 14z"/>
<path d="M9310 5691 c-121 -39 -228 -110 -341 -227 -104 -108 -113 -124 -105
-180 7 -56 81 -166 124 -185 26 -11 62 -69 62 -99 0 -16 78 -97 114 -119 30
-19 35 -19 83 -5 49 14 51 17 72 74 39 105 160 226 336 332 52 32 54 34 49 68
-4 19 -12 40 -18 45 -7 6 -16 22 -19 37 -4 15 -17 44 -29 64 -21 35 -22 36
-73 32 -29 -2 -81 -18 -121 -37 -94 -44 -68 -21 36 31 66 33 86 48 88 66 4 25
-32 72 -54 72 -6 0 -11 8 -10 17 2 34 -108 42 -194 14z"/>
<path d="M15118 4625 c-104 -18 -224 -58 -340 -115 -82 -40 -98 -45 -98 -31 0
10 9 26 20 36 11 10 20 22 20 27 0 4 -42 8 -94 8 l-94 0 -16 -42 c-41 -111
-216 -604 -216 -610 0 -3 18 -9 41 -13 53 -9 88 -41 96 -87 5 -35 4 -38 -19
-38 -14 0 -33 9 -43 20 -11 12 -31 20 -49 20 -30 0 -34 -5 -79 -95 -50 -101
-57 -135 -32 -155 9 -7 13 -15 10 -18 -3 -3 -16 5 -30 18 -15 14 -29 20 -34
14 -17 -19 -51 -231 -51 -321 l0 -93 33 0 c18 0 39 6 46 13 10 10 11 7 7 -13
-3 -14 -13 -58 -21 -99 -9 -41 -18 -77 -20 -79 -2 -3 -16 3 -30 12 -29 19 -45
53 -45 97 0 28 -3 30 -31 27 l-32 -3 -393 -950 -394 -949 70 -71 70 -70 -24
-140 -24 -140 46 -48 c25 -26 49 -47 53 -47 3 0 9 46 12 103 10 177 54 267
130 267 l36 0 -45 -132 c-24 -73 -44 -135 -44 -139 0 -6 135 -99 145 -99 3 0
5 11 5 25 0 33 29 33 60 0 21 -22 32 -25 97 -25 l73 0 0 46 c0 38 6 53 39 92
87 104 197 388 241 619 23 127 141 217 401 308 115 40 371 106 492 126 l77 13
0 53 c0 29 -3 53 -7 53 -5 -1 -57 -11 -118 -24 l-110 -22 -93 23 -92 23 -143
-40 c-78 -23 -150 -43 -159 -46 -15 -4 -18 1 -18 35 l0 39 93 21 c50 12 277
63 502 114 l410 94 3 -136 c2 -108 6 -139 19 -153 14 -15 14 -18 1 -18 -8 0
-23 9 -33 20 -10 11 -31 20 -47 20 l-28 0 0 -97 0 -96 23 21 c29 28 58 31 34
4 -13 -15 -17 -39 -17 -115 l0 -97 30 0 30 0 0 70 0 70 40 0 40 0 0 -68 c0
-56 -4 -72 -20 -87 -25 -23 -25 -31 0 -38 44 -11 95 -182 107 -356 l6 -84 -62
42 c-34 24 -65 40 -68 37 -5 -5 70 -493 83 -538 3 -11 15 -18 30 -18 24 0 24
1 24 91 0 87 1 90 22 87 20 -3 32 -39 125 -353 57 -192 108 -367 113 -387 23
-81 110 -28 110 67 0 43 25 48 60 10 25 -27 80 -35 80 -12 0 8 -9 40 -20 72
-23 68 -25 95 -7 95 24 0 56 -44 63 -88 l7 -42 48 0 c36 0 49 4 49 14 0 8 -29
158 -65 334 -36 175 -65 324 -65 330 0 21 33 13 62 -15 l28 -27 0 135 c0 74
-11 262 -25 419 l-24 285 26 27 27 28 -24 0 -23 0 20 22 21 23 -23 138 -24
137 24 70 24 70 -45 132 c-24 73 -44 135 -44 138 0 3 42 14 93 24 255 51 367
109 367 192 l0 34 -184 0 c-177 0 -185 1 -191 20 -11 34 -45 59 -91 66 -33 5
-44 11 -44 24 0 14 22 21 140 40 l140 23 0 28 0 29 -164 0 -164 0 -10 43 c-6
23 -88 380 -182 792 -94 413 -173 757 -176 766 -3 12 -24 17 -92 22 -124 9
-212 38 -251 82 -17 20 -31 40 -31 45 0 13 -67 11 -162 -5z m-70 -1097 c5 -18
46 -174 92 -345 77 -291 82 -316 71 -353 -28 -96 -130 -174 -266 -206 -76 -17
-305 -32 -305 -19 0 6 300 799 347 918 20 48 48 50 61 5z m-428 -261 c0 -12
-31 -115 -68 -227 -56 -168 -72 -205 -87 -205 -15 0 -23 17 -41 88 -20 80 -20
87 -5 87 10 0 28 -11 41 -25 13 -14 27 -22 31 -18 4 5 26 76 49 158 23 83 44
153 47 158 10 16 33 6 33 -16z m600 -687 c0 -16 -82 -58 -145 -74 -84 -20
-253 -46 -309 -46 -38 0 -46 3 -46 19 0 16 29 24 223 64 233 47 277 53 277 37z"/>
<path d="M7075 4464 c-649 -24 -1243 -48 -1320 -53 -265 -20 -389 -80 -411
-199 -5 -23 -2 -38 8 -48 11 -12 13 -30 6 -89 -9 -90 -28 -139 -59 -155 -20
-11 -21 -10 -16 11 3 13 14 66 23 117 l18 93 -48 96 -47 95 -52 -6 c-111 -15
-169 -62 -183 -148 -5 -28 -11 -38 -25 -38 -16 0 -19 8 -19 48 0 57 -26 111
-62 132 -27 14 -28 14 -78 -35 l-50 -49 0 -651 c-1 -639 -1 -652 -24 -761 -16
-79 -30 -121 -47 -142 -13 -16 -253 -289 -533 -605 l-510 -576 -29 15 c-58 31
-111 194 -137 422 -10 79 -10 145 -1 278 31 461 129 992 313 1682 l51 194 -23
74 -24 74 -51 0 -51 0 -23 -120 c-26 -132 -36 -143 -81 -95 l-23 24 23 114 22
114 -47 72 c-31 46 -55 71 -67 71 -37 0 -85 -28 -124 -73 -167 -189 -288 -732
-369 -1659 -6 -67 -10 -78 -26 -78 -37 0 -25 133 51 592 39 231 68 423 65 426
-3 3 -16 -5 -29 -17 -51 -48 -44 -12 19 93 l66 109 -21 60 c-25 75 -25 77 0
77 30 0 27 50 -5 80 -18 17 -25 34 -25 62 l0 38 45 0 45 0 0 100 0 100 -25 0
c-20 0 -25 -5 -25 -24 0 -15 -7 -27 -19 -31 -88 -28 -191 -520 -280 -1335 -82
-754 -82 -745 -32 -1041 41 -243 75 -391 127 -549 115 -349 259 -529 440 -547
51 -5 54 -4 54 16 0 17 5 21 18 17 9 -3 90 -23 180 -46 l163 -41 394 186 c217
102 403 185 413 185 16 0 21 -10 26 -49 9 -71 42 -114 94 -125 40 -9 42 -11
37 -40 -13 -82 -46 -468 -41 -473 4 -4 38 24 76 62 l70 69 0 138 0 138 40 0
c26 0 40 -5 40 -13 0 -7 -9 -100 -20 -207 -28 -271 -37 -240 73 -240 l94 0 12
55 c17 73 53 110 126 125 51 11 55 14 65 48 32 114 49 313 140 1667 55 809
103 1486 108 1505 l7 35 100 17 c133 22 158 22 180 -2 24 -27 33 -26 428 24
l337 42 0 -63 0 -63 -347 0 c-308 0 -348 -2 -365 -17 -17 -15 -18 -15 -18 0 0
20 9 21 -125 -6 -105 -22 -110 -24 -113 -50 -3 -21 2 -27 20 -31 13 -3 160
-14 328 -26 l305 -21 138 21 c189 28 179 29 173 -22 -66 -490 -111 -744 -152
-858 -23 -66 -24 -75 -24 -364 0 -294 0 -296 -21 -296 -31 0 -77 -55 -94 -113
-9 -29 -19 -100 -22 -159 l-6 -108 47 0 46 0 0 -35 c0 -47 -36 -81 -95 -90
-39 -5 -45 -9 -45 -31 0 -22 4 -24 45 -24 l45 0 0 -114 0 -114 -65 -22 c-41
-14 -65 -27 -65 -37 0 -8 18 -77 40 -153 22 -76 40 -143 40 -149 0 -19 -23
-12 -52 16 l-28 27 0 -68 c0 -129 69 -392 149 -568 29 -65 32 -68 64 -68 19 0
40 7 47 15 7 8 17 15 22 15 5 0 47 -29 95 -65 78 -59 90 -65 135 -65 l48 0 0
38 c0 20 -20 197 -45 392 -48 380 -51 420 -34 452 12 23 66 48 104 48 23 0 25
4 25 45 0 33 4 45 15 45 20 0 19 -33 -6 -275 -23 -219 -21 -262 15 -410 33
-136 62 -210 98 -251 25 -28 37 -34 69 -34 21 0 39 1 39 3 0 2 -31 139 -70
304 l-69 302 79 493 c219 1348 393 2263 465 2434 19 45 19 44 -5 44 -24 0 -24
9 -1 75 l18 50 174 22 c96 12 246 27 334 33 174 12 255 26 358 63 37 14 67 21
67 17 0 -5 -11 -55 -24 -112 -67 -285 -138 -820 -207 -1545 l-22 -233 22 -157
c110 -778 313 -1202 587 -1230 51 -5 54 -4 54 16 0 17 5 21 18 17 9 -3 91 -23
181 -46 l163 -41 394 186 c217 102 403 185 413 185 14 0 20 -10 24 -45 12 -83
57 -135 117 -135 19 0 21 -4 16 -37 -14 -96 -47 -465 -41 -471 3 -3 37 25 75
63 l70 69 0 138 0 138 40 0 c48 0 47 19 20 -240 -11 -107 -20 -200 -20 -207 0
-10 24 -13 95 -13 l95 0 6 39 c13 79 66 132 144 145 43 7 43 6 74 147 11 49
50 576 116 1544 55 809 103 1490 107 1515 l8 45 100 17 c133 22 158 22 180 -2
24 -27 33 -26 428 24 l337 42 0 -63 0 -63 -347 0 c-308 0 -348 -2 -365 -17
-17 -15 -18 -15 -18 0 0 20 9 21 -125 -6 -105 -22 -110 -24 -113 -49 -4 -34
-18 -32 358 -58 l295 -20 153 22 c83 12 155 19 158 16 6 -7 -36 -330 -72 -543
-29 -177 -68 -344 -89 -385 -12 -24 -15 -81 -15 -330 0 -263 -2 -300 -15 -300
-69 0 -125 -142 -125 -317 l0 -63 45 0 c45 0 45 0 45 -35 0 -49 -34 -81 -94
-90 -40 -6 -46 -10 -46 -31 0 -22 4 -24 50 -24 l50 0 0 -113 0 -113 -70 -23
c-38 -12 -70 -28 -70 -34 0 -7 20 -81 44 -165 36 -126 41 -152 28 -152 -9 0
-29 12 -45 28 l-30 27 6 -100 c8 -127 51 -299 120 -470 l52 -130 36 -3 c23 -2
40 2 49 12 7 9 17 16 22 16 5 0 47 -29 95 -65 78 -59 90 -65 135 -65 l48 0 0
43 c0 23 -20 202 -45 397 -25 195 -45 372 -45 393 0 51 33 83 94 92 l46 7 0
44 c0 32 4 44 15 44 20 0 20 -40 -6 -290 -23 -225 -22 -248 27 -435 45 -178
88 -245 157 -245 38 0 39 0 32 33 -4 17 -36 154 -70 303 l-63 272 20 123 c223
1416 428 2518 513 2770 14 40 25 74 25 76 0 2 -9 3 -20 3 -24 0 -24 9 -1 75
l18 50 174 22 c96 12 246 27 334 33 236 16 358 46 459 115 32 22 68 56 80 76
l20 37 -42 63 -42 64 65 3 65 3 0 52 0 53 -70 23 -70 22 -1257 -45 c-692 -25
-1321 -50 -1398 -56 -264 -19 -384 -77 -410 -198 -4 -21 -2 -38 6 -48 29 -35
-3 -210 -43 -238 -12 -9 -23 -15 -24 -13 -1 1 8 52 20 112 l23 110 -49 99 -49
98 -52 -6 c-111 -15 -169 -62 -183 -148 -5 -28 -11 -38 -25 -38 -16 0 -19 8
-19 45 0 65 -25 121 -61 136 -29 11 -32 10 -80 -37 l-49 -48 0 -656 c-1 -635
-2 -658 -23 -763 l-22 -108 -534 -604 -534 -604 -27 14 c-59 30 -106 166 -135
389 -14 109 -15 154 -5 295 30 468 118 952 297 1639 l66 253 -23 75 -24 74
-51 0 -51 0 -23 -120 c-26 -132 -36 -143 -81 -95 l-23 24 23 116 23 115 -47
70 c-50 76 -63 82 -122 54 -137 -65 -256 -375 -339 -884 -38 -238 -58 -405
-101 -847 -5 -53 -9 -63 -25 -63 -36 0 -25 126 52 586 39 234 68 428 65 431
-3 4 -17 -4 -30 -16 -51 -48 -44 -12 19 93 l66 109 -21 60 c-25 75 -25 77 0
77 30 0 27 50 -5 80 -18 17 -25 34 -25 62 l0 38 45 0 45 0 0 100 0 100 -25 0
c-20 0 -25 -5 -25 -25 0 -35 -15 -31 -45 13 l-25 37 65 3 65 3 0 52 0 53 -68
22 c-84 27 38 29 -1407 -24z m-4080 -1931 c-3 -16 -12 -93 -20 -173 -20 -195
-23 -210 -40 -210 -13 0 -15 29 -15 182 0 173 1 183 22 205 31 33 59 31 53 -4z
m5351 0 c-3 -16 -12 -98 -21 -183 -19 -189 -22 -200 -40 -200 -13 0 -15 28
-15 182 0 173 1 183 22 205 12 13 30 23 41 23 15 0 18 -5 13 -27z m-1870 -857
l23 -89 -45 -88 c-49 -99 -56 -145 -24 -174 11 -10 20 -28 20 -40 0 -12 -9
-30 -20 -40 -24 -22 -26 -35 -5 -35 21 0 20 -4 -25 -70 -48 -70 -51 -106 -20
-255 26 -128 27 -125 -15 -125 -32 0 -35 3 -35 28 0 37 80 931 86 960 3 15 11
22 21 20 12 -2 23 -29 39 -92z m5352 4 l22 -91 -45 -89 c-50 -100 -57 -146
-25 -175 11 -10 20 -28 20 -40 0 -12 -9 -30 -20 -40 -24 -22 -26 -35 -5 -35
21 0 20 -3 -22 -67 -23 -34 -39 -50 -41 -41 -3 15 42 538 54 626 4 31 10 42
23 42 13 0 22 -20 39 -90z m-8283 -626 c90 -66 216 -114 298 -114 30 0 37 -4
37 -20 0 -17 -7 -20 -44 -20 -24 0 -78 11 -121 25 -215 70 -335 161 -335 251
0 26 2 25 58 -30 32 -31 80 -73 107 -92z m5401 -32 c78 -45 187 -82 245 -82
32 0 39 -3 39 -20 0 -32 -71 -26 -192 16 -200 69 -308 153 -308 240 0 25 4 22
74 -44 40 -38 105 -88 142 -110z"/>
<path d="M518 4240 l-416 -209 8 -33 c4 -18 11 -41 15 -51 9 -22 76 -57 109
-57 72 0 76 -35 4 -44 -78 -11 -114 -29 -126 -65 l-11 -31 37 0 c21 0 98 20
172 45 147 49 210 57 210 27 0 -15 -16 -22 -77 -36 -143 -34 -203 -76 -203
-142 l0 -34 140 0 140 0 0 -45 c0 -40 -2 -45 -23 -45 -21 0 -25 -9 -45 -92
-13 -53 -22 -125 -22 -165 l0 -73 28 0 c27 0 29 3 50 93 12 50 22 122 22 160
0 65 1 67 25 67 22 0 25 4 25 38 0 56 17 106 45 132 14 13 27 22 29 19 3 -3
-147 -644 -219 -936 -3 -14 -13 -23 -25 -23 -18 0 -20 7 -20 85 0 84 0 85 25
85 l25 0 0 100 0 100 -30 0 -30 0 0 -95 c0 -92 -1 -95 -22 -95 -22 0 -28 -24
-161 -648 -122 -573 -138 -658 -138 -742 0 -52 -12 -191 -28 -308 l-28 -213
105 -139 104 -140 55 0 c30 0 63 5 75 11 23 12 48 66 48 104 0 18 5 25 20 25
16 0 20 -7 20 -32 0 -48 17 -101 40 -126 18 -19 31 -22 110 -22 l90 0 0 53
c-1 30 -7 60 -15 71 -35 46 -14 118 52 183 48 48 57 106 59 411 3 375 21 519
80 633 23 47 56 79 81 79 7 0 79 -132 159 -292 160 -319 253 -481 378 -657
208 -293 517 -622 871 -928 140 -121 167 -133 210 -93 l22 21 43 -66 c56 -85
66 -85 215 5 64 39 127 70 141 70 24 0 25 3 19 32 -17 79 -65 158 -170 282
-37 42 -65 81 -63 86 2 4 53 -32 113 -80 61 -49 113 -89 118 -90 4 0 7 13 7
28 0 65 -235 335 -328 376 -37 17 -64 50 -215 255 -206 282 -447 597 -567 741
-93 112 -211 230 -229 230 -7 0 -11 31 -11 88 l0 88 133 43 c163 53 240 93
345 177 128 103 248 258 351 457 43 82 51 106 51 151 0 52 1 55 27 58 22 2 29
12 43 53 36 105 38 95 -24 95 l-56 0 0 -73 0 -73 -230 -207 c-126 -114 -236
-207 -244 -207 -9 0 79 132 214 321 l230 322 0 161 c0 89 -5 192 -10 230 -48
331 -307 558 -787 688 l-118 32 -315 3 -315 3 -417 -210z m1132 -360 c205 -73
331 -142 376 -209 18 -27 24 -49 24 -93 0 -53 -3 -60 -48 -115 -169 -202 -428
-394 -800 -593 -163 -88 -202 -103 -202 -77 1 6 51 244 113 527 l112 515 135
47 c85 29 144 44 160 41 14 -3 72 -23 130 -43z"/>
<path d="M15365 1468 c2 -13 12 -66 20 -118 26 -157 23 -150 56 -150 l29 0 0
145 0 145 -55 0 c-52 0 -55 -1 -50 -22z"/>
</g>
</svg>
