<?xml version="1.0" encoding="UTF-8"?>
<!DOCTYPE svg PUBLIC "-//W3C//DTD SVG 1.1//EN" "http://www.w3.org/Graphics/SVG/1.1/DTD/svg11.dtd">
<svg version="1.1" xmlns="http://www.w3.org/2000/svg" xmlns:xlink="http://www.w3.org/1999/xlink" x="0" y="0" width="127.559" height="124.847" viewBox="0, 0, 127.559, 124.847">
  <g id="Logo" transform="translate(-12.756, -14.112)">
    <g id="M">
      <path d="M45.612,14.112 L47.362,17.949 L49.112,21.787 L73.427,75.112 L92.973,32.571 L97.98,42.585 L101.032,35.943 L102.296,33.192 L103.56,30.441 L106.268,35.857 L139.091,101.502 L139.703,102.727 L140.315,103.951 L139.128,104.634 L137.942,105.317 L123.505,113.625 L122.161,114.398 L120.817,115.172 L120.134,113.78 L119.45,112.388 L115.422,104.185 L111.359,106.523 L101.03,85.49 L80.875,132.811 L79.565,135.885 L78.256,138.959 L76.902,135.904 L75.548,132.85 L70.195,120.772 L67.505,127.088 L50.353,88.388 L43.865,119.598 L43.625,120.755 L43.385,121.911 L19.771,121.911 L20.201,120.121 L20.63,118.33 L21.567,114.422 L12.756,114.422 L35.772,18.407 L41.547,31.071 L43.646,22.315 L44.629,18.213 L45.612,14.112 z M92.564,68.253 L72.53,115.291 L78.176,128.03 L98.494,80.327 L92.564,68.253 z M40.403,65.938 L30.325,114.422 L26.046,114.422 L25.295,117.555 L39.841,117.555 L47.324,81.555 L40.403,65.938 z M103.726,40.513 L100.479,47.581 L125.796,98.215 L119.205,102.008 L122.677,109.076 L134.582,102.225 L103.726,40.513 z M46.899,27.431 L44.483,37.51 L67.505,88.001 L71.024,80.342 L46.899,27.431 z" fill="#282A36"/>
      <path d="M136.348,102.655 L103.526,37.01 L78.058,92.441 L46.325,22.847 L23.308,118.862 L40.877,118.862 L50.955,70.378 L78.058,131.528 L103.117,72.693 L121.912,110.963 z" fill="#FFFFFF"/>
    </g>
  </g>
</svg>
