<svg xmlns="http://www.w3.org/2000/svg" viewBox="0 0 1534.78 1162.97"><defs><style>.cls-1{fill:#3c579a;}.cls-2{fill:#b5e0f9;}.cls-3{fill:#fdf2d7;}</style></defs><title>flagoutline</title><g id="Ebene_2" data-name="Ebene 2"><g id="Ebene_1-2" data-name="Ebene 1"><path class="cls-1" d="M1274.11,382.13c85,0,163,6.95,238.09,21.22l2.54,178.38,2.46,173c-87.14-18.56-179.2-27.59-280.85-27.59-153.3,0-308.72,20.87-459,41C627.81,788.23,473.2,809,321.51,809,219.37,809,127.18,799.73,40,780.72L33.32,623.23,26.86,471.69c75,13.9,152.77,20.66,237.32,20.66,169.84,0,341.19-28.09,506.91-55.27,164.76-27,335.13-54.95,503-54.95h0m0-12c-337.72,0-672.2,110.22-1009.92,110.22-83.07,0-166.41-6.68-250-23.3L28.44,790.43C126.19,812.6,223.82,821,321.51,821c305,0,609.85-81.87,914.84-81.87,97.66,0,195.35,8.4,293.07,30.56q-2.68-188.13-5.36-376.24c-83.58-16.64-166.86-23.31-250-23.31Z"/><path class="cls-2" d="M1307.89,12c70,0,135.24,5,198.95,15.38l5,351.49c-75.08-13.94-153-20.73-237.75-20.74H1274c-169.82,0-341.16,28.1-506.86,55.27-164.76,27-335.12,55-503,55-85.1,0-163.19-7-238.37-21.27L12.62,137.9c63.52,10.06,128.55,15,198.26,15,83.17,0,173.68-7.24,276.69-22.14C579.19,117.48,672,99.55,761.66,82.21c89.43-17.28,181.89-35.16,272.94-48.32C1136.44,19.16,1225.81,12,1307.81,12h.08m-.08-12C939.62,0,579.08,140.86,210.88,140.86c-70,0-140.24-5.09-210.88-17.2L14.22,457.05c83.58,16.63,166.86,23.3,250,23.3,337.72,0,672.2-110.24,1009.92-110.22,83.07,0,166.41,6.68,250,23.31q-2.68-188.13-5.36-376.24C1448,5.08,1377.82,0,1307.81,0Z"/><path class="cls-3" d="M1236.43,751.12c102,0,194.06,9.24,281.12,28.21l5,351.2c-100-24-208.15-35.76-329.88-35.77-135.06,0-272.4,14.32-405.23,28.17-132.19,13.79-268.89,28-402.68,28-122.35,0-230.58-12-330.5-36.61L41.1,805.5C128.12,824,220,833,321.51,833c153.31,0,308.74-20.87,459.06-41,149.5-20.07,304.1-40.82,455.78-40.83h.08m-.09-12c-305,0-609.84,81.87-914.83,81.87-97.66,0-195.35-8.4-293.07-30.56q7.12,166.7,14.23,333.39c113.66,29,227.73,39.15,342.1,39.15,268.84,0,539.06-56.21,807.9-56.21,114.34,0,228.47,10.18,342.11,39.16q-2.68-188.13-5.36-376.24c-97.75-22.17-195.38-30.56-293.08-30.56Z"/></g></g></svg>