<?xml version="1.0" encoding="UTF-8" standalone="no"?>
<!-- Generator: Adobe Illustrator 21.0.2, SVG Export Plug-In . SVG Version: 6.00 Build 0)  -->

<svg
   xmlns:dc="http://purl.org/dc/elements/1.1/"
   xmlns:cc="http://creativecommons.org/ns#"
   xmlns:rdf="http://www.w3.org/1999/02/22-rdf-syntax-ns#"
   xmlns:svg="http://www.w3.org/2000/svg"
   xmlns="http://www.w3.org/2000/svg"
   xmlns:sodipodi="http://sodipodi.sourceforge.net/DTD/sodipodi-0.dtd"
   xmlns:inkscape="http://www.inkscape.org/namespaces/inkscape"
   version="1.1"
   id="Layer_1"
   x="0px"
   y="0px"
   viewBox="0 0 535.34195 563.17608"
   xml:space="preserve"
   sodipodi:docname="Phasenpruefer.svg"
   width="535.34198"
   height="563.17609"
   inkscape:version="0.92.2 5c3e80d, 2017-08-06"><metadata
     id="metadata27"><rdf:RDF><cc:Work
         rdf:about=""><dc:format>image/svg+xml</dc:format><dc:type
           rdf:resource="http://purl.org/dc/dcmitype/StillImage" /><dc:title></dc:title></cc:Work></rdf:RDF></metadata><defs
     id="defs25" /><sodipodi:namedview
     pagecolor="#ffffff"
     bordercolor="#666666"
     borderopacity="1"
     objecttolerance="10"
     gridtolerance="10"
     guidetolerance="10"
     inkscape:pageopacity="0"
     inkscape:pageshadow="2"
     inkscape:window-width="2560"
     inkscape:window-height="1345"
     id="namedview23"
     showgrid="false"
     fit-margin-top="0"
     fit-margin-left="0"
     fit-margin-right="0"
     fit-margin-bottom="0"
     inkscape:zoom="0.79286936"
     inkscape:cx="-140.35964"
     inkscape:cy="197.69503"
     inkscape:window-x="0"
     inkscape:window-y="0"
     inkscape:window-maximized="1"
     inkscape:current-layer="Layer_1" /><g
     id="g864"
     transform="translate(-31.558345,-49.997548)"><path
       style="clip-rule:evenodd;fill:#d9d9d9;fill-opacity:1;fill-rule:evenodd"
       d="m 349.539,50.24 c -0.066,0.009 0.942,-0.366 2,-0.2 3.219,0.505 6.099,4.196 7.599,6.999 1.303,2.435 2.462,5.849 3.399,9.199 0.978,3.496 1.911,7.454 2,10.599 0.1,3.498 -0.162,6.766 1,9.398 1.147,2.599 3.384,4.123 4.999,6.399 2.157,3.04 4.305,7.276 4.2,12.398 -0.084,4.108 -2.184,8.96 -5.8,8.999 -5.688,0.062 -5.224,-7.555 -6.399,-12.798 -0.531,-2.373 -1.885,-5.161 -2.999,-7.999 -1.005,-2.556 -2.064,-5.152 -3.399,-7.399 -2.965,-4.984 -4.123,-10.772 -6.199,-15.398 -1.44,-3.206 -3.021,-5.869 -4,-10.398 -0.527,-2.436 -1.115,-5.438 -0.4,-7.399 0.616,-1.691 2.451,-2.194 3.999,-2.4 z"
       id="path2"
       inkscape:connector-curvature="0" /><path
       style="clip-rule:evenodd;fill:#d9d9d9;fill-opacity:1;fill-rule:evenodd"
       d="m 264.349,52.439 c 0.816,-0.085 1.61,-0.31 3.2,0.6 1.228,0.703 2.272,1.661 1.999,1.399 4.816,4.627 7.224,11.786 10.999,17.798 3.077,4.901 5.467,7.793 9.599,12.199 2.903,3.095 6.288,6.522 9.399,9.798 3.524,3.713 8.55,8.558 10.798,13.599 1.944,4.358 2.067,13.059 -3.799,13.198 -3.201,0.076 -6.726,-3.732 -8.6,-5.999 -0.89,-1.077 -1.943,-2.092 -2.6,-3.2 -1.211,-2.044 -1.992,-4.537 -3.199,-6.799 -1.117,-2.093 -2.441,-4.119 -3.6,-6.199 -2.198,-3.947 -4.784,-8.125 -8.599,-11.199 -3.925,-3.162 -7.504,-4.435 -11.199,-7.799 -2.908,-2.648 -6.673,-7.156 -8.399,-10.799 -1.742,-3.675 -3.799,-10.065 -0.999,-13.998 1.034,-1.451 3.065,-2.397 5,-2.599 z"
       id="path4"
       inkscape:connector-curvature="0" /><path
       style="clip-rule:evenodd;fill:#d9d9d9;fill-opacity:1;fill-rule:evenodd"
       d="m 235.153,141.428 c 4.575,-0.786 8.797,3.236 12.599,5.199 6.188,3.196 13.059,6.294 19.197,10.399 3.141,2.1 6.807,4.422 7.599,7.199 0.618,2.167 -0.202,4.873 -1,5.6 -3.434,3.126 -10.475,-1.285 -13.599,-3.2 -1.698,-1.041 -3.755,-2.263 -5.999,-3.4 -2.291,-1.161 -4.617,-2.577 -6.399,-2.999 -2.828,-0.672 -5.386,-0.113 -7.599,-0.6 -1.136,-0.25 -3.507,-1.19 -4.599,-1.8 -2.043,-1.141 -4.126,-2.954 -4.999,-4.999 -0.717,-1.679 -1.135,-5.162 -0.6,-6.999 0.669,-2.297 3.418,-4.06 5.399,-4.4 z"
       id="path6"
       inkscape:connector-curvature="0" /><path
       style="clip-rule:evenodd;fill:#d9d9d9;fill-opacity:1;fill-rule:evenodd"
       d="m 373.736,243.616 c 6.258,-1.913 11.929,-3.273 16.598,-6.399 9.109,-6.1 17.395,-13.047 24.797,-21.197 1.664,-1.833 3.572,-3.759 5.399,-6.199 1.587,-2.12 3.8,-5.004 3.8,-7.599 -0.002,-2.984 -3.369,-7.097 -5,-8.999 -1.34,-1.563 -4.854,-6.133 -7.599,-6.199 -2.429,-0.059 -5.728,3.452 -7.6,5.999 -2.128,2.898 -3.694,5.777 -5.399,8.199 -3.865,5.493 -7.809,10.663 -11.598,15.398 -5.034,6.29 -10.403,11.993 -15.599,18.398 -1.024,1.263 -2.183,2.352 -3.199,3.6 -2.298,2.818 -4.584,6.97 -5,10.999 -0.532,5.159 1.235,9.698 1,13.998 -0.176,3.214 -1.77,6.8 -3.8,7.799 -2.501,1.231 -7.14,-0.243 -10.398,0.6 -1.7,0.44 -4.555,2.861 -4.999,5.399 -0.413,2.358 -0.007,4.539 -0.4,6.599 -1.147,6.017 -5.328,10.436 -11.198,12.199 -2.102,0.631 -4.895,-0.079 -8.398,0.4 -3.26,0.446 -6.727,2.913 -9.599,5.199 -5.635,4.484 -9.801,9.434 -14.398,14.798 -2.307,2.69 -4.735,5.135 -6.999,7.599 -9.736,10.592 -18.612,19.81 -28.197,30.196 -2.281,2.473 -5.118,4.738 -7.399,7.399 -4.409,5.144 -9.175,10.375 -13.998,15.198 -2.507,2.507 -4.656,5.166 -6.999,7.599 -2.391,2.482 -4.758,4.909 -7.199,7.399 -4.741,4.837 -9.323,10.123 -14.198,14.999 -2.475,2.475 -4.658,5.132 -6.999,7.599 -4.709,4.961 -9.783,9.735 -14.398,14.998 -2.272,2.591 -4.738,4.939 -7.199,7.4 -2.456,2.455 -4.458,5.288 -6.799,7.799 -2.327,2.494 -4.827,5.026 -7.199,7.398 -2.49,2.49 -4.725,4.93 -6.999,7.6 -4.455,5.232 -9.832,9.717 -14.398,14.798 -4.409,4.907 -9.502,9.749 -14.398,14.998 -4.727,5.067 -9.975,9.74 -14.398,14.798 -6.383,7.299 -13.73,15.142 -20.997,22.798 -1.881,1.982 -5.854,7.066 -7.599,6.999 -0.858,-0.033 -3.455,-2.331 -4.2,-3 -1.25,-1.121 -2.993,-2.689 -3,-3.999 -0.01,-1.975 3.896,-5.496 6.399,-7.999 7.248,-7.248 14.424,-14.092 21.397,-21.598 4.676,-5.032 9.166,-10.17 13.798,-14.998 4.741,-4.941 9.112,-10.111 13.798,-14.798 7.202,-7.202 13.989,-14.717 20.797,-22.398 2.242,-2.528 4.125,-5.302 6.399,-7.799 4.51,-4.953 9.279,-9.88 13.998,-14.599 2.42,-2.42 4.626,-5.025 6.999,-7.399 4.754,-4.754 8.958,-9.957 13.798,-14.798 2.447,-2.447 4.596,-4.996 6.999,-7.399 2.411,-2.411 4.581,-5.029 6.999,-7.399 1.213,-1.189 2.464,-2.377 3.599,-3.6 10.046,-10.814 20.971,-22.156 30.996,-33.196 4.599,-5.064 9.715,-9.662 14.198,-14.598 8.913,-9.814 18.395,-19.545 27.597,-29.596 4.398,-4.803 9.061,-11.668 14.998,-13.598 3.288,-1.069 6.953,0.349 10.599,-0.4 3.044,-0.625 7.853,-3.493 8.199,-6.999 0.352,-3.568 -3.358,-5.955 -3.399,-9.799 -0.066,-6.22 4.876,-6.399 11.799,-6.399 4.105,0 8.353,-0.374 10.798,-1.6 1.657,-0.83 3.611,-2.419 4.2,-4.599 0.76,-2.818 0.424,-6.106 0,-8.799 -0.362,-2.299 -1.48,-4.347 -1.4,-6.599 0.24,-6.855 7.255,-10.763 11.599,-14.798 11.75,-10.917 21.208,-23.758 29.597,-38.395 3.857,-6.73 6.265,-16.625 14.598,-18.798 0.543,-0.142 0.337,-0.149 0.8,0 6.127,1.972 11.657,5.67 16.198,9.599 4.323,3.741 9.574,8.442 11.998,13.599 4.113,8.745 -1.521,17.773 -5.999,22.997 -1.66,1.936 -3.332,3.553 -5.199,5.199 -1.839,1.622 -3.758,2.999 -5.799,4.6 -6.247,4.898 -12.502,8.09 -19.598,11.599 -2.362,1.168 -4.858,2.052 -7.199,3.199 -1.148,0.562 -2.438,1.685 -4,2.6 -2.774,1.625 -4.911,3.295 -7.799,5.2 -1.585,1.045 -2.602,1.898 -4.199,1.4 -2.269,-0.707 -2.054,-2.214 -2.2,-4.6 -0.138,-2.218 -0.557,-4.489 -0.201,-6.002 z"
       id="path8"
       inkscape:connector-curvature="0" /><path
       style="clip-rule:evenodd;fill:#d9d9d9;fill-opacity:1;fill-rule:evenodd"
       d="m 535.115,218.418 c 0.134,0 0.268,0 0.4,0 -0.037,0.17 0.078,0.188 0.2,0.2 0,0.133 0,0.267 0,0.4 -0.17,-0.037 -0.188,0.078 -0.2,0.2 -0.133,0 -0.267,0 -0.4,0 0.037,-0.17 -0.077,-0.189 -0.199,-0.2 0,-0.133 0,-0.267 0,-0.4 0.169,0.037 0.188,-0.078 0.199,-0.2 z"
       id="path10"
       inkscape:connector-curvature="0" /><path
       style="clip-rule:evenodd;fill:#d9d9d9;fill-opacity:1;fill-rule:evenodd"
       d="m 518.717,227.217 c 4.817,-0.418 10.505,0.521 15.599,1 1.664,0.156 3.418,0.07 5.399,0.2 3.632,0.238 7.852,0.84 11.799,1.2 3.596,0.328 9.057,0.11 10.999,1.8 1.486,1.293 4.464,8.121 2.8,11.199 -1.231,2.275 -7.705,2.869 -12.199,2.399 -2.93,-0.306 -5.676,-1.47 -8.999,-1.8 -0.961,-0.095 -1.986,0.021 -2.999,-0.2 -1.756,-0.382 -2.956,-2.071 -5,-2.4 -2.904,-0.468 -5.447,0.651 -7.799,0.6 -4.932,-0.107 -7.164,-1.738 -9.599,-4.999 -1.194,-1.599 -2.806,-3.103 -2.8,-4.999 0.006,-1.898 1.183,-3.272 2.799,-4 z"
       id="path12"
       inkscape:connector-curvature="0" /><path
       style="clip-rule:evenodd;fill:#d9d9d9;fill-opacity:1;fill-rule:evenodd"
       d="m 502.719,287.41 c 4.906,-1.105 8.317,2.378 11.398,5.399 2.995,2.936 5.965,5.674 9.599,7.799 3.029,1.771 6.941,2.721 10.399,4.599 1.509,0.82 2.732,2.318 4.199,3.2 1.044,0.627 2.296,1.051 3.4,1.6 3.158,1.571 6.181,3.454 9.199,5.599 2.953,2.099 6.154,3.839 9.198,5.799 0.485,0.312 0.893,0.697 1.4,1 1.696,1.013 3.992,3.138 4.799,5.399 1.525,4.272 -0.009,9.706 -3.399,9.999 -2.481,0.214 -6.148,-2.07 -8.599,-3.6 -4.777,-2.982 -8.527,-5.073 -12.799,-8.199 -0.33,-0.242 -0.707,-0.362 -0.999,-0.6 -0.236,-0.192 -0.348,-0.6 -0.6,-0.8 -2.212,-1.756 -4.745,-2.914 -7.4,-4.6 -5.836,-3.706 -10.677,-5.843 -15.397,-8.799 -3.604,-2.256 -7.146,-4.747 -10.799,-7.199 -2.44,-1.638 -4.22,-2.703 -6.199,-5.199 -0.814,-1.027 -1.772,-2.331 -2,-3.2 -1.074,-4.105 2.109,-7.636 4.6,-8.197 z"
       id="path14"
       inkscape:connector-curvature="0" /><path
       style="clip-rule:evenodd;fill:#d9d9d9;fill-opacity:1;fill-rule:evenodd"
       d="m 445.726,314.206 c 0.262,-0.053 1.846,-0.427 3.2,0 3.073,0.969 4.419,5.236 5.599,8.399 1.207,3.235 3.673,7.118 5.199,8.799 2.057,2.264 5.298,4.041 7.8,6.799 1.394,1.537 2.725,3.293 4.199,4.999 1.39,1.608 2.545,3.444 3.8,5.199 2.553,3.572 6.605,6.714 8.398,9.799 2.291,3.941 2.9,9.398 -1.8,10.798 -4.725,1.409 -8.26,-1.275 -10.798,-3.6 -4.464,-4.086 -6.985,-10.201 -10.6,-15.598 -1.163,-1.738 -2.625,-3.384 -3.799,-5.199 -2.396,-3.704 -4.503,-6.857 -7.799,-9.799 -2.443,-2.181 -5.832,-4.004 -7.399,-6.999 -1.227,-2.343 -1.767,-6.606 -1.4,-8.599 0.546,-2.955 3.749,-4.664 5.4,-4.998 z"
       id="path16"
       inkscape:connector-curvature="0" /><path
       style="clip-rule:evenodd;fill:#d9d9d9;fill-opacity:1;fill-rule:evenodd"
       d="m 73.173,532.179 c 4.115,1.617 7.501,3.964 9.599,7.6 -2.421,4.984 -6.232,9.014 -9.599,13.198 -6.676,8.298 -13.451,16.55 -20.397,24.797 -3.422,4.062 -7.398,7.814 -9.999,12.598 1.019,2.566 2.354,3.913 4.399,5.6 1.495,1.232 4.207,3.381 6.399,3.399 2.018,0.017 4.61,-2.496 6.199,-3.799 5.464,-4.48 10.77,-9.105 15.998,-13.398 3.706,-3.043 6.542,-6.054 9.999,-9.799 1.367,-1.482 3.147,-2.984 4.799,-5 1.427,-1.74 3.859,-3.775 3.999,-5.799 0.257,-3.715 -3.447,-5.028 -3.2,-9.199 0.119,-1.992 2.282,-4.082 4.399,-6.199 3.749,-3.749 6.65,-7.083 10.399,-10.599 1.891,-1.774 3.376,-3.616 5,-5.399 1.655,-1.817 3.751,-3.317 5.399,-5.199 4.793,-5.473 9.748,-10.968 15.198,-15.998 3.596,-3.318 7.085,-6.994 10.399,-10.599 3.393,-3.691 6.877,-7.186 10.199,-10.799 6.772,-7.367 14.049,-14.073 20.597,-21.197 6.889,-7.494 14.065,-14.29 20.598,-21.397 6.691,-7.279 13.597,-14.196 20.598,-21.197 6.716,-6.716 13.119,-14.518 20.197,-21.597 2.507,-2.507 5.271,-5.19 7.799,-7.999 2.373,-2.638 5.072,-5.249 7.599,-7.999 3.024,-3.29 5.961,-7.951 12.398,-7.599 2.523,0.138 4.678,1.158 6.799,1.999 2.104,0.836 4.243,1.72 6.399,2.4 4.269,1.345 9.111,2.84 14.598,2.799 8.377,-0.062 13.68,-6.372 16.398,-12.198 1.358,-2.908 2.663,-6.61 3.6,-10.599 0.91,-3.875 1.258,-8.115 2,-12.198 2.889,-15.899 9.222,-29.887 18.397,-38.595 4.988,-4.735 10.259,-8.896 16.197,-12.398 8.885,-5.24 18.87,-9.336 28.797,-13.798 9.35,-4.204 18.453,-10.343 26.196,-16.398 5.393,-4.217 10.881,-8.246 16.198,-12.398 2.62,-2.046 4.947,-4.473 7.399,-6.799 12.01,-11.399 23.866,-23.589 33.195,-37.995 3.691,-5.699 7.096,-11.895 9.799,-18.798 2.782,-7.105 4.733,-15.107 4.399,-23.997 -0.32,-8.573 -3.203,-15.253 -7.398,-20.997 -1.046,-1.431 -1.837,-2.953 -3,-4.2 -3.31,-3.547 -6.792,-7.286 -10.999,-10.199 -6.081,-4.21 -12.55,-7.072 -21.397,-7.199 -8.405,-0.121 -15.871,2.439 -22.597,5.8 -12.824,6.408 -23.306,15.507 -32.396,24.597 -3.598,3.597 -6.873,7.388 -10.399,11.199 -1.104,1.193 -1.948,2.7 -2.999,3.999 -4.222,5.218 -8.469,10.474 -12.599,15.798 -4.084,5.264 -7.61,11.237 -11.398,16.998 -5.958,9.059 -10.587,17.607 -15.398,27.396 -0.811,1.652 -1.741,3.104 -2.399,4.799 -5.796,14.922 -12.884,29.873 -22.997,40.995 -8.965,9.858 -19.625,17.936 -32.796,24.197 -6.374,3.03 -13.215,5.356 -18.998,9.399 -5.182,3.622 -10.632,8.598 -13.398,14.998 -2.683,6.207 -4.575,16.13 -1.6,23.997 0.267,0.704 1.172,2.57 1.8,3.6 0.255,0.418 2.01,1.575 2,3.2 -0.012,1.783 -2.732,3.86 -4.399,5.4 -1.966,1.815 -3.522,4.048 -5.399,4 -0.415,0.224 -0.424,0.216 -0.2,-0.2 -1.821,-1.338 -2.366,-3.478 -3.199,-5.199 -2.575,-5.319 -4.439,-12.15 -4.8,-19.797 -0.253,-5.342 0.593,-10.216 1.8,-14.598 1.112,-4.039 3.508,-7.703 5.399,-10.999 7.811,-13.609 22.865,-21.715 38.195,-27.397 16.091,-5.963 28.294,-15.581 35.596,-29.996 1.888,-3.726 3.671,-7.492 4.8,-11.599 1.144,-4.162 2.363,-8.828 3.6,-12.798 1.16,-3.729 3.088,-7.88 4.799,-11.598 1.739,-3.78 3.438,-7.461 5.6,-10.799 4.407,-6.806 8.093,-13.809 12.798,-20.198 2.323,-3.153 4.521,-6.423 6.799,-9.599 2.268,-3.16 4.764,-6.151 7.199,-9.199 9.516,-11.907 19.945,-23.43 31.796,-33.796 12.183,-10.655 24.66,-19.725 40.396,-25.197 9.434,-3.281 20.172,-3.592 28.597,-1 8.027,2.47 14.769,7.476 20.397,12.398 2.974,2.601 5.845,5.133 8.399,8.199 4.892,5.869 9.728,11.781 12.398,20.397 2.665,8.597 2.44,19.457 0.6,28.996 -0.858,4.447 -2.443,8.559 -3.799,12.599 -2.714,8.085 -6.562,15.373 -10.4,22.397 -3.888,7.118 -8.247,13.623 -12.998,19.798 -4.723,6.137 -10.191,11.493 -15.398,17.397 -5.043,5.72 -10.902,11.032 -16.798,15.998 -2.931,2.469 -6.076,4.919 -9.198,7.199 -12.365,9.032 -25.274,18.447 -40.596,24.997 -3.798,1.624 -7.411,3.684 -11.198,5.199 -3.998,1.6 -7.978,2.944 -11.398,5 -10.384,6.239 -18.847,13.368 -23.597,25.597 -1.522,3.919 -2.678,8.297 -3.8,12.598 -1.149,4.406 -2.28,8.85 -3.199,13.198 -1.9,8.992 -5.261,16.813 -10.199,22.598 -2.49,2.917 -5.46,5.177 -8.998,7.399 -3.442,2.161 -7.383,3.923 -11.999,4.4 -8.269,0.854 -14.158,-0.976 -20.598,-3.2 -2.917,-1.007 -5.452,-2.382 -9.398,-1.6 -2.278,0.452 -3.744,2.144 -5.8,4.199 -1.681,1.681 -3.492,3.486 -4.799,4.999 -3.253,3.765 -6.679,6.996 -9.599,10.199 -6.507,7.137 -13.135,13.574 -19.198,20.197 -3.149,3.441 -6.549,6.749 -9.799,9.999 -6.627,6.627 -13.092,13.069 -19.997,19.598 -3.338,3.155 -6.532,6.531 -9.799,9.799 -3.294,3.294 -6.726,6.406 -10.199,9.599 -3.402,3.127 -6.491,6.69 -9.799,9.999 -6.519,6.519 -13.013,13.152 -19.398,19.997 -3.098,3.321 -6.382,6.632 -9.798,9.999 -3.227,3.18 -6.313,6.712 -9.599,9.999 -4.742,4.742 -9.441,9.841 -14.598,14.998 -1.854,1.854 -4.033,3.816 -4.199,5.599 -0.446,4.773 3.599,6.834 3.399,10.999 -0.188,3.912 -3.938,4.913 -5.599,7.599 -7.945,7.409 -15.772,14.483 -24.397,21.798 -2.011,1.705 -4.139,3.483 -6.4,5.199 -2.057,1.56 -4.292,3.241 -6.599,4.799 -2.016,1.362 -4.319,3.193 -6.799,4.8 -2.114,1.369 -5.304,3.847 -7.599,3.8 -2.262,-0.047 -4.51,-2.07 -5.999,-3.399 -3.53,-3.15 -5.806,-5.797 -9.199,-9.6 -1.34,-1.501 -3.619,-3.724 -3.799,-5.599 -0.284,-2.954 2.428,-6.652 3.999,-8.999 8.717,-13.018 17.472,-25.632 26.397,-38.596 3.568,-5.185 6.78,-10.669 11.198,-14.801 z"
       id="path18"
       inkscape:connector-curvature="0" /></g></svg>