<svg xmlns="http://www.w3.org/2000/svg" viewBox="0 0 126.53 54.49"><defs><style>.cls-1{fill:#cd334d;}.cls-2{fill:#282c37;}</style></defs><title>wh-logo</title><g id="Ebene_2" data-name="Ebene 2"><g id="Ebene_1-2" data-name="Ebene 1"><path class="cls-1" d="M1.63,50.28H4.89V30.64H1.63V26.85H13.19v3.79H9.9v7.85H22.27V30.64H19V26.85H30.53v3.79H27.28V50.28h3.25V54H19V50.28h3.29V42.51H9.9v7.77h3.29V54H1.63Z"/><path class="cls-1" d="M32.68,50.28h2.49l8.15-23.43H49l8.15,23.43h2.49V54H49.44V50.28h2.68l-1.68-5.09H41.86l-1.68,5.09h2.68V54H32.68Zm16.61-9-2.56-7.69a11.66,11.66,0,0,1-.5-2.37h-.11a16.05,16.05,0,0,1-.5,2.37L43,41.28Z"/><path class="cls-1" d="M73.76,26.39c3.29,0,10.6,1.15,10.6,5.44V35.5H79.81V33.4c0-2-3.6-2.72-5.82-2.72-5.24,0-9.07,3.67-9.07,9.42,0,6.12,4,10.11,9.34,10.11,1.65,0,5.89-.54,5.89-2.68V45.42h4.56v3.71c0,4.06-7,5.36-10.76,5.36a13.88,13.88,0,0,1-14.2-14.16A13.67,13.67,0,0,1,73.76,26.39Z"/><path class="cls-1" d="M87.49,50.28h3.25V30.64H87.49V26.85H98.36v3.79h-2.6V38h3l5.17-7.39h-2.33V26.85h10v3.79h-2.45l-6.55,9v.08a4.48,4.48,0,0,1,1.76,2l4.17,7.58a1.79,1.79,0,0,0,1.8,1h1.26V54h-3.48c-2.3,0-3-.57-3.83-2l-4.75-9a2,2,0,0,0-2-1H95.76v8.23h3.14V54H87.49Z"/><path class="cls-2" d="M0,6.23H6V7.45H3.46L7.26,19.2a5.79,5.79,0,0,1,.22,1h.06a8.13,8.13,0,0,1,.25-1L12.16,6.3h1.43L18,19.2a8.13,8.13,0,0,1,.25,1h.06a5.79,5.79,0,0,1,.22-1l3.8-11.75H19.76V6.23h6V7.45H23.69l-4.8,14.37H17.58L13.19,9c-.16-.47-.28-1-.28-1h-.06s-.12.56-.28,1L8.17,21.82H6.86L2.06,7.45H0Z"/><path class="cls-2" d="M34,5.86c4.24,0,6.36,3.34,6.36,7.11,0,.34-.06.84-.06.84H27.8c0,4.52,3.05,7.11,6.67,7.11a7.06,7.06,0,0,0,4.83-2L40,20a8.49,8.49,0,0,1-5.55,2.15,7.83,7.83,0,0,1-8-8.14C26.43,8.79,30,5.86,34,5.86Zm5,6.73c-.16-3.8-2.43-5.52-5-5.52a6.06,6.06,0,0,0-6.08,5.52Z"/><path class="cls-2" d="M50.46,5.86c4.24,0,6.36,3.34,6.36,7.11,0,.34-.06.84-.06.84H44.25c0,4.52,3.05,7.11,6.67,7.11a7.06,7.06,0,0,0,4.83-2L56.47,20a8.49,8.49,0,0,1-5.55,2.15,7.83,7.83,0,0,1-8-8.14C42.88,8.79,46.47,5.86,50.46,5.86Zm5,6.73c-.16-3.8-2.43-5.52-5-5.52a6.06,6.06,0,0,0-6.08,5.52Z"/><path class="cls-2" d="M58.67,20.6h2.81V1.22h-3V0h4.27V12.37h2.62l4.21-4.92H67.18V6.23h6.33V7.45H71.3l-4.68,5.39v.06s.41.16,1,1.18l3.49,5.83c.34.56.56.69,1.5.69h1.15v1.22H72.58c-1.68,0-2-.31-2.84-1.65l-3.55-5.89c-.37-.59-.75-.69-1.59-.69H62.79v7h2.81v1.22H58.67Z"/><path class="cls-2" d="M82.08,5.86c4.24,0,6.36,3.34,6.36,7.11,0,.34-.06.84-.06.84H75.88c0,4.52,3.05,7.11,6.67,7.11a7.06,7.06,0,0,0,4.83-2L88.1,20a8.49,8.49,0,0,1-5.55,2.15,7.83,7.83,0,0,1-8-8.14C74.51,8.79,78.09,5.86,82.08,5.86Zm5,6.73c-.16-3.8-2.43-5.52-5-5.52A6.06,6.06,0,0,0,76,12.59Z"/><path class="cls-2" d="M90.54,20.6h2.81V8.14a.61.61,0,0,0-.69-.69H90.38V6.23h2.46c1.28,0,1.81.53,1.81,1.71V9a6.55,6.55,0,0,1-.12,1.28h.06a7.18,7.18,0,0,1,6.61-4.39c4.05,0,5.14,2.4,5.14,6.08V20.6h2.81v1.22H105V12.41c0-2.71-.34-5.27-3.83-5.27a6.74,6.74,0,0,0-6.55,7V20.6h2.81v1.22H90.54Z"/><path class="cls-2" d="M117.34,5.86a6,6,0,0,1,5.39,3.43h.06A6.54,6.54,0,0,1,122.67,8V1.22h-3V0H124V19.92a.61.61,0,0,0,.69.69h1.87v1.22h-2.06c-1.28,0-1.81-.53-1.81-1.71v-.34a3.79,3.79,0,0,1,.12-1.09h-.06a6,6,0,0,1-5.64,3.52c-4.18,0-6.73-3.34-6.73-8.17S113.25,5.86,117.34,5.86Zm-.19,15.06c2.87,0,5.55-2,5.55-6.92,0-3.46-1.78-6.86-5.42-6.86-3.05,0-5.55,2.52-5.55,6.89C111.73,18.23,114,20.92,117.15,20.92Z"/></g></g></svg>